SplineFontDB: 3.0
FontName: Abel-Bold
FullName: Abel Bold
FamilyName: Abel
Weight: Bold
Copyright: Copyright (c) 2011, Matthew Desmond (http://www.madtype.com | mattdesmond@gmail.com), with Reserved Font Name Abel.
Version: 1.002
ItalicAngle: 0
UnderlinePosition: -328
UnderlineWidth: 82
Ascent: 1638
Descent: 410
sfntRevision: 0x00010083
LayerCount: 2
Layer: 0 1 "Back"  1
Layer: 1 1 "Fore"  0
NeedsXUIDChange: 1
XUID: [1021 588 1133928653 15156351]
FSType: 0
OS2Version: 3
OS2_WeightWidthSlopeOnly: 0
OS2_UseTypoMetrics: 1
CreationTime: 1311873540
ModificationTime: 1359463770
PfmFamily: 17
TTFWeight: 400
TTFWidth: 5
LineGap: 0
VLineGap: 0
Panose: 2 0 5 6 3 0 0 2 0 4
OS2TypoAscent: 368
OS2TypoAOffset: 1
OS2TypoDescent: -194
OS2TypoDOffset: 1
OS2TypoLinegap: 0
OS2WinAscent: 1
OS2WinAOffset: 1
OS2WinDescent: 0
OS2WinDOffset: 1
HheadAscent: 1
HheadAOffset: 1
HheadDescent: 0
HheadDOffset: 1
OS2SubXSize: 1434
OS2SubYSize: 1331
OS2SubXOff: 0
OS2SubYOff: 287
OS2SupXSize: 1434
OS2SupYSize: 1331
OS2SupXOff: 0
OS2SupYOff: 977
OS2StrikeYSize: 102
OS2StrikeYPos: 512
OS2Vendor: 'MADT'
OS2CodePages: 00000001.00000000
OS2UnicodeRanges: 00000001.00000000.00000000.00000000
Lookup: 258 0 0 "'kern' Horizontal Kerning in Latin lookup 0"  {"'kern' Horizontal Kerning in Latin lookup 0 subtable"  } ['kern' ('DFLT' <'dflt' > 'latn' <'dflt' > ) ]
MarkAttachClasses: 1
DEI: 91125
TtTable: prep
PUSHW_1
 511
SCANCTRL
PUSHB_1
 4
SCANTYPE
EndTTInstrs
ShortTable: maxp 16
  1
  0
  259
  135
  5
  0
  0
  2
  0
  1
  1
  0
  64
  0
  0
  0
EndShort
LangName: 1033 "" "" "" "" "" "" "" "" "Matthew Desmond" "" "Abel is a modern interpretation of the condensed flat-sided sans serif. Originally used for newspaper headlines and posters, this style can also be used for text on the web. Its angled terminals and spiked stems give it enough style to be unique at display sizes, while its mono-weight still works well at smaller text sizes." "" "" "" "" "" "" "" "Abel" "" "Abel-Bold" 
GaspTable: 1 65535 3

StartChar: exclam
Encoding: 33 33 4
Width: 428
VWidth: 2154
Flags: HW
LayerCount: 2
Fore
SplineSet
298.272 356.28 m 1,0,-1
 129.728 356.28 l 1,1,-1
 69.1182 1546.44 l 1,2,-1
 358.882 1546.44 l 1,3,-1
 298.272 356.28 l 1,0,-1
86 -112.439 m 1,4,-1
 86 164.04 l 1,5,-1
 342 164.04 l 1,6,-1
 342 -112.439 l 1,7,-1
 86 -112.439 l 1,4,-1
EndSplineSet
EndChar

StartChar: quotedbl
Encoding: 34 34 5
Width: 645
VWidth: 2113
Flags: HW
LayerCount: 2
Fore
SplineSet
516.442 920.28 m 1,0,-1
 374.558 920.28 l 1,1,-1
 322.5 1406.44 l 1,2,-1
 270.442 920.28 l 1,3,-1
 128.558 920.28 l 1,4,-1
 65.7617 1506.72 l 1,5,-1
 311.762 1506.72 l 1,6,-1
 333.238 1506.72 l 1,7,-1
 579.238 1506.72 l 1,8,-1
 516.442 920.28 l 1,0,-1
EndSplineSet
EndChar

StartChar: numbersign
Encoding: 35 35 6
Width: 1311
VWidth: 2154
Flags: HW
LayerCount: 2
Fore
SplineSet
113 1152.24 m 1,0,-1
 352.148 1152.24 l 1,1,-1
 383.148 1546.44 l 1,2,-1
 606.515 1546.44 l 1,3,-1
 575.515 1152.24 l 1,4,-1
 805.148 1152.24 l 1,5,-1
 836.148 1546.44 l 1,6,-1
 1059.52 1546.44 l 1,7,-1
 1028.52 1152.24 l 1,8,-1
 1239 1152.24 l 1,9,-1
 1239 931.92 l 1,10,-1
 1009.99 931.92 l 1,11,-1
 977.354 502.08 l 1,12,-1
 1198 502.08 l 1,13,-1
 1198 281.761 l 1,14,-1
 957.98 281.761 l 1,15,-1
 927.98 -112.439 l 1,16,-1
 704.485 -112.439 l 1,17,-1
 735.485 281.761 l 1,18,-1
 505.852 281.761 l 1,19,-1
 474.852 -112.439 l 1,20,-1
 251.485 -112.439 l 1,21,-1
 282.485 281.761 l 1,22,-1
 72 281.761 l 1,23,-1
 72 502.08 l 1,24,-1
 301.011 502.08 l 1,25,-1
 333.647 931.92 l 1,26,-1
 113 931.92 l 1,27,-1
 113 1152.24 l 1,0,-1
524.354 502.08 m 1,28,-1
 754.011 502.08 l 1,29,-1
 786.646 931.92 l 1,30,-1
 556.989 931.92 l 1,31,-1
 524.354 502.08 l 1,28,-1
EndSplineSet
EndChar

StartChar: dollar
Encoding: 36 36 7
Width: 1267
VWidth: 2155
Flags: HW
LayerCount: 2
Fore
SplineSet
771.066 -321.36 m 1,0,-1
 517.224 -321.36 l 1,1,-1
 517.224 -86.0615 l 1,2,3
 448.556 -78.3623 448.556 -78.3623 386.866 -56.373 c 0,4,5
 313.735 -24.1777 313.735 -24.1777 259.747 31.7227 c 0,6,7
 205.954 87.4229 205.954 87.4229 174.643 162.081 c 0,8,9
 143 237.529 143 237.529 143 323.07 c 2,10,-1
 143 425.901 l 1,11,-1
 374 464.429 l 1,12,-1
 374 323.07 l 2,13,14
 374 285.318 374 285.318 387.111 252.925 c 0,15,16
 403.24 220.099 403.24 220.099 432.172 195.482 c 128,-1,17
 461.277 170.722 461.277 170.722 500.311 155.855 c 0,18,19
 508.482 152.744 508.482 152.744 517.224 150.133 c 1,20,-1
 517.224 647.484 l 1,21,22
 454.178 667.53 454.178 667.53 394.459 689.952 c 0,23,24
 323.729 722.475 323.729 722.475 268.926 772.895 c 0,25,26
 212.216 825.068 212.216 825.068 177.821 900.244 c 0,27,28
 143 976.353 143 976.353 143 1084.3 c 2,29,-1
 143 1111.96 l 2,30,31
 143 1196.56 143 1196.56 174.7 1271.55 c 0,32,33
 205.958 1345.49 205.958 1345.49 259.56 1401.58 c 0,34,35
 313.484 1457.99 313.484 1457.99 386.559 1490.75 c 0,36,37
 448.913 1513.41 448.913 1513.41 517.224 1521.04 c 1,38,-1
 517.224 1713.36 l 1,39,-1
 771.066 1713.36 l 1,40,-1
 771.066 1520.9 l 1,41,42
 838.649 1513.01 838.649 1513.01 900.501 1489.98 c 0,43,44
 973.602 1456.81 973.602 1456.81 1027.25 1401.26 c 128,-1,45
 1080.99 1345.62 1080.99 1345.62 1112.3 1271.55 c 0,46,47
 1144 1196.56 1144 1196.56 1144 1111.96 c 2,48,-1
 1144 1029.62 l 1,49,-1
 913 991.092 l 1,50,-1
 913 1111.96 l 2,51,52
 913 1148.68 913 1148.68 897.848 1181.08 c 0,53,54
 881.208 1214.13 881.208 1214.13 853.241 1238.34 c 128,-1,55
 825.276 1262.56 825.276 1262.56 786.145 1277.86 c 0,56,57
 778.827 1280.72 778.827 1280.72 771.066 1283.19 c 1,58,-1
 771.066 813.507 l 1,59,60
 833.83 792.557 833.83 792.557 895.058 768.924 c 0,61,62
 968.382 734.953 968.382 734.953 1024.43 683.783 c 0,63,64
 1082.67 630.616 1082.67 630.616 1118.1 553.914 c 0,65,66
 1154 476.197 1154 476.197 1154 367.125 c 2,67,-1
 1154 323.07 l 2,68,69
 1154 237.532 1154 237.532 1122.36 162.081 c 0,70,71
 1090.99 87.293 1090.99 87.293 1036.06 31.0156 c 128,-1,72
 981.138 -25.2578 981.138 -25.2578 908.108 -57.3965 c 0,73,74
 842.848 -80.4863 842.848 -80.4863 771.066 -87.1523 c 1,75,-1
 771.066 -321.36 l 1,0,-1
923 302.88 m 2,76,-1
 923 349.32 l 2,77,78
 923 399.699 923 399.699 909.038 435.299 c 0,79,80
 891.448 471.743 891.448 471.743 861.729 498.385 c 0,81,82
 830.347 526.516 830.347 526.516 786.965 547.385 c 0,83,84
 779.115 551.161 779.115 551.161 771.066 554.844 c 1,85,-1
 771.066 117.587 l 1,86,87
 782.061 120.531 782.061 120.531 792.476 124.451 c 0,88,89
 832.547 139.536 832.547 139.536 861.729 165.695 c 0,90,91
 891.648 192.515 891.648 192.515 909.212 228.137 c 0,92,93
 923 262.473 923 262.473 923 302.88 c 2,76,-1
374 1134.48 m 2,94,-1
 374 1105.32 l 2,95,96
 374 1059.43 374 1059.43 386.846 1027.19 c 0,97,98
 402.721 994.237 402.721 994.237 431.443 969.308 c 0,99,100
 462.825 942.071 462.825 942.071 505.306 920.869 c 0,101,102
 511.118 917.97 511.118 917.97 517.224 915.026 c 1,103,-1
 517.224 1315.37 l 1,104,105
 508.938 1312.68 508.938 1312.68 500.901 1309.36 c 0,106,107
 461.271 1293.02 461.271 1293.02 431.812 1267.04 c 0,108,109
 403.139 1241.73 403.139 1241.73 387.111 1207.35 c 0,110,111
 374 1173.2 374 1173.2 374 1134.48 c 2,94,-1
EndSplineSet
EndChar

StartChar: percent
Encoding: 37 37 8
Width: 1586
VWidth: 2154
Flags: HW
LayerCount: 2
Fore
SplineSet
664.83 1267.36 m 2,0,-1
 664.83 914.836 l 2,1,2
 664.83 868.198 664.83 868.198 644.916 825.881 c 128,-1,3
 625.026 783.614 625.026 783.614 589.372 752.144 c 0,4,5
 554.278 721.167 554.278 721.167 507.225 702.636 c 0,6,7
 458.685 683.52 458.685 683.52 402.767 683.52 c 2,8,-1
 373 683.52 l 2,9,10
 324.137 683.52 324.137 683.52 281.721 702.636 c 0,11,12
 240.606 721.166 240.606 721.166 209.938 752.144 c 0,13,14
 179.028 783.364 179.028 783.364 161.161 825.261 c 0,15,16
 143 867.847 143 867.847 143 914.836 c 2,17,-1
 143 1267.36 l 2,18,19
 143 1314.35 143 1314.35 161.161 1356.93 c 0,20,21
 179.024 1398.83 179.024 1398.83 209.938 1430.05 c 0,22,23
 240.601 1461.03 240.601 1461.03 281.721 1479.57 c 0,24,25
 324.136 1500 324.136 1500 373 1500 c 2,26,-1
 402.767 1500 l 2,27,28
 458.685 1500 458.685 1500 507.225 1479.57 c 0,29,30
 554.282 1461.03 554.282 1461.03 589.372 1430.05 c 0,31,32
 625.026 1398.58 625.026 1398.58 644.916 1356.32 c 128,-1,33
 664.83 1314 664.83 1314 664.83 1267.36 c 2,0,-1
435.954 926.811 m 2,34,-1
 435.954 1256.85 l 2,35,36
 435.954 1262.92 435.954 1262.92 433.328 1267.93 c 0,37,38
 430.578 1273.18 430.578 1273.18 425.939 1276.84 c 0,39,40
 420.326 1281.28 420.326 1281.28 412.748 1283.99 c 0,41,42
 406.686 1286.16 406.686 1286.16 398.19 1286.16 c 2,43,-1
 377 1286.16 l 2,44,45
 369.575 1286.16 369.575 1286.16 364.278 1283.99 c 0,46,47
 357.656 1281.28 357.656 1281.28 352.752 1276.84 c 0,48,49
 348.698 1273.18 348.698 1273.18 346.295 1267.93 c 0,50,51
 344 1262.92 344 1262.92 344 1256.85 c 2,52,-1
 344 926.811 l 2,53,54
 344 915.225 344 915.225 352.804 907.24 c 0,55,56
 362.506 898.439 362.506 898.439 377 898.439 c 2,57,-1
 398.19 898.439 l 2,58,59
 414.776 898.439 414.776 898.439 425.879 907.24 c 0,60,61
 435.954 915.225 435.954 915.225 435.954 926.811 c 2,34,-1
1443 518.106 m 2,62,-1
 1443 166.619 l 2,63,64
 1443 119.979 1443 119.979 1425.6 77.6719 c 128,-1,65
 1408.21 35.4014 1408.21 35.4014 1377.06 3.94238 c 0,66,67
 1346.39 -27.0342 1346.39 -27.0342 1305.28 -45.5605 c 0,68,69
 1262.86 -66 1262.86 -66 1214 -66 c 2,70,-1
 1183.15 -66 l 2,71,72
 1128.05 -66 1128.05 -66 1079.22 -45.5605 c 0,73,74
 1031.89 -27.0332 1031.89 -27.0332 996.583 3.94238 c 0,75,76
 960.999 35.1641 960.999 35.1641 940.431 77.0537 c 0,77,78
 919.524 119.635 919.524 119.635 919.524 166.619 c 2,79,-1
 921.17 518.106 l 2,80,81
 921.17 565.091 921.17 565.091 941.953 607.672 c 0,82,83
 962.4 649.564 962.4 649.564 997.771 680.782 c 0,84,85
 1032.87 711.756 1032.87 711.756 1079.92 730.285 c 0,86,87
 1128.46 749.4 1128.46 749.4 1183.23 749.4 c 2,88,-1
 1214 749.4 l 2,89,90
 1262.87 749.4 1262.87 749.4 1305.28 730.285 c 0,91,92
 1346.39 711.758 1346.39 711.758 1377.06 680.782 c 0,93,94
 1408.21 649.324 1408.21 649.324 1425.6 607.052 c 128,-1,95
 1443 564.743 1443 564.743 1443 518.106 c 2,62,-1
1243 177.155 m 2,96,-1
 1243 506.244 l 2,97,98
 1243 512.32 1243 512.32 1240.71 517.329 c 0,99,100
 1238.3 522.573 1238.3 522.573 1234.25 526.24 c 0,101,102
 1229.34 530.676 1229.34 530.676 1222.72 533.39 c 0,103,104
 1217.42 535.561 1217.42 535.561 1210 535.561 c 2,105,-1
 1187.81 535.561 l 2,106,107
 1179.31 535.561 1179.31 535.561 1173.25 533.39 c 0,108,109
 1165.67 530.676 1165.67 530.676 1160.06 526.24 c 0,110,111
 1155.42 522.573 1155.42 522.573 1152.67 517.329 c 0,112,113
 1150.05 512.319 1150.05 512.319 1150.05 506.244 c 2,114,-1
 1149.76 177.155 l 2,115,116
 1149.76 171.08 1149.76 171.08 1152.41 166.07 c 0,117,118
 1155.17 160.825 1155.17 160.825 1159.84 157.159 c 0,119,120
 1165.48 152.724 1165.48 152.724 1173.11 150.011 c 0,121,122
 1179.21 147.84 1179.21 147.84 1187.75 147.84 c 2,123,-1
 1210 147.84 l 2,124,125
 1217.42 147.84 1217.42 147.84 1222.72 150.011 c 0,126,127
 1229.34 152.724 1229.34 152.724 1234.25 157.159 c 0,128,129
 1238.3 160.825 1238.3 160.825 1240.71 166.07 c 0,130,131
 1243 171.08 1243 171.08 1243 177.155 c 2,96,-1
420.64 -57.3604 m 1,132,-1
 188.247 -57.3604 l 1,133,-1
 1160.76 1491.36 l 1,134,-1
 1397.75 1491.36 l 1,135,-1
 420.64 -57.3604 l 1,132,-1
EndSplineSet
EndChar

StartChar: ampersand
Encoding: 38 38 9
Width: 1272
VWidth: 2154
Flags: HW
LayerCount: 2
Fore
SplineSet
1092 -134.04 m 2,0,1
 991.412 -134.04 991.412 -134.04 915.123 -86.7773 c 0,2,3
 868.712 -58.0234 868.712 -58.0234 833.773 -16.6621 c 1,4,5
 791.05 -59.1211 791.05 -59.1211 738.057 -88.1299 c 0,6,7
 654.188 -134.04 654.188 -134.04 557 -134.04 c 2,8,-1
 496 -134.04 l 2,9,10
 412.583 -134.04 412.583 -134.04 338.498 -99.9268 c 0,11,12
 264.918 -66.0469 264.918 -66.0469 209.938 -6.66797 c 0,13,14
 155.01 52.6553 155.01 52.6553 123.643 131.495 c 0,15,16
 92 211.028 92 211.028 92 301.2 c 2,17,-1
 92 385.439 l 2,18,19
 92 448.354 92 448.354 107.522 506.097 c 0,20,21
 122.997 563.662 122.997 563.662 151.752 613.353 c 0,22,23
 180.138 662.404 180.138 662.404 218.76 702.276 c 0,24,25
 228.343 712.17 228.343 712.17 238.522 721.32 c 1,26,27
 228.344 730.471 228.344 730.471 218.76 740.364 c 0,28,29
 180.137 780.236 180.137 780.236 151.752 829.287 c 0,30,31
 122.997 878.978 122.997 878.978 107.522 936.544 c 0,32,33
 92 994.286 92 994.286 92 1057.2 c 2,34,-1
 92 1132.8 l 2,35,36
 92 1222.97 92 1222.97 123.643 1302.5 c 0,37,38
 155.004 1381.34 155.004 1381.34 209.938 1440.67 c 0,39,40
 264.91 1500.04 264.91 1500.04 338.498 1533.92 c 0,41,42
 412.58 1568.04 412.58 1568.04 496 1568.04 c 2,43,-1
 557 1568.04 l 2,44,45
 640.492 1568.04 640.492 1568.04 714.134 1533.87 c 0,46,47
 787.143 1499.99 787.143 1499.99 842.062 1440.67 c 0,48,49
 896.998 1381.33 896.998 1381.33 928.357 1302.5 c 0,50,51
 960 1222.97 960 1222.97 960 1132.8 c 2,52,-1
 960 1075.16 l 1,53,-1
 729 1034.55 l 1,54,-1
 729 1132.8 l 2,55,56
 729 1173.2 729 1173.2 715.212 1207.55 c 0,57,58
 701.079 1242.73 701.079 1242.73 676.938 1268.82 c 0,59,60
 652.807 1294.88 652.807 1294.88 620.206 1310.15 c 0,61,62
 588.419 1325.04 588.419 1325.04 551 1325.04 c 2,63,-1
 502 1325.04 l 2,64,65
 464.581 1325.04 464.581 1325.04 432.794 1310.15 c 0,66,67
 400.004 1294.79 400.004 1294.79 375.273 1268.5 c 0,68,69
 350.841 1242.54 350.841 1242.54 336.788 1207.55 c 0,70,71
 323 1173.2 323 1173.2 323 1132.8 c 2,72,-1
 323 1035.6 l 2,73,74
 323 995.19 323 995.19 336.788 960.857 c 0,75,76
 350.926 925.655 350.926 925.655 375.562 899.047 c 0,77,78
 400.201 872.438 400.201 872.438 432.794 857.172 c 0,79,80
 464.586 842.28 464.586 842.28 502 842.28 c 2,81,-1
 729 842.28 l 1,82,-1
 729 975.519 l 1,83,-1
 960 1016.13 l 1,84,-1
 960 844.439 l 1,85,-1
 1159 844.439 l 1,86,-1
 1159 602.52 l 1,87,-1
 960 602.52 l 1,88,-1
 960 286.248 l 1,89,90
 961.901 245.032 961.901 245.032 971.745 210.478 c 0,91,92
 980.904 178.327 980.904 178.327 998.39 154.619 c 0,93,94
 1014.49 132.793 1014.49 132.793 1038.75 120.441 c 0,95,96
 1063.42 107.88 1063.42 107.88 1098 107.88 c 2,97,-1
 1187.08 107.88 l 1,98,-1
 1154.03 -134.04 l 1,99,-1
 1092 -134.04 l 2,0,1
618.466 122.04 m 0,100,101
 650.304 136.296 650.304 136.296 673.737 161.188 c 0,102,103
 697.802 186.752 697.802 186.752 712.933 221.152 c 0,104,105
 727.17 253.523 727.17 253.523 729 291.648 c 1,106,-1
 729 599.28 l 1,107,-1
 502 599.28 l 2,108,109
 464.586 599.28 464.586 599.28 432.794 584.389 c 0,110,111
 400.007 569.031 400.007 569.031 375.273 542.742 c 0,112,113
 350.842 516.776 350.842 516.776 336.788 481.783 c 0,114,115
 323 447.449 323 447.449 323 407.04 c 2,116,-1
 323 301.2 l 2,117,118
 323 260.791 323 260.791 336.788 226.458 c 0,119,120
 350.926 191.256 350.926 191.256 375.562 164.646 c 0,121,122
 400.198 138.041 400.198 138.041 432.794 122.771 c 0,123,124
 464.584 107.88 464.584 107.88 502 107.88 c 2,125,-1
 551 107.88 l 2,126,127
 586.845 107.88 586.845 107.88 618.466 122.04 c 0,100,101
EndSplineSet
EndChar

StartChar: quotesingle
Encoding: 39 39 10
Width: 399
VWidth: 2113
Flags: HW
LayerCount: 2
Fore
SplineSet
235.55 920.28 m 1,0,-1
 92 920.28 l 1,1,-1
 92 1506.72 l 1,2,-1
 361.142 1506.72 l 1,3,-1
 235.55 920.28 l 1,0,-1
EndSplineSet
EndChar

StartChar: parenleft
Encoding: 40 40 11
Width: 684
VWidth: 2163
Flags: HW
LayerCount: 2
Fore
SplineSet
72 598 m 0,0,1
 72 784.407 72 784.407 105.214 945.828 c 0,2,3
 138.388 1107.05 138.388 1107.05 197.629 1246.79 c 0,4,5
 256.834 1386.44 256.834 1386.44 338.447 1506.02 c 0,6,7
 419.401 1624.64 419.401 1624.64 515.332 1726.01 c 2,8,-1
 551.39 1764.12 l 1,9,-1
 694.483 1609.57 l 1,10,-1
 659.704 1570.64 l 2,11,12
 580.764 1482.26 580.764 1482.26 513.776 1375.03 c 0,13,14
 447.047 1268.21 447.047 1268.21 398.988 1145.2 c 0,15,16
 350.877 1022.06 350.877 1022.06 323.89 884.65 c 0,17,18
 297 747.735 297 747.735 297 598 c 0,19,20
 297 448.269 297 448.269 323.89 311.35 c 0,21,22
 350.877 173.934 350.877 173.934 398.988 50.792 c 0,23,24
 447.058 -72.2441 447.058 -72.2441 513.776 -179.032 c 0,25,26
 580.782 -286.281 580.782 -286.281 659.704 -374.639 c 2,27,-1
 694.483 -413.573 l 1,28,-1
 551.39 -568.114 l 1,29,-1
 515.332 -530.008 l 2,30,31
 419.379 -428.606 419.379 -428.606 338.447 -310.021 c 0,32,33
 256.798 -190.385 256.798 -190.385 197.597 -50.1729 c 0,34,35
 138.377 90.085 138.377 90.085 105.214 251.252 c 0,36,37
 72 412.672 72 412.672 72 598 c 0,0,1
EndSplineSet
EndChar

StartChar: parenright
Encoding: 41 41 12
Width: 684
VWidth: 2163
Flags: HW
LayerCount: 2
Fore
SplineSet
612 598 m 0,0,1
 612 412.684 612 412.684 578.786 251.252 c 0,2,3
 545.63 90.1055 545.63 90.1055 486.403 -50.1729 c 0,4,5
 427.208 -190.377 427.208 -190.377 345.553 -310.021 c 0,6,7
 264.61 -428.621 264.61 -428.621 168.668 -530.008 c 2,8,-1
 132.61 -568.114 l 1,9,-1
 -10.6982 -413.342 l 1,10,-1
 24.5107 -374.398 l 2,11,12
 104.239 -286.217 104.239 -286.217 170.629 -179.184 c 0,13,14
 236.906 -72.335 236.906 -72.335 285.012 50.792 c 0,15,16
 333.123 173.934 333.123 173.934 360.11 311.35 c 0,17,18
 387 448.269 387 448.269 387 598 c 0,19,20
 387 747.735 387 747.735 360.11 884.65 c 0,21,22
 333.123 1022.06 333.123 1022.06 285.012 1145.2 c 0,23,24
 236.912 1268.32 236.912 1268.32 170.629 1375.19 c 0,25,26
 104.232 1482.23 104.232 1482.23 24.5107 1570.4 c 2,27,-1
 -10.6982 1609.34 l 1,28,-1
 132.61 1764.12 l 1,29,-1
 168.668 1726.01 l 2,30,31
 264.589 1624.65 264.589 1624.65 345.553 1506.02 c 0,32,33
 427.16 1386.45 427.16 1386.45 486.371 1246.79 c 0,34,35
 545.614 1107.05 545.614 1107.05 578.786 945.828 c 0,36,37
 612 784.396 612 784.396 612 598 c 0,0,1
EndSplineSet
EndChar

StartChar: asterisk
Encoding: 42 42 13
Width: 993
VWidth: 2127
Flags: HW
LayerCount: 2
Fore
SplineSet
497.744 859.361 m 1,0,-1
 341.175 577.208 l 1,1,-1
 131.523 740.842 l 1,2,-1
 332.802 986.747 l 1,3,-1
 36.0576 1059.49 l 1,4,-1
 115.872 1321.92 l 1,5,-1
 396.271 1193.12 l 1,6,-1
 368.016 1519.93 l 1,7,-1
 624.816 1519.93 l 1,8,-1
 597.473 1193.12 l 1,9,-1
 877.108 1321.99 l 1,10,-1
 956.942 1059.49 l 1,11,-1
 660.198 986.747 l 1,12,-1
 861.327 741.024 l 1,13,-1
 652.707 576.817 l 1,14,-1
 497.744 859.361 l 1,0,-1
EndSplineSet
EndChar

StartChar: plus
Encoding: 43 43 14
Width: 1188
VWidth: 2154
Flags: HW
LayerCount: 2
Fore
SplineSet
31 842.28 m 1,0,-1
 477 842.28 l 1,1,-1
 477 1325.04 l 1,2,-1
 708 1325.04 l 1,3,-1
 708 842.28 l 1,4,-1
 1157 842.28 l 1,5,-1
 1157 592.8 l 1,6,-1
 708 592.8 l 1,7,-1
 708 108.96 l 1,8,-1
 477 108.96 l 1,9,-1
 477 592.8 l 1,10,-1
 31 592.8 l 1,11,-1
 31 842.28 l 1,0,-1
EndSplineSet
EndChar

StartChar: comma
Encoding: 44 44 15
Width: 440
VWidth: 2216
Flags: HW
LayerCount: 2
Fore
SplineSet
235.55 -359.72 m 1,0,-1
 92 -359.72 l 1,1,-1
 92 226.72 l 1,2,-1
 361.142 226.72 l 1,3,-1
 235.55 -359.72 l 1,0,-1
EndSplineSet
EndChar

StartChar: hyphen
Encoding: 45 45 16
Width: 588
VWidth: 2156
Flags: HW
LayerCount: 2
Fore
SplineSet
51 567.28 m 1,0,-1
 51 802.72 l 1,1,-1
 536 802.72 l 1,2,-1
 536 567.28 l 1,3,-1
 51 567.28 l 1,0,-1
EndSplineSet
EndChar

StartChar: period
Encoding: 46 46 17
Width: 440
VWidth: 2205
Flags: HW
LayerCount: 2
Fore
SplineSet
92 -61.2393 m 1,0,-1
 92 215.239 l 1,1,-1
 348 215.239 l 1,2,-1
 348 -61.2393 l 1,3,-1
 92 -61.2393 l 1,0,-1
EndSplineSet
EndChar

StartChar: slash
Encoding: 47 47 18
Width: 782
VWidth: 2154
Flags: HW
LayerCount: 2
Fore
SplineSet
-30.2129 -245.239 m 1,0,-1
 575.476 1678.24 l 1,1,-1
 812.213 1678.24 l 1,2,-1
 206.524 -245.239 l 1,3,-1
 -30.2129 -245.239 l 1,0,-1
EndSplineSet
EndChar

StartChar: zero
Encoding: 48 48 19
Width: 1257
VWidth: 2154
Flags: HW
LayerCount: 2
Fore
SplineSet
1113 1104.76 m 2,0,-1
 1113 329.237 l 2,1,2
 1113 245.146 1113 245.146 1081.36 170.975 c 0,3,4
 1049.99 97.4541 1049.99 97.4541 995.062 42.1279 c 128,-1,5
 940.138 -13.1914 940.138 -13.1914 867.105 -44.7861 c 0,6,7
 773.514 -78.96 773.514 -78.96 667.399 -78.96 c 2,8,-1
 589.872 -78.96 l 2,9,10
 483.855 -78.96 483.855 -78.96 389.698 -44.8477 c 0,11,12
 315.918 -13.251 315.918 -13.251 260.938 42.125 c 128,-1,13
 206.01 97.4473 206.01 97.4473 174.643 170.972 c 0,14,15
 143 245.143 143 245.143 143 329.234 c 2,16,-1
 143 1104.76 l 2,17,18
 143 1188.85 143 1188.85 174.643 1263.03 c 0,19,20
 206.004 1336.54 206.004 1336.54 260.938 1391.87 c 128,-1,21
 315.91 1447.24 315.91 1447.24 389.698 1478.84 c 0,22,23
 483.851 1512.96 483.851 1512.96 589.872 1512.96 c 2,24,-1
 667.399 1512.96 l 2,25,26
 773.512 1512.96 773.512 1512.96 867.105 1478.79 c 0,27,28
 940.143 1447.19 940.143 1447.19 995.062 1391.87 c 128,-1,29
 1050 1336.54 1050 1336.54 1081.36 1263.03 c 0,30,31
 1113 1188.85 1113 1188.85 1113 1104.76 c 2,0,-1
882 338.784 m 2,32,-1
 882 1095.12 l 2,33,34
 882 1131.87 882 1131.87 868.212 1163.09 c 0,35,36
 850.513 1195.1 850.513 1195.1 819.831 1218.82 c 128,-1,37
 789.162 1242.53 789.162 1242.53 747.729 1256.42 c 0,38,39
 707.33 1269.96 707.33 1269.96 659.773 1269.96 c 2,40,-1
 597.498 1269.96 l 2,41,42
 549.941 1269.96 549.941 1269.96 509.542 1256.42 c 0,43,44
 467.868 1242.44 467.868 1242.44 436.436 1218.54 c 0,45,46
 405.385 1194.92 405.385 1194.92 387.788 1163.09 c 0,47,48
 374 1131.87 374 1131.87 374 1095.12 c 2,49,-1
 374 338.784 l 2,50,51
 374 302.031 374 302.031 387.788 270.805 c 0,52,53
 405.493 238.79 405.493 238.79 436.804 214.591 c 128,-1,54
 468.115 190.391 468.115 190.391 509.542 176.504 c 0,55,56
 549.945 162.96 549.945 162.96 597.498 162.96 c 2,57,-1
 659.773 162.96 l 2,58,59
 707.326 162.96 707.326 162.96 747.729 176.504 c 0,60,61
 788.909 190.308 788.909 190.308 819.466 214.306 c 0,62,63
 850.403 238.601 850.403 238.601 868.212 270.805 c 0,64,65
 882 302.032 882 302.032 882 338.784 c 2,32,-1
EndSplineSet
EndChar

StartChar: one
Encoding: 49 49 20
Width: 1263
VWidth: 2154
Flags: HW
LayerCount: 2
Fore
SplineSet
1181 -57.3604 m 1,0,-1
 164 -57.3604 l 1,1,-1
 164 185.64 l 1,2,-1
 529.18 185.64 l 1,3,-1
 529.18 1241.56 l 1,4,-1
 164 1098.14 l 1,5,-1
 164 1330.87 l 1,6,-1
 579.685 1491.36 l 1,7,-1
 815.82 1491.36 l 1,8,-1
 815.82 185.64 l 1,9,-1
 1181 185.64 l 1,10,-1
 1181 -57.3604 l 1,0,-1
EndSplineSet
EndChar

StartChar: two
Encoding: 50 50 21
Width: 1216
VWidth: 2153
Flags: HW
LayerCount: 2
Fore
SplineSet
630.429 1269.16 m 2,0,-1
 569.457 1269.16 l 2,1,2
 522.896 1269.16 522.896 1269.16 483.343 1254.27 c 0,3,4
 442.777 1239 442.777 1239 412.75 1212.94 c 128,-1,5
 382.713 1186.86 382.713 1186.86 365.125 1151.67 c 0,6,7
 347.968 1117.32 347.968 1117.32 347.968 1076.92 c 2,8,-1
 347.968 949.508 l 1,9,-1
 113 990.122 l 1,10,-1
 113 1076.92 l 2,11,12
 113 1167.09 113 1167.09 144.643 1246.62 c 0,13,14
 176.004 1325.46 176.004 1325.46 230.938 1384.79 c 128,-1,15
 285.859 1444.11 285.859 1444.11 366.466 1477.99 c 0,16,17
 458.1 1512.16 458.1 1512.16 561.991 1512.16 c 2,18,-1
 637.895 1512.16 l 2,19,20
 741.048 1512.16 741.048 1512.16 832.716 1480.08 c 0,21,22
 909.97 1450.23 909.97 1450.23 965.433 1393.88 c 0,23,24
 1020.54 1337.88 1020.54 1337.88 1051.83 1260.31 c 0,25,26
 1083 1183.03 1083 1183.03 1083 1087.62 c 0,27,28
 1083 995.64 1083 995.64 1055.4 902.983 c 0,29,30
 1028.62 813.094 1028.62 813.094 985.116 726.5 c 0,31,32
 942.048 640.765 942.048 640.765 886.558 560.238 c 0,33,34
 828.142 480.907 828.142 480.907 756.826 410.622 c 0,35,36
 638.883 294.678 638.883 294.678 498.566 184.84 c 1,37,-1
 1093 184.84 l 1,38,-1
 1093 -58.1602 l 1,39,-1
 82 -58.1602 l 1,40,-1
 82 118.419 l 1,41,-1
 100.579 133.676 l 2,42,43
 284.564 284.775 284.564 284.775 453.6 446.334 c 0,44,45
 530.205 515.524 530.205 515.524 603.303 593.633 c 0,46,47
 675.361 670.631 675.361 670.631 731.755 751.885 c 0,48,49
 787.254 831.851 787.254 831.851 820.82 914.438 c 0,50,51
 852 994.018 852 994.018 852 1070.71 c 0,52,53
 852 1123.65 852 1123.65 834.146 1161.34 c 0,54,55
 815.536 1198.24 815.536 1198.24 785.366 1221.66 c 128,-1,56
 755.07 1245.18 755.07 1245.18 715.86 1256.91 c 0,57,58
 674.956 1269.16 674.956 1269.16 630.429 1269.16 c 2,0,-1
EndSplineSet
EndChar

StartChar: three
Encoding: 51 51 22
Width: 1257
VWidth: 2154
Flags: HW
LayerCount: 2
Fore
SplineSet
1113 427.94 m 2,0,-1
 1113 329.237 l 2,1,2
 1113 245.146 1113 245.146 1081.36 170.975 c 0,3,4
 1049.99 97.4541 1049.99 97.4541 995.062 42.1279 c 128,-1,5
 940.138 -13.1914 940.138 -13.1914 867.105 -44.7861 c 0,6,7
 773.514 -78.96 773.514 -78.96 667.399 -78.96 c 2,8,-1
 589.872 -78.96 l 2,9,10
 483.855 -78.96 483.855 -78.96 389.698 -44.8477 c 0,11,12
 315.918 -10.9668 315.918 -10.9668 260.938 48.4121 c 128,-1,13
 206.01 107.734 206.01 107.734 174.643 186.576 c 0,14,15
 143 266.108 143 266.108 143 356.28 c 2,16,-1
 143 443.438 l 1,17,-1
 374 482.118 l 1,18,-1
 374 356.28 l 2,19,20
 374 315.871 374 315.871 387.788 281.537 c 0,21,22
 405.493 246.335 405.493 246.335 436.804 219.728 c 128,-1,23
 468.115 193.121 468.115 193.121 509.542 177.851 c 0,24,25
 549.945 162.96 549.945 162.96 597.498 162.96 c 2,26,-1
 659.773 162.96 l 2,27,28
 707.326 162.96 707.326 162.96 747.729 176.258 c 0,29,30
 788.909 189.808 788.909 189.808 819.466 213.365 c 0,31,32
 850.403 237.218 850.403 237.218 868.212 268.832 c 0,33,34
 882 299.489 882 299.489 882 335.567 c 2,35,-1
 882 450.317 l 2,36,37
 882 486.396 882 486.396 868.212 517.051 c 0,38,39
 850.51 548.481 850.51 548.481 819.831 571.757 c 128,-1,40
 789.154 595.032 789.154 595.032 747.729 608.663 c 0,41,42
 707.324 621.96 707.324 621.96 659.773 621.96 c 2,43,-1
 472.946 621.96 l 1,44,-1
 472.946 864.96 l 1,45,-1
 659.773 864.96 l 2,46,47
 707.324 864.96 707.324 864.96 747.729 878.069 c 0,48,49
 789.154 891.508 789.154 891.508 819.831 914.457 c 128,-1,50
 850.51 937.404 850.51 937.404 868.212 968.392 c 0,51,52
 882 998.616 882 998.616 882 1034.18 c 2,53,-1
 882 1100.73 l 2,54,55
 882 1136.3 882 1136.3 868.212 1166.53 c 0,56,57
 850.513 1197.51 850.513 1197.51 819.831 1220.46 c 128,-1,58
 789.162 1243.4 789.162 1243.4 747.729 1256.85 c 0,59,60
 707.33 1269.96 707.33 1269.96 659.773 1269.96 c 2,61,-1
 597.498 1269.96 l 2,62,63
 549.941 1269.96 549.941 1269.96 509.542 1255.07 c 0,64,65
 467.868 1239.71 467.868 1239.71 436.436 1213.42 c 0,66,67
 405.385 1187.46 405.385 1187.46 387.788 1152.47 c 0,68,69
 374 1118.12 374 1118.12 374 1077.72 c 2,70,-1
 374 950.309 l 1,71,-1
 143 990.922 l 1,72,-1
 143 1077.72 l 2,73,74
 143 1167.89 143 1167.89 174.643 1247.42 c 0,75,76
 206.004 1326.26 206.004 1326.26 260.938 1385.58 c 128,-1,77
 315.91 1444.96 315.91 1444.96 389.698 1478.84 c 0,78,79
 483.851 1512.96 483.851 1512.96 589.872 1512.96 c 2,80,-1
 667.399 1512.96 l 2,81,82
 773.512 1512.96 773.512 1512.96 867.105 1478.79 c 0,83,84
 940.143 1447.19 940.143 1447.19 995.062 1391.87 c 128,-1,85
 1050 1336.54 1050 1336.54 1081.36 1263.03 c 0,86,87
 1113 1188.85 1113 1188.85 1113 1104.76 c 2,88,-1
 1113 1055.41 l 2,89,90
 1113 996.739 1113 996.739 1097.48 942.891 c 0,91,92
 1082.07 889.429 1082.07 889.429 1053.99 843.262 c 0,93,94
 1026.03 797.278 1026.03 797.278 987.24 759.939 c 0,95,96
 977.727 750.78 977.727 750.78 966.916 741.644 c 1,97,98
 977.654 732.639 977.654 732.639 987.24 723.413 c 0,99,100
 1026.03 686.072 1026.03 686.072 1053.99 640.09 c 0,101,102
 1082.07 593.922 1082.07 593.922 1097.48 540.461 c 0,103,104
 1113 486.613 1113 486.613 1113 427.94 c 2,0,-1
EndSplineSet
EndChar

StartChar: four
Encoding: 52 52 23
Width: 1236
VWidth: 2154
Flags: HW
LayerCount: 2
Fore
SplineSet
1093 155.4 m 1,0,-1
 970 155.4 l 1,1,-1
 970 -57.3604 l 1,2,-1
 739 -57.3604 l 1,3,-1
 739 155.4 l 1,4,-1
 61 155.4 l 1,5,-1
 61 285.508 l 1,6,-1
 815.229 1491.36 l 1,7,-1
 970 1491.36 l 1,8,-1
 970 398.4 l 1,9,-1
 1093 398.4 l 1,10,-1
 1093 155.4 l 1,0,-1
739 398.4 m 1,11,-1
 713.821 897.821 l 1,12,-1
 402.274 398.4 l 1,13,-1
 739 398.4 l 1,11,-1
EndSplineSet
EndChar

StartChar: five
Encoding: 53 53 24
Width: 1257
VWidth: 2155
Flags: HW
LayerCount: 2
Fore
SplineSet
1118.33 623.366 m 2,0,-1
 1118.33 337.662 l 2,1,2
 1118.33 251.856 1118.33 251.856 1086.68 176.173 c 0,3,4
 1055.32 101.153 1055.32 101.153 1000.39 44.7002 c 128,-1,5
 945.465 -11.7471 945.465 -11.7471 872.433 -43.9854 c 0,6,7
 779.12 -78.1602 779.12 -78.1602 673.32 -78.1602 c 2,8,-1
 596.024 -78.1602 l 2,9,10
 490.322 -78.1602 490.322 -78.1602 396.446 -44.0469 c 0,11,12
 321.245 -10.166 321.245 -10.166 266.265 49.2129 c 128,-1,13
 211.337 108.534 211.337 108.534 179.97 187.376 c 0,14,15
 148.327 266.909 148.327 266.909 148.327 357.08 c 2,16,-1
 148.327 435.92 l 1,17,-1
 379.327 435.92 l 1,18,-1
 379.327 357.08 l 2,19,20
 379.327 316.671 379.327 316.671 394.279 282.337 c 0,21,22
 412.193 247.135 412.193 247.135 443.412 220.527 c 128,-1,23
 474.629 193.921 474.629 193.921 515.933 178.65 c 0,24,25
 556.215 163.761 556.215 163.761 603.627 163.761 c 2,26,-1
 665.717 163.761 l 2,27,28
 713.129 163.761 713.129 163.761 753.412 177.457 c 0,29,30
 794.469 191.418 794.469 191.418 824.935 215.688 c 0,31,32
 855.78 240.259 855.78 240.259 873.539 272.828 c 0,33,34
 887.327 304.411 887.327 304.411 887.327 341.578 c 2,35,-1
 887.327 617.742 l 2,36,37
 887.327 654.91 887.327 654.91 873.539 686.491 c 0,38,39
 855.781 719.06 855.781 719.06 824.935 743.633 c 0,40,41
 794.469 767.904 794.469 767.904 753.412 781.862 c 0,42,43
 713.127 795.561 713.127 795.561 665.717 795.561 c 2,44,-1
 603.627 795.561 l 2,45,46
 556.218 795.561 556.218 795.561 515.933 780.669 c 0,47,48
 474.631 765.402 474.631 765.402 443.412 738.793 c 128,-1,49
 412.193 712.186 412.193 712.186 394.279 676.982 c 0,50,51
 379.327 642.649 379.327 642.649 379.327 602.239 c 2,52,-1
 379.327 547.16 l 1,53,-1
 143 547.16 l 1,54,-1
 235.15 1492.16 l 1,55,-1
 1047.33 1492.16 l 1,56,-1
 1047.33 1249.16 l 1,57,-1
 464.055 1249.16 l 1,58,-1
 425.503 995.933 l 1,59,60
 441.479 1002.51 441.479 1002.51 457.895 1008.13 c 0,61,62
 546.788 1038.56 546.788 1038.56 647.977 1038.56 c 2,63,-1
 673.32 1038.56 l 2,64,65
 779.118 1038.56 779.118 1038.56 872.433 1006.04 c 0,66,67
 945.462 973.805 945.462 973.805 1000.39 917.354 c 128,-1,68
 1055.37 860.854 1055.37 860.854 1086.74 785.232 c 0,69,70
 1118.33 709.1 1118.33 709.1 1118.33 623.366 c 2,0,-1
EndSplineSet
EndChar

StartChar: six
Encoding: 54 54 25
Width: 1257
VWidth: 2154
Flags: HW
LayerCount: 2
Fore
SplineSet
1134 518.858 m 2,0,-1
 1134 334.848 l 2,1,2
 1134 249.496 1134 249.496 1102.36 174.211 c 0,3,4
 1070.99 99.5879 1070.99 99.5879 1016.06 43.4326 c 128,-1,5
 961.138 -12.7168 961.138 -12.7168 888.105 -44.7861 c 0,6,7
 794.514 -78.96 794.514 -78.96 688.399 -78.96 c 2,8,-1
 609.601 -78.96 l 2,9,10
 503.486 -78.96 503.486 -78.96 409.895 -44.7861 c 0,11,12
 336.864 -13.1924 336.864 -13.1924 281.938 42.1279 c 128,-1,13
 227.011 97.4492 227.011 97.4492 195.643 170.975 c 0,14,15
 164 245.144 164 245.144 164 329.237 c 2,16,-1
 164 1104.76 l 2,17,18
 164 1188.85 164 1188.85 195.643 1263.03 c 0,19,20
 227.005 1336.54 227.005 1336.54 281.938 1391.87 c 128,-1,21
 336.859 1447.19 336.859 1447.19 409.895 1478.79 c 0,22,23
 503.488 1512.96 503.488 1512.96 609.601 1512.96 c 2,24,-1
 688.399 1512.96 l 2,25,26
 794.512 1512.96 794.512 1512.96 888.105 1478.79 c 0,27,28
 961.143 1444.91 961.143 1444.91 1016.06 1385.58 c 128,-1,29
 1071 1326.25 1071 1326.25 1102.36 1247.42 c 0,30,31
 1134 1167.89 1134 1167.89 1134 1077.72 c 2,32,-1
 1134 990.922 l 1,33,-1
 903 950.309 l 1,34,-1
 903 1077.72 l 2,35,36
 903 1118.12 903 1118.12 889.212 1152.47 c 0,37,38
 871.616 1187.46 871.616 1187.46 840.564 1213.42 c 0,39,40
 809.13 1239.71 809.13 1239.71 767.458 1255.07 c 0,41,42
 727.059 1269.96 727.059 1269.96 679.502 1269.96 c 2,43,-1
 617.227 1269.96 l 2,44,45
 569.67 1269.96 569.67 1269.96 529.271 1257.15 c 0,46,47
 487.838 1244.01 487.838 1244.01 457.169 1221.59 c 128,-1,48
 426.489 1199.15 426.489 1199.15 408.788 1168.88 c 0,49,50
 395 1139.35 395 1139.35 395 1104.58 c 2,51,-1
 395 864.135 l 1,52,53
 418.562 878.662 418.562 878.662 447.734 890.423 c 0,54,55
 547.981 930.84 547.981 930.84 661.709 930.84 c 2,56,-1
 688.399 930.84 l 2,57,58
 794.512 930.84 794.512 930.84 888.105 898.493 c 0,59,60
 961.135 866.426 961.135 866.426 1016.06 810.273 c 128,-1,61
 1070.99 754.121 1070.99 754.121 1102.36 679.493 c 0,62,63
 1134 604.212 1134 604.212 1134 518.858 c 2,0,-1
903 337.92 m 2,64,-1
 903 513.857 l 2,65,66
 903 550.427 903 550.427 889.212 581.503 c 0,67,68
 871.615 613.172 871.615 613.172 840.564 636.672 c 0,69,70
 809.125 660.465 809.125 660.465 767.458 674.362 c 0,71,72
 727.053 687.84 727.053 687.84 679.502 687.84 c 2,73,-1
 617.227 687.84 l 2,74,75
 569.676 687.84 569.676 687.84 529.271 674.362 c 0,76,77
 487.846 660.546 487.846 660.546 457.169 636.953 c 128,-1,78
 426.493 613.361 426.493 613.361 408.788 581.503 c 0,79,80
 395 550.43 395 550.43 395 513.857 c 2,81,-1
 395 337.92 l 2,82,83
 395 301.35 395 301.35 408.788 270.275 c 0,84,85
 426.6 238.228 426.6 238.228 457.534 214.054 c 0,86,87
 488.091 190.174 488.091 190.174 529.271 176.438 c 0,88,89
 569.674 162.96 569.674 162.96 617.227 162.96 c 2,90,-1
 679.502 162.96 l 2,91,92
 727.055 162.96 727.055 162.96 767.458 176.438 c 0,93,94
 808.887 190.256 808.887 190.256 840.196 214.336 c 128,-1,95
 871.51 238.419 871.51 238.419 889.212 270.275 c 0,96,97
 903 301.352 903 301.352 903 337.92 c 2,64,-1
EndSplineSet
EndChar

StartChar: seven
Encoding: 55 55 26
Width: 1257
VWidth: 2154
Flags: HW
LayerCount: 2
Fore
SplineSet
1154 1367.32 m 1,0,-1
 474.245 -57.3604 l 1,1,-1
 228.997 -57.3604 l 1,2,-1
 857.644 1248.36 l 1,3,-1
 395 1248.36 l 1,4,-1
 395 1042.08 l 1,5,-1
 164 1042.08 l 1,6,-1
 164 1491.36 l 1,7,-1
 1154 1491.36 l 1,8,-1
 1154 1367.32 l 1,0,-1
EndSplineSet
EndChar

StartChar: eight
Encoding: 56 56 27
Width: 1257
VWidth: 2154
Flags: HW
LayerCount: 2
Fore
SplineSet
1113 449.091 m 2,0,-1
 1113 329.237 l 2,1,2
 1113 245.146 1113 245.146 1081.36 170.975 c 0,3,4
 1049.99 97.4541 1049.99 97.4541 995.062 42.1279 c 128,-1,5
 940.138 -13.1914 940.138 -13.1914 867.105 -44.7861 c 0,6,7
 773.514 -78.96 773.514 -78.96 667.399 -78.96 c 2,8,-1
 589.872 -78.96 l 2,9,10
 483.855 -78.96 483.855 -78.96 389.698 -44.8477 c 0,11,12
 315.918 -13.251 315.918 -13.251 260.938 42.125 c 128,-1,13
 206.01 97.4473 206.01 97.4473 174.643 170.972 c 0,14,15
 143 245.143 143 245.143 143 329.234 c 2,16,-1
 143 449.09 l 2,17,18
 143 554.211 143 554.211 192.058 641.981 c 0,19,20
 223.39 698.04 223.39 698.04 267.842 741.201 c 1,21,22
 223.129 784.905 223.129 784.905 191.987 840.992 c 0,23,24
 143 929.223 143 929.223 143 1034.26 c 2,25,-1
 143 1104.76 l 2,26,27
 143 1188.85 143 1188.85 174.643 1263.03 c 0,28,29
 206.004 1336.54 206.004 1336.54 260.938 1391.87 c 128,-1,30
 315.91 1447.24 315.91 1447.24 389.698 1478.84 c 0,31,32
 483.851 1512.96 483.851 1512.96 589.872 1512.96 c 2,33,-1
 667.399 1512.96 l 2,34,35
 773.512 1512.96 773.512 1512.96 867.105 1478.79 c 0,36,37
 940.143 1447.19 940.143 1447.19 995.062 1391.87 c 128,-1,38
 1050 1336.54 1050 1336.54 1081.36 1263.03 c 0,39,40
 1113 1188.85 1113 1188.85 1113 1104.76 c 2,41,-1
 1113 1034.26 l 2,42,43
 1113 929.356 1113 929.356 1064.64 841.218 c 0,44,45
 1033.53 784.518 1033.53 784.518 989.097 741.202 c 1,46,47
 1033.55 697.91 1033.55 697.91 1064.57 641.757 c 0,48,49
 1113 554.07 1113 554.07 1113 449.091 c 2,0,-1
882 1034.18 m 2,50,-1
 882 1100.73 l 2,51,52
 882 1136.3 882 1136.3 868.212 1166.53 c 0,53,54
 850.513 1197.51 850.513 1197.51 819.831 1220.46 c 128,-1,55
 789.162 1243.4 789.162 1243.4 747.729 1256.85 c 0,56,57
 707.33 1269.96 707.33 1269.96 659.773 1269.96 c 2,58,-1
 597.498 1269.96 l 2,59,60
 549.941 1269.96 549.941 1269.96 509.542 1256.85 c 0,61,62
 467.868 1243.33 467.868 1243.33 436.436 1220.19 c 0,63,64
 405.385 1197.33 405.385 1197.33 387.788 1166.53 c 0,65,66
 374 1136.31 374 1136.31 374 1100.73 c 2,67,-1
 374 1034.18 l 2,68,69
 374 998.613 374 998.613 387.788 968.392 c 0,70,71
 405.386 937.587 405.386 937.587 436.436 914.729 c 0,72,73
 467.873 891.588 467.873 891.588 509.542 878.069 c 0,74,75
 549.947 864.96 549.947 864.96 597.498 864.96 c 2,76,-1
 659.773 864.96 l 2,77,78
 707.324 864.96 707.324 864.96 747.729 878.069 c 0,79,80
 789.154 891.508 789.154 891.508 819.831 914.457 c 128,-1,81
 850.51 937.404 850.51 937.404 868.212 968.392 c 0,82,83
 882 998.616 882 998.616 882 1034.18 c 2,50,-1
882 335.567 m 2,84,-1
 882 450.317 l 2,85,86
 882 486.396 882 486.396 868.212 517.051 c 0,87,88
 850.51 548.481 850.51 548.481 819.831 571.757 c 128,-1,89
 789.154 595.032 789.154 595.032 747.729 608.663 c 0,90,91
 707.324 621.96 707.324 621.96 659.773 621.96 c 2,92,-1
 597.498 621.96 l 2,93,94
 549.947 621.96 549.947 621.96 509.542 608.663 c 0,95,96
 467.873 594.952 467.873 594.952 436.436 571.479 c 0,97,98
 405.386 548.297 405.386 548.297 387.788 517.051 c 0,99,100
 374 486.396 374 486.396 374 450.317 c 2,101,-1
 374 335.567 l 2,102,103
 374 299.487 374 299.487 387.788 268.832 c 0,104,105
 405.493 237.402 405.493 237.402 436.804 213.646 c 128,-1,106
 468.115 189.89 468.115 189.89 509.542 176.258 c 0,107,108
 549.945 162.96 549.945 162.96 597.498 162.96 c 2,109,-1
 659.773 162.96 l 2,110,111
 707.326 162.96 707.326 162.96 747.729 176.258 c 0,112,113
 788.909 189.808 788.909 189.808 819.466 213.365 c 0,114,115
 850.403 237.218 850.403 237.218 868.212 268.832 c 0,116,117
 882 299.489 882 299.489 882 335.567 c 2,84,-1
EndSplineSet
EndChar

StartChar: nine
Encoding: 57 57 28
Width: 1257
VWidth: 2154
Flags: HW
LayerCount: 2
Fore
SplineSet
1134 1104.76 m 2,0,-1
 1134 329.237 l 2,1,2
 1134 245.146 1134 245.146 1102.36 170.975 c 0,3,4
 1070.99 97.4541 1070.99 97.4541 1016.06 42.1279 c 128,-1,5
 961.138 -13.1914 961.138 -13.1914 888.105 -44.7861 c 0,6,7
 794.514 -78.96 794.514 -78.96 688.399 -78.96 c 2,8,-1
 609.601 -78.96 l 2,9,10
 503.486 -78.96 503.486 -78.96 409.895 -44.7861 c 0,11,12
 336.864 -10.9082 336.864 -10.9082 281.938 48.4121 c 128,-1,13
 227.011 107.733 227.011 107.733 195.643 186.576 c 0,14,15
 164 266.106 164 266.106 164 356.28 c 2,16,-1
 164 443.438 l 1,17,-1
 395 482.118 l 1,18,-1
 395 356.28 l 2,19,20
 395 315.871 395 315.871 408.788 281.537 c 0,21,22
 426.6 246.127 426.6 246.127 457.534 219.413 c 0,23,24
 488.091 193.029 488.091 193.029 529.271 177.851 c 0,25,26
 569.674 162.96 569.674 162.96 617.227 162.96 c 2,27,-1
 679.502 162.96 l 2,28,29
 727.055 162.96 727.055 162.96 767.458 175.771 c 0,30,31
 808.887 188.905 808.887 188.905 840.196 211.795 c 128,-1,32
 871.51 234.688 871.51 234.688 889.212 264.969 c 0,33,34
 903 294.507 903 294.507 903 329.268 c 2,35,-1
 903 569.234 l 1,36,37
 879.362 554.572 879.362 554.572 849.797 542.563 c 0,38,39
 750.118 502.08 750.118 502.08 636.291 502.08 c 2,40,-1
 609.601 502.08 l 2,41,42
 503.488 502.08 503.488 502.08 409.895 534.43 c 0,43,44
 336.868 566.497 336.868 566.497 281.938 622.653 c 128,-1,45
 226.96 678.859 226.96 678.859 195.586 754.086 c 0,46,47
 164 829.824 164 829.824 164 915.109 c 2,48,-1
 164 1099.12 l 2,49,50
 164 1184.49 164 1184.49 195.643 1259.78 c 0,51,52
 227.005 1334.4 227.005 1334.4 281.938 1390.56 c 128,-1,53
 336.859 1446.71 336.859 1446.71 409.895 1478.79 c 0,54,55
 503.488 1512.96 503.488 1512.96 609.601 1512.96 c 2,56,-1
 688.399 1512.96 l 2,57,58
 794.512 1512.96 794.512 1512.96 888.105 1478.79 c 0,59,60
 961.143 1447.19 961.143 1447.19 1016.06 1391.87 c 128,-1,61
 1071 1336.54 1071 1336.54 1102.36 1263.03 c 0,62,63
 1134 1188.85 1134 1188.85 1134 1104.76 c 2,0,-1
903 920.04 m 2,64,-1
 903 1095.98 l 2,65,66
 903 1132.54 903 1132.54 889.212 1163.62 c 0,67,68
 871.616 1195.29 871.616 1195.29 840.564 1218.79 c 0,69,70
 809.13 1242.58 809.13 1242.58 767.458 1256.48 c 0,71,72
 727.059 1269.96 727.059 1269.96 679.502 1269.96 c 2,73,-1
 617.227 1269.96 l 2,74,75
 569.67 1269.96 569.67 1269.96 529.271 1256.48 c 0,76,77
 487.838 1242.66 487.838 1242.66 457.169 1219.07 c 128,-1,78
 426.489 1195.47 426.489 1195.47 408.788 1163.62 c 0,79,80
 395 1132.55 395 1132.55 395 1095.98 c 2,81,-1
 395 920.04 l 2,82,83
 395 883.469 395 883.469 408.788 852.396 c 0,84,85
 426.598 820.349 426.598 820.349 457.534 796.174 c 0,86,87
 488.091 772.293 488.091 772.293 529.271 758.558 c 0,88,89
 569.676 745.08 569.676 745.08 617.227 745.08 c 2,90,-1
 679.502 745.08 l 2,91,92
 727.053 745.08 727.053 745.08 767.458 758.558 c 0,93,94
 808.882 772.374 808.882 772.374 840.196 796.456 c 128,-1,95
 871.51 820.539 871.51 820.539 889.212 852.396 c 0,96,97
 903 883.471 903 883.471 903 920.04 c 2,64,-1
EndSplineSet
EndChar

StartChar: colon
Encoding: 58 58 29
Width: 440
VWidth: 2170
Flags: HW
LayerCount: 2
Fore
SplineSet
92 843.561 m 1,0,-1
 92 1120.04 l 1,1,-1
 348 1120.04 l 1,2,-1
 348 843.561 l 1,3,-1
 92 843.561 l 1,0,-1
92 -96.04 m 1,4,-1
 92 180.439 l 1,5,-1
 348 180.439 l 1,6,-1
 348 -96.04 l 1,7,-1
 92 -96.04 l 1,4,-1
EndSplineSet
EndChar

StartChar: semicolon
Encoding: 59 59 30
Width: 440
VWidth: 2181
Flags: HW
LayerCount: 2
Fore
SplineSet
92 855.04 m 1,0,-1
 92 1131.52 l 1,1,-1
 348 1131.52 l 1,2,-1
 348 855.04 l 1,3,-1
 92 855.04 l 1,0,-1
235.55 -394.52 m 1,4,-1
 92 -394.52 l 1,5,-1
 92 191.92 l 1,6,-1
 361.142 191.92 l 1,7,-1
 235.55 -394.52 l 1,4,-1
EndSplineSet
EndChar

StartChar: less
Encoding: 60 60 31
Width: 1249
VWidth: 2154
Flags: HW
LayerCount: 2
Fore
SplineSet
1177 1374.19 m 1,0,-1
 1177 1101.24 l 1,1,-1
 374.174 717.092 l 1,2,-1
 1177 334.918 l 1,3,-1
 1177 60.7451 l 1,4,-1
 51 603.467 l 1,5,-1
 51 832.649 l 1,6,-1
 1177 1374.19 l 1,0,-1
EndSplineSet
EndChar

StartChar: equal
Encoding: 61 61 32
Width: 1352
VWidth: 2154
Flags: HW
LayerCount: 2
Fore
SplineSet
1239 1048.48 m 1,0,-1
 1239 799 l 1,1,-1
 113 799 l 1,2,-1
 113 1048.48 l 1,3,-1
 1239 1048.48 l 1,0,-1
1239 637 m 1,4,-1
 1239 387.52 l 1,5,-1
 113 387.52 l 1,6,-1
 113 637 l 1,7,-1
 1239 637 l 1,4,-1
EndSplineSet
EndChar

StartChar: greater
Encoding: 62 62 33
Width: 1249
VWidth: 2154
Flags: HW
LayerCount: 2
Fore
SplineSet
873.067 717.092 m 1,0,-1
 72 1101.27 l 1,1,-1
 72 1374.19 l 1,2,-1
 1198 832.649 l 1,3,-1
 1198 603.467 l 1,4,-1
 72 60.7451 l 1,5,-1
 72 334.885 l 1,6,-1
 873.067 717.092 l 1,0,-1
EndSplineSet
EndChar

StartChar: question
Encoding: 63 63 34
Width: 950
VWidth: 2153
Flags: HW
LayerCount: 2
Fore
SplineSet
281 -113.239 m 1,0,-1
 281 163.239 l 1,1,-1
 536 163.239 l 1,2,-1
 536 -113.239 l 1,3,-1
 281 -113.239 l 1,0,-1
524 355.48 m 1,4,-1
 293 355.48 l 1,5,-1
 293 452.68 l 2,6,7
 293 532.723 293 532.723 311.519 593.978 c 0,8,9
 329.958 654.967 329.958 654.967 361.037 701.832 c 0,10,11
 391.057 747.099 391.057 747.099 429.12 782.684 c 0,12,13
 464.024 815.315 464.024 815.315 500.992 845.119 c 0,14,15
 535.706 873.105 535.706 873.105 568.496 901.645 c 0,16,17
 597.688 927.053 597.688 927.053 620.735 958.048 c 0,18,19
 642.201 986.916 642.201 986.916 655.341 1024.17 c 0,20,21
 668 1060.05 668 1060.05 668 1111.48 c 2,22,-1
 668 1132 l 2,23,24
 668 1172.4 668 1172.4 654.212 1206.75 c 0,25,26
 640.161 1241.74 640.161 1241.74 615.727 1267.7 c 0,27,28
 590.995 1293.99 590.995 1293.99 558.206 1309.35 c 0,29,30
 526.418 1324.24 526.418 1324.24 489 1324.24 c 2,31,-1
 461 1324.24 l 2,32,33
 423.581 1324.24 423.581 1324.24 391.794 1309.35 c 0,34,35
 359.003 1293.99 359.003 1293.99 334.273 1267.7 c 0,36,37
 309.841 1241.74 309.841 1241.74 295.788 1206.75 c 0,38,39
 282 1172.4 282 1172.4 282 1132 c 2,40,-1
 282 1004.59 l 1,41,-1
 51 1045.2 l 1,42,-1
 51 1132 l 2,43,44
 51 1222.17 51 1222.17 82.6426 1301.7 c 0,45,46
 114.004 1380.54 114.004 1380.54 168.938 1439.87 c 0,47,48
 223.91 1499.24 223.91 1499.24 297.498 1533.12 c 0,49,50
 371.58 1567.24 371.58 1567.24 455 1567.24 c 2,51,-1
 496 1567.24 l 2,52,53
 579.492 1567.24 579.492 1567.24 653.134 1533.07 c 0,54,55
 726.143 1499.19 726.143 1499.19 781.062 1439.87 c 0,56,57
 835.998 1380.53 835.998 1380.53 867.357 1301.7 c 0,58,59
 899 1222.17 899 1222.17 899 1132 c 2,60,-1
 899 1111.48 l 2,61,62
 899 1028.68 899 1028.68 880.745 964.602 c 0,63,64
 862.582 900.848 862.582 900.848 832.016 851.02 c 0,65,66
 802.137 802.31 802.137 802.31 764.139 764.333 c 0,67,68
 728.831 729.045 728.831 729.045 691.374 698.279 c 0,69,70
 656.186 669.379 656.186 669.379 622.77 641.368 c 0,71,72
 593.383 616.736 593.383 616.736 570.266 587.53 c 0,73,74
 548.924 560.565 548.924 560.565 536.003 527.426 c 0,75,76
 524 496.638 524 496.638 524 452.68 c 2,77,-1
 524 355.48 l 1,4,-1
EndSplineSet
EndChar

StartChar: at
Encoding: 64 64 35
Width: 2046
VWidth: 2170
Flags: HW
LayerCount: 2
Fore
SplineSet
1355.52 225.817 m 2,0,1
 1344.63 141.85 1344.63 141.85 1369.71 109.278 c 0,2,3
 1393.92 77.8398 1393.92 77.8398 1454 77.8398 c 0,4,5
 1497.85 77.8398 1497.85 77.8398 1542.18 114.161 c 0,6,7
 1591.92 154.919 1591.92 154.919 1631.75 229.973 c 0,8,9
 1673.27 308.198 1673.27 308.198 1699.06 418.072 c 0,10,11
 1725 528.574 1725 528.574 1725 659.96 c 0,12,13
 1725 809.463 1725 809.463 1684.29 936.825 c 0,14,15
 1644.18 1062.31 1644.18 1062.31 1568.62 1152.82 c 0,16,17
 1493.57 1242.72 1493.57 1242.72 1383.29 1294.1 c 0,18,19
 1272.47 1345.76 1272.47 1345.76 1128 1345.76 c 0,20,21
 1012.87 1345.76 1012.87 1345.76 909.337 1310.51 c 0,22,23
 805.153 1275.04 805.153 1275.04 715.584 1211.22 c 0,24,25
 625.778 1147.23 625.778 1147.23 553.286 1058.27 c 0,26,27
 480.461 968.896 480.461 968.896 428.856 860.494 c 0,28,29
 377.098 751.771 377.098 751.771 349.025 628.451 c 0,30,31
 321 505.339 321 505.339 321 372.68 c 0,32,33
 321 222.388 321 222.388 358.644 93.3066 c 0,34,35
 395.567 -33.3018 395.567 -33.3018 467.956 -125.832 c 0,36,37
 539.555 -217.351 539.555 -217.351 645.619 -269.465 c 0,38,39
 752.055 -321.761 752.055 -321.761 895 -321.761 c 0,40,41
 947.442 -321.761 947.442 -321.761 997.42 -314.193 c 0,42,43
 1048.25 -306.497 1048.25 -306.497 1093.63 -294.245 c 0,44,45
 1138.38 -282.16 1138.38 -282.16 1175.76 -266.213 c 0,46,47
 1212.61 -250.491 1212.61 -250.491 1238.21 -234.282 c 2,48,-1
 1287.78 -202.9 l 1,49,-1
 1369.6 -405.518 l 1,50,-1
 1331.37 -430.464 l 2,51,52
 1279.76 -464.136 1279.76 -464.136 1221.87 -489.034 c 0,53,54
 1164.74 -513.596 1164.74 -513.596 1105.97 -529.606 c 0,55,56
 1047.31 -545.592 1047.31 -545.592 989.54 -553.032 c 0,57,58
 932.036 -560.439 932.036 -560.439 879 -560.439 c 0,59,60
 691.151 -560.439 691.151 -560.439 544.255 -489.798 c 0,61,62
 396.99 -418.977 396.99 -418.977 296.096 -294.282 c 0,63,64
 195.911 -170.464 195.911 -170.464 143.667 -2.91992 c 0,65,66
 92 162.776 92 162.776 92 355.4 c 0,67,68
 92 519.974 92 519.974 128.576 675.167 c 0,69,70
 165.094 830.113 165.094 830.113 232.495 966.669 c 0,71,72
 299.988 1103.41 299.988 1103.41 395.28 1216.52 c 0,73,74
 490.714 1329.78 490.714 1329.78 607.246 1411.41 c 0,75,76
 724.18 1493.32 724.18 1493.32 859.896 1538.77 c 0,77,78
 996.286 1584.44 996.286 1584.44 1145 1584.44 c 0,79,80
 1332.42 1584.44 1332.42 1584.44 1482.53 1515.21 c 0,81,82
 1632.99 1445.83 1632.99 1445.83 1738.37 1323.31 c 0,83,84
 1843.45 1201.12 1843.45 1201.12 1898.97 1035.07 c 0,85,86
 1954 870.459 1954 870.459 1954 678.32 c 0,87,88
 1954 586.601 1954 586.601 1940.41 491.204 c 0,89,90
 1926.77 395.531 1926.77 395.531 1899.51 304.896 c 0,91,92
 1871.97 213.396 1871.97 213.396 1830.55 133.112 c 0,93,94
 1788.15 50.9229 1788.15 50.9229 1730.73 -11.6826 c 0,95,96
 1671.76 -75.9834 1671.76 -75.9834 1597.39 -113.1 c 0,97,98
 1521.22 -151.12 1521.22 -151.12 1430 -151.12 c 0,99,100
 1367.69 -151.12 1367.69 -151.12 1319.67 -135.942 c 0,101,102
 1271.1 -120.588 1271.1 -120.588 1234.05 -93.6934 c 0,103,104
 1196.45 -66.3984 1196.45 -66.3984 1169.79 -28.2314 c 0,105,106
 1165.93 -22.7109 1165.93 -22.7109 1162.2 -16.9697 c 1,107,108
 1122.83 -51.6924 1122.83 -51.6924 1077.54 -75.79 c 0,109,110
 998.877 -117.64 998.877 -117.64 911 -117.64 c 2,111,-1
 881 -117.64 l 2,112,113
 813.701 -117.64 813.701 -117.64 756.709 -91.7236 c 0,114,115
 700 -65.9355 700 -65.9355 658.438 -21.0479 c 0,116,117
 616.776 23.9482 616.776 23.9482 593.393 84.8125 c 0,118,119
 570 145.703 570 145.703 570 216.08 c 2,120,-1
 570 239.3 l 2,121,122
 570 254.843 570 254.843 572.609 271.078 c 2,123,-1
 635.497 769.155 l 2,124,125
 645.925 846.732 645.925 846.732 682.244 915.214 c 0,126,127
 718.013 982.658 718.013 982.658 771.474 1033.03 c 0,128,129
 824.971 1083.43 824.971 1083.43 891.489 1112.29 c 0,130,131
 959.13 1141.64 959.13 1141.64 1030 1141.64 c 2,132,-1
 1061 1141.64 l 2,133,134
 1149.47 1141.64 1149.47 1141.64 1220.18 1098.28 c 0,135,136
 1258.34 1074.87 1258.34 1074.87 1287.46 1042.25 c 1,137,-1
 1345.63 1120.04 l 1,138,-1
 1469.5 1120.04 l 1,139,-1
 1355.52 225.817 l 2,0,1
793.938 250.573 m 2,140,141
 793.575 241.163 793.575 241.163 792.306 232.945 c 0,142,143
 792 230.961 792 230.961 792 229.04 c 0,144,145
 792 204.27 792 204.27 799.676 184.086 c 0,146,147
 807.293 164.06 807.293 164.06 821.062 149.187 c 0,148,149
 834.717 134.44 834.717 134.44 853.584 126.218 c 0,150,151
 872.902 117.8 872.902 117.8 897 117.8 c 2,152,-1
 979 117.8 l 2,153,154
 1005.91 117.8 1005.91 117.8 1030.58 128.771 c 0,155,156
 1056.8 140.433 1056.8 140.433 1077.97 160.379 c 0,157,158
 1098.95 180.158 1098.95 180.158 1113.18 207.148 c 0,159,160
 1126.94 233.26 1126.94 233.26 1131.58 263.232 c 2,161,-1
 1199.15 781.691 l 1,162,-1
 1200 784.458 l 1,163,-1
 1200 797.12 l 2,164,165
 1200 820.808 1200 820.808 1192.32 840.994 c 0,166,167
 1184.71 861.021 1184.71 861.021 1171.44 875.354 c 0,168,169
 1158.28 889.561 1158.28 889.561 1139.42 897.782 c 0,170,171
 1120.1 906.2 1120.1 906.2 1096 906.2 c 2,172,-1
 1014 906.2 l 2,173,174
 986.953 906.2 986.953 906.2 961.677 895.122 c 0,175,176
 935.094 883.472 935.094 883.472 914.034 863.621 c 0,177,178
 893.045 843.839 893.045 843.839 878.822 816.852 c 0,179,180
 865.216 791.035 865.216 791.035 861.514 761.454 c 2,181,-1
 793.938 250.573 l 2,140,141
EndSplineSet
EndChar

StartChar: A
Encoding: 65 65 36
Width: 1154
VWidth: 2154
Flags: HW
LayerCount: 2
Fore
SplineSet
928.562 -57.3604 m 1,0,-1
 816.438 303.36 l 1,1,-1
 371.652 303.36 l 1,2,-1
 260.708 -57.3604 l 1,3,-1
 20 -57.3604 l 1,4,-1
 507.578 1491.36 l 1,5,-1
 677.959 1491.36 l 1,6,-1
 1168.25 -57.3604 l 1,7,-1
 928.562 -57.3604 l 1,0,-1
594.121 964.384 m 1,8,-1
 447.07 491.28 l 1,9,-1
 741.953 491.28 l 1,10,-1
 594.121 964.384 l 1,8,-1
EndSplineSet
EndChar

StartChar: B
Encoding: 66 66 37
Width: 1257
VWidth: 2154
Flags: HW
LayerCount: 2
Fore
SplineSet
1175 442.578 m 2,0,-1
 1175 350.101 l 2,1,2
 1175 266.175 1175 266.175 1143.36 192.148 c 0,3,4
 1111.99 118.771 1111.99 118.771 1057.06 63.5537 c 128,-1,5
 1002.09 8.29004 1002.09 8.29004 928.026 -23.2471 c 0,6,7
 806.192 -57.3604 806.192 -57.3604 669 -57.3604 c 2,8,-1
 164 -57.3604 l 1,9,-1
 164 1491.36 l 1,10,-1
 669 1491.36 l 2,11,12
 806.196 1491.36 806.196 1491.36 928.026 1457.24 c 0,13,14
 1002.09 1425.71 1002.09 1425.71 1057.06 1370.44 c 128,-1,15
 1112.05 1315.17 1112.05 1315.17 1143.41 1241.22 c 0,16,17
 1175 1166.74 1175 1166.74 1175 1082.89 c 2,18,-1
 1175 1068.82 l 2,19,20
 1175 1010.26 1175 1010.26 1159.48 956.521 c 128,-1,21
 1144 902.938 1144 902.938 1115.25 856.693 c 0,22,23
 1086.86 811.03 1086.86 811.03 1048.24 773.928 c 0,24,25
 1038.66 764.721 1038.66 764.721 1028.48 756.203 c 1,26,27
 1038.65 747.688 1038.65 747.688 1048.24 738.478 c 0,28,29
 1086.96 701.271 1086.96 701.271 1115.4 654.967 c 0,30,31
 1144.04 608.32 1144.04 608.32 1159.48 554.881 c 0,32,33
 1175 501.137 1175 501.137 1175 442.578 c 2,0,-1
944 356.976 m 2,34,-1
 944 465.744 l 2,35,36
 944 501.757 944 501.757 930.212 532.36 c 0,37,38
 907.727 563.548 907.727 563.548 867.547 586.69 c 0,39,40
 826.865 610.121 826.865 610.121 772.948 623.808 c 0,41,42
 720.663 637.08 720.663 637.08 663 637.08 c 2,43,-1
 395 637.08 l 1,44,-1
 395 185.64 l 1,45,-1
 663 185.64 l 2,46,47
 720.667 185.64 720.667 185.64 772.948 198.912 c 0,48,49
 826.869 212.601 826.869 212.601 867.547 236.03 c 0,50,51
 907.727 259.173 907.727 259.173 930.212 290.36 c 0,52,53
 944 320.963 944 320.963 944 356.976 c 2,34,-1
944 1048.25 m 2,54,-1
 944 1080.19 l 2,55,56
 944 1115.34 944 1115.34 930.212 1145.21 c 0,57,58
 907.596 1175.83 907.596 1175.83 867.07 1198.98 c 128,-1,59
 826.562 1222.12 826.562 1222.12 772.948 1235.41 c 0,60,61
 720.671 1248.36 720.671 1248.36 663 1248.36 c 2,62,-1
 395 1248.36 l 1,63,-1
 395 880.08 l 1,64,-1
 663 880.08 l 2,65,66
 720.663 880.08 720.663 880.08 772.948 893.033 c 0,67,68
 826.551 906.314 826.551 906.314 867.07 929.462 c 128,-1,69
 907.591 952.609 907.591 952.609 930.212 983.231 c 0,70,71
 944 1013.1 944 1013.1 944 1048.25 c 2,54,-1
EndSplineSet
EndChar

StartChar: C
Encoding: 67 67 38
Width: 1277
VWidth: 2154
Flags: HW
LayerCount: 2
Fore
SplineSet
1154 464.679 m 1,0,-1
 1154 356.28 l 2,1,2
 1154 266.109 1154 266.109 1122.36 186.576 c 0,3,4
 1090.99 107.738 1090.99 107.738 1036.06 48.4121 c 128,-1,5
 981.138 -10.9072 981.138 -10.9072 908.108 -44.7861 c 0,6,7
 816.476 -78.96 816.476 -78.96 712.583 -78.96 c 2,8,-1
 585.662 -78.96 l 2,9,10
 481.864 -78.96 481.864 -78.96 389.678 -44.8477 c 0,11,12
 315.918 -13.251 315.918 -13.251 260.938 42.125 c 128,-1,13
 206.01 97.4473 206.01 97.4473 174.643 170.972 c 0,14,15
 143 245.143 143 245.143 143 329.234 c 2,16,-1
 143 1104.76 l 2,17,18
 143 1188.85 143 1188.85 174.643 1263.03 c 0,19,20
 206.004 1336.54 206.004 1336.54 260.938 1391.87 c 128,-1,21
 315.91 1447.24 315.91 1447.24 389.678 1478.84 c 0,22,23
 481.86 1512.96 481.86 1512.96 585.662 1512.96 c 2,24,-1
 712.583 1512.96 l 2,25,26
 816.474 1512.96 816.474 1512.96 908.108 1478.79 c 0,27,28
 981.143 1444.91 981.143 1444.91 1036.06 1385.58 c 128,-1,29
 1091 1326.25 1091 1326.25 1122.36 1247.42 c 0,30,31
 1154 1167.89 1154 1167.89 1154 1077.72 c 2,32,-1
 1154 967.882 l 1,33,-1
 923 929.201 l 1,34,-1
 923 1077.72 l 2,35,36
 923 1118.12 923 1118.12 909.212 1152.47 c 0,37,38
 891.864 1187.65 891.864 1187.65 861.824 1213.73 c 128,-1,39
 831.797 1239.79 831.797 1239.79 791.231 1255.07 c 0,40,41
 751.678 1269.96 751.678 1269.96 705.117 1269.96 c 2,42,-1
 593.128 1269.96 l 2,43,44
 546.566 1269.96 546.566 1269.96 507.013 1256.42 c 0,45,46
 466.212 1242.44 466.212 1242.44 435.438 1218.54 c 0,47,48
 405.037 1194.92 405.037 1194.92 387.788 1163.09 c 0,49,50
 374 1131.87 374 1131.87 374 1095.12 c 2,51,-1
 374 338.784 l 2,52,53
 374 302.031 374 302.031 387.788 270.805 c 0,54,55
 405.142 238.79 405.142 238.79 435.799 214.591 c 128,-1,56
 466.453 190.391 466.453 190.391 507.013 176.504 c 0,57,58
 546.57 162.96 546.57 162.96 593.128 162.96 c 2,59,-1
 705.117 162.96 l 2,60,61
 751.674 162.96 751.674 162.96 791.231 177.851 c 0,62,63
 831.549 193.029 831.549 193.029 861.466 219.413 c 0,64,65
 891.755 246.129 891.755 246.129 909.212 281.537 c 0,66,67
 923 315.872 923 315.872 923 356.28 c 2,68,-1
 923 505.292 l 1,69,-1
 1154 464.679 l 1,0,-1
EndSplineSet
EndChar

StartChar: D
Encoding: 68 68 39
Width: 1318
VWidth: 2154
Flags: HW
LayerCount: 2
Fore
SplineSet
1175 1082.89 m 2,0,-1
 1175 350.101 l 2,1,2
 1175 266.175 1175 266.175 1143.36 192.148 c 0,3,4
 1111.99 118.771 1111.99 118.771 1057.06 63.5537 c 128,-1,5
 1002.09 8.29004 1002.09 8.29004 928.026 -23.2471 c 0,6,7
 806.192 -57.3604 806.192 -57.3604 669 -57.3604 c 2,8,-1
 164 -57.3604 l 1,9,-1
 164 1491.36 l 1,10,-1
 669 1491.36 l 2,11,12
 806.196 1491.36 806.196 1491.36 928.026 1457.24 c 0,13,14
 1002.09 1425.71 1002.09 1425.71 1057.06 1370.44 c 128,-1,15
 1112.05 1315.17 1112.05 1315.17 1143.41 1241.22 c 0,16,17
 1175 1166.74 1175 1166.74 1175 1082.89 c 2,0,-1
944 359.825 m 2,18,-1
 944 1073.2 l 2,19,20
 944 1109.81 944 1109.81 930.212 1140.92 c 0,21,22
 907.596 1172.8 907.596 1172.8 867.07 1196.92 c 128,-1,23
 826.562 1221.03 826.562 1221.03 772.948 1234.87 c 0,24,25
 720.671 1248.36 720.671 1248.36 663 1248.36 c 2,26,-1
 395 1248.36 l 1,27,-1
 395 185.64 l 1,28,-1
 663 185.64 l 2,29,30
 720.667 185.64 720.667 185.64 772.948 199.133 c 0,31,32
 826.869 213.049 826.869 213.049 867.547 236.867 c 0,33,34
 907.727 260.396 907.727 260.396 930.212 292.101 c 0,35,36
 944 323.212 944 323.212 944 359.825 c 2,18,-1
EndSplineSet
EndChar

StartChar: E
Encoding: 69 69 40
Width: 1257
VWidth: 2154
Flags: HW
LayerCount: 2
Fore
SplineSet
1175 -57.3604 m 1,0,-1
 164 -57.3604 l 1,1,-1
 164 1491.36 l 1,2,-1
 1175 1491.36 l 1,3,-1
 1175 1248.36 l 1,4,-1
 395 1248.36 l 1,5,-1
 395 837.96 l 1,6,-1
 1046 837.96 l 1,7,-1
 1046 594.96 l 1,8,-1
 395 594.96 l 1,9,-1
 395 185.64 l 1,10,-1
 1175 185.64 l 1,11,-1
 1175 -57.3604 l 1,0,-1
EndSplineSet
EndChar

StartChar: F
Encoding: 70 70 41
Width: 1216
VWidth: 2154
Flags: HW
LayerCount: 2
Fore
SplineSet
1175 1248.36 m 1,0,-1
 395 1248.36 l 1,1,-1
 395 837.96 l 1,2,-1
 1046 837.96 l 1,3,-1
 1046 594.96 l 1,4,-1
 395 594.96 l 1,5,-1
 395 -57.3604 l 1,6,-1
 164 -57.3604 l 1,7,-1
 164 1491.36 l 1,8,-1
 1175 1491.36 l 1,9,-1
 1175 1248.36 l 1,0,-1
EndSplineSet
EndChar

StartChar: G
Encoding: 71 71 42
Width: 1298
VWidth: 2154
Flags: HW
LayerCount: 2
Fore
SplineSet
1154 812.04 m 1,0,-1
 1154 -57.3604 l 1,1,-1
 1034.37 -57.3604 l 1,2,-1
 980.451 31.9346 l 1,3,4
 942.475 -6.30859 942.475 -6.30859 894.75 -32.8281 c 0,5,6
 797.182 -78.96 797.182 -78.96 678.986 -78.96 c 2,7,-1
 585.662 -78.96 l 2,8,9
 481.864 -78.96 481.864 -78.96 389.678 -44.8477 c 0,10,11
 315.918 -13.251 315.918 -13.251 260.938 42.125 c 128,-1,12
 206.01 97.4473 206.01 97.4473 174.643 170.972 c 0,13,14
 143 245.143 143 245.143 143 329.234 c 2,15,-1
 143 1104.76 l 2,16,17
 143 1188.85 143 1188.85 174.643 1263.03 c 0,18,19
 206.004 1336.54 206.004 1336.54 260.938 1391.87 c 128,-1,20
 315.91 1447.24 315.91 1447.24 389.678 1478.84 c 0,21,22
 481.86 1512.96 481.86 1512.96 585.662 1512.96 c 2,23,-1
 712.583 1512.96 l 2,24,25
 816.474 1512.96 816.474 1512.96 908.108 1478.79 c 0,26,27
 981.143 1444.91 981.143 1444.91 1036.06 1385.58 c 128,-1,28
 1091 1326.25 1091 1326.25 1122.36 1247.42 c 0,29,30
 1154 1167.89 1154 1167.89 1154 1077.72 c 2,31,-1
 1154 967.882 l 1,32,-1
 923 929.201 l 1,33,-1
 923 1077.72 l 2,34,35
 923 1118.12 923 1118.12 909.212 1152.47 c 0,36,37
 891.864 1187.65 891.864 1187.65 861.824 1213.73 c 128,-1,38
 831.797 1239.79 831.797 1239.79 791.231 1255.07 c 0,39,40
 751.678 1269.96 751.678 1269.96 705.117 1269.96 c 2,41,-1
 593.128 1269.96 l 2,42,43
 546.566 1269.96 546.566 1269.96 507.013 1256.42 c 0,44,45
 466.212 1242.44 466.212 1242.44 435.438 1218.54 c 0,46,47
 405.037 1194.92 405.037 1194.92 387.788 1163.09 c 0,48,49
 374 1131.87 374 1131.87 374 1095.12 c 2,50,-1
 374 338.784 l 2,51,52
 374 302.031 374 302.031 387.788 270.805 c 0,53,54
 405.142 238.79 405.142 238.79 435.799 214.591 c 128,-1,55
 466.453 190.391 466.453 190.391 507.013 176.504 c 0,56,57
 546.57 162.96 546.57 162.96 593.128 162.96 c 2,58,-1
 705.117 162.96 l 2,59,60
 751.674 162.96 751.674 162.96 791.231 176.073 c 0,61,62
 831.549 189.438 831.549 189.438 861.466 212.671 c 0,63,64
 866.238 216.378 866.238 216.378 870.685 220.261 c 0,65,66
 894.521 241.068 894.521 241.068 909.212 267.375 c 0,67,68
 923 297.609 923 297.609 923 333.19 c 2,69,-1
 923 569.04 l 1,70,-1
 641.656 569.04 l 1,71,-1
 641.656 812.04 l 1,72,-1
 1154 812.04 l 1,0,-1
EndSplineSet
EndChar

StartChar: H
Encoding: 72 72 43
Width: 1339
VWidth: 2154
Flags: HW
LayerCount: 2
Fore
SplineSet
1175 -57.3604 m 1,0,-1
 944 -57.3604 l 1,1,-1
 944 594.96 l 1,2,-1
 395 594.96 l 1,3,-1
 395 -57.3604 l 1,4,-1
 164 -57.3604 l 1,5,-1
 164 1491.36 l 1,6,-1
 395 1491.36 l 1,7,-1
 395 837.96 l 1,8,-1
 944 837.96 l 1,9,-1
 944 1491.36 l 1,10,-1
 1175 1491.36 l 1,11,-1
 1175 -57.3604 l 1,0,-1
EndSplineSet
EndChar

StartChar: I
Encoding: 73 73 44
Width: 559
VWidth: 2154
Flags: HW
LayerCount: 2
Fore
SplineSet
395 -57.3604 m 1,0,-1
 164 -57.3604 l 1,1,-1
 164 1491.36 l 1,2,-1
 395 1491.36 l 1,3,-1
 395 -57.3604 l 1,0,-1
EndSplineSet
EndChar

StartChar: J
Encoding: 74 74 45
Width: 1134
VWidth: 2155
Flags: HW
LayerCount: 2
Fore
SplineSet
1011 1492.16 m 1,0,-1
 1011 330.243 l 2,1,2
 1011 246.106 1011 246.106 979.357 171.894 c 0,3,4
 947.992 98.333 947.992 98.333 893.062 42.9756 c 128,-1,5
 838.138 -12.374 838.138 -12.374 761.049 -43.9854 c 0,6,7
 667.177 -78.1602 667.177 -78.1602 560.742 -78.1602 c 2,8,-1
 508.477 -78.1602 l 2,9,10
 402.141 -78.1602 402.141 -78.1602 307.701 -44.0469 c 0,11,12
 233.916 -10.165 233.916 -10.165 178.938 49.2129 c 128,-1,13
 124.01 108.534 124.01 108.534 92.6426 187.376 c 0,14,15
 61 266.908 61 266.908 61 357.08 c 2,16,-1
 61 465.479 l 1,17,-1
 292 506.092 l 1,18,-1
 292 357.08 l 2,19,20
 292 316.671 292 316.671 305.788 282.337 c 0,21,22
 323.543 247.135 323.543 247.135 354.949 220.527 c 128,-1,23
 386.353 193.921 386.353 193.921 427.905 178.65 c 0,24,25
 468.43 163.761 468.43 163.761 516.126 163.761 c 2,26,-1
 553.094 163.761 l 2,27,28
 599.663 163.761 599.663 163.761 640.938 177.598 c 0,29,30
 682.723 191.608 682.723 191.608 713.267 215.892 c 0,31,32
 744.297 240.56 744.297 240.56 762.424 273.257 c 0,33,34
 780 304.964 780 304.964 780 342.276 c 2,35,-1
 780 1492.16 l 1,36,-1
 1011 1492.16 l 1,0,-1
EndSplineSet
EndChar

StartChar: K
Encoding: 75 75 46
Width: 1269
VWidth: 2154
Flags: HW
LayerCount: 2
Fore
SplineSet
395 -57.3604 m 1,0,-1
 164 -57.3604 l 1,1,-1
 164 1491.36 l 1,2,-1
 395 1491.36 l 1,3,-1
 395 782.155 l 1,4,-1
 991.562 1491.36 l 1,5,-1
 1280.51 1491.36 l 1,6,-1
 628.191 717 l 1,7,-1
 1280.51 -57.3604 l 1,8,-1
 991.562 -57.3604 l 1,9,-1
 395 651.845 l 1,10,-1
 395 -57.3604 l 1,0,-1
EndSplineSet
EndChar

StartChar: L
Encoding: 76 76 47
Width: 1066
VWidth: 2154
Flags: HW
LayerCount: 2
Fore
SplineSet
1025 -57.3604 m 1,0,-1
 143 -57.3604 l 1,1,-1
 143 1491.36 l 1,2,-1
 374 1491.36 l 1,3,-1
 374 185.64 l 1,4,-1
 1025 185.64 l 1,5,-1
 1025 -57.3604 l 1,0,-1
EndSplineSet
EndChar

StartChar: M
Encoding: 77 77 48
Width: 1645
VWidth: 2154
Flags: HW
LayerCount: 2
Fore
SplineSet
1482 -57.0039 m 1,0,-1
 1251 -57.0039 l 1,1,-1
 1251 706.099 l 1,2,-1
 893.805 -57.0039 l 1,3,-1
 754.305 -57.0039 l 1,4,-1
 395 705.537 l 1,5,-1
 395 -57.0039 l 1,6,-1
 164 -57.0039 l 1,7,-1
 164 1491.72 l 1,8,-1
 317.513 1491.72 l 1,9,-1
 822.949 313.79 l 1,10,-1
 1325.96 1498.12 l 5,11,-1
 1480.5 1498.12 l 5,12,-1
 1482 -57.0039 l 1,0,-1
EndSplineSet
EndChar

StartChar: N
Encoding: 78 78 49
Width: 1339
VWidth: 2154
Flags: HW
LayerCount: 2
Fore
SplineSet
1046.15 -57.3604 m 1,0,-1
 1021.54 -48.125 l 1,1,-1
 411.042 940.889 l 1,2,-1
 411.042 -57.3604 l 1,3,-1
 164 -57.3604 l 1,4,-1
 164 1491.36 l 1,5,-1
 311.575 1491.36 l 1,6,-1
 944 490.295 l 1,7,-1
 944 1491.36 l 1,8,-1
 1175 1491.36 l 1,9,-1
 1175 -57.3604 l 1,10,-1
 1046.15 -57.3604 l 1,0,-1
EndSplineSet
EndChar

StartChar: O
Encoding: 79 79 50
Width: 1298
VWidth: 2154
Flags: HW
LayerCount: 2
Fore
SplineSet
1154 1104.76 m 2,0,-1
 1154 329.237 l 2,1,2
 1154 245.146 1154 245.146 1122.36 170.975 c 0,3,4
 1090.99 97.4541 1090.99 97.4541 1036.06 42.1279 c 128,-1,5
 981.138 -13.1914 981.138 -13.1914 908.108 -44.7861 c 0,6,7
 816.476 -78.96 816.476 -78.96 712.583 -78.96 c 2,8,-1
 585.662 -78.96 l 2,9,10
 481.864 -78.96 481.864 -78.96 389.678 -44.8477 c 0,11,12
 315.918 -13.251 315.918 -13.251 260.938 42.125 c 128,-1,13
 206.01 97.4473 206.01 97.4473 174.643 170.972 c 0,14,15
 143 245.143 143 245.143 143 329.234 c 2,16,-1
 143 1104.76 l 2,17,18
 143 1188.85 143 1188.85 174.643 1263.03 c 0,19,20
 206.004 1336.54 206.004 1336.54 260.938 1391.87 c 128,-1,21
 315.91 1447.24 315.91 1447.24 389.678 1478.84 c 0,22,23
 481.86 1512.96 481.86 1512.96 585.662 1512.96 c 2,24,-1
 712.583 1512.96 l 2,25,26
 816.474 1512.96 816.474 1512.96 908.108 1478.79 c 0,27,28
 981.143 1447.19 981.143 1447.19 1036.06 1391.87 c 128,-1,29
 1091 1336.54 1091 1336.54 1122.36 1263.03 c 0,30,31
 1154 1188.85 1154 1188.85 1154 1104.76 c 2,0,-1
923 338.784 m 2,32,-1
 923 1095.12 l 2,33,34
 923 1131.87 923 1131.87 909.212 1163.09 c 0,35,36
 891.864 1195.1 891.864 1195.1 861.824 1218.82 c 128,-1,37
 831.797 1242.53 831.797 1242.53 791.231 1256.42 c 0,38,39
 751.678 1269.96 751.678 1269.96 705.117 1269.96 c 2,40,-1
 593.128 1269.96 l 2,41,42
 546.566 1269.96 546.566 1269.96 507.013 1256.42 c 0,43,44
 466.212 1242.44 466.212 1242.44 435.438 1218.54 c 0,45,46
 405.037 1194.92 405.037 1194.92 387.788 1163.09 c 0,47,48
 374 1131.87 374 1131.87 374 1095.12 c 2,49,-1
 374 338.784 l 2,50,51
 374 302.031 374 302.031 387.788 270.805 c 0,52,53
 405.142 238.79 405.142 238.79 435.799 214.591 c 128,-1,54
 466.453 190.391 466.453 190.391 507.013 176.504 c 0,55,56
 546.57 162.96 546.57 162.96 593.128 162.96 c 2,57,-1
 705.117 162.96 l 2,58,59
 751.674 162.96 751.674 162.96 791.231 176.504 c 0,60,61
 831.549 190.308 831.549 190.308 861.466 214.306 c 0,62,63
 891.755 238.601 891.755 238.601 909.212 270.805 c 0,64,65
 923 302.032 923 302.032 923 338.784 c 2,32,-1
EndSplineSet
EndChar

StartChar: P
Encoding: 80 80 51
Width: 1257
VWidth: 2154
Flags: HW
LayerCount: 2
Fore
SplineSet
1175 1076.55 m 2,0,-1
 1175 894.597 l 2,1,2
 1175 809.25 1175 809.25 1143.36 733.971 c 0,3,4
 1111.99 659.348 1111.99 659.348 1057.06 603.199 c 128,-1,5
 1002.09 547 1002.09 547 928.026 514.928 c 0,6,7
 806.196 482.64 806.196 482.64 669 482.64 c 2,8,-1
 395 482.64 l 1,9,-1
 395 -57.3604 l 1,10,-1
 164 -57.3604 l 1,11,-1
 164 1491.36 l 1,12,-1
 669 1491.36 l 2,13,14
 806.196 1491.36 806.196 1491.36 928.026 1457.24 c 0,15,16
 1002.09 1425.17 1002.09 1425.17 1057.06 1368.97 c 128,-1,17
 1112.05 1312.76 1112.05 1312.76 1143.41 1237.56 c 0,18,19
 1175 1161.83 1175 1161.83 1175 1076.55 c 2,0,-1
944 899.554 m 2,20,-1
 944 1073.46 l 2,21,22
 944 1110.02 944 1110.02 930.212 1141.08 c 0,23,24
 907.596 1172.92 907.596 1172.92 867.07 1197.01 c 128,-1,25
 826.562 1221.07 826.562 1221.07 772.948 1234.89 c 0,26,27
 720.671 1248.36 720.671 1248.36 663 1248.36 c 2,28,-1
 395 1248.36 l 1,29,-1
 395 725.64 l 1,30,-1
 663 725.64 l 2,31,32
 720.663 725.64 720.663 725.64 772.948 739.111 c 0,33,34
 826.865 753.004 826.865 753.004 867.547 776.787 c 0,35,36
 907.727 800.279 907.727 800.279 930.212 831.938 c 0,37,38
 944 863 944 863 944 899.554 c 2,20,-1
EndSplineSet
EndChar

StartChar: Q
Encoding: 81 81 52
Width: 1298
VWidth: 2165
Flags: HW
LayerCount: 2
Fore
SplineSet
1154 1116.71 m 2,0,-1
 1154 341.488 l 2,1,2
 1154 261.053 1154 261.053 1125.3 189.391 c 0,3,4
 1096.74 118.082 1096.74 118.082 1046.23 63.7637 c 0,5,6
 995.925 9.66016 995.925 9.66016 928.154 -24.168 c 0,7,8
 887.229 -43.873 887.229 -43.873 837.511 -54.875 c 1,9,-1
 987.45 -385.761 l 1,10,-1
 707.412 -385.761 l 1,11,-1
 543.674 -65.7285 l 1,12,13
 462.451 -59.9766 462.451 -59.9766 389.678 -33.0469 c 0,14,15
 315.918 -1.4502 315.918 -1.4502 260.938 53.9248 c 128,-1,16
 206.01 109.248 206.01 109.248 174.643 182.771 c 0,17,18
 143 256.942 143 256.942 143 341.034 c 2,19,-1
 143 1116.56 l 2,20,21
 143 1200.65 143 1200.65 174.643 1274.83 c 0,22,23
 206.004 1348.34 206.004 1348.34 260.938 1403.67 c 128,-1,24
 315.91 1459.04 315.91 1459.04 389.678 1490.64 c 0,25,26
 481.86 1524.76 481.86 1524.76 585.662 1524.76 c 2,27,-1
 712.583 1524.76 l 2,28,29
 816.474 1524.76 816.474 1524.76 908.108 1490.59 c 0,30,31
 981.143 1459 981.143 1459 1036.06 1403.7 c 128,-1,32
 1091 1348.4 1091 1348.4 1122.36 1274.91 c 0,33,34
 1154 1200.76 1154 1200.76 1154 1116.71 c 2,0,-1
923 350.584 m 2,35,-1
 923 1106.92 l 2,36,37
 923 1143.67 923 1143.67 909.212 1174.89 c 0,38,39
 891.864 1206.9 891.864 1206.9 861.824 1230.62 c 128,-1,40
 831.797 1254.33 831.797 1254.33 791.231 1268.22 c 0,41,42
 751.678 1281.76 751.678 1281.76 705.117 1281.76 c 2,43,-1
 593.128 1281.76 l 2,44,45
 546.566 1281.76 546.566 1281.76 507.013 1268.22 c 0,46,47
 466.212 1254.24 466.212 1254.24 435.438 1230.34 c 0,48,49
 405.037 1206.72 405.037 1206.72 387.788 1174.89 c 0,50,51
 374 1143.67 374 1143.67 374 1106.92 c 2,52,-1
 374 350.584 l 2,53,54
 374 313.831 374 313.831 387.788 282.604 c 0,55,56
 405.142 250.59 405.142 250.59 435.799 226.391 c 128,-1,57
 466.453 202.191 466.453 202.191 507.013 188.305 c 0,58,59
 546.57 174.761 546.57 174.761 593.128 174.761 c 2,60,-1
 705.117 174.761 l 2,61,62
 751.674 174.761 751.674 174.761 791.231 188.305 c 0,63,64
 831.549 202.107 831.549 202.107 861.466 226.105 c 0,65,66
 891.755 250.4 891.755 250.4 909.212 282.604 c 0,67,68
 923 313.832 923 313.832 923 350.584 c 2,35,-1
EndSplineSet
EndChar

StartChar: R
Encoding: 82 82 53
Width: 1273
VWidth: 2154
Flags: HW
LayerCount: 2
Fore
SplineSet
1232.85 -57.3604 m 1,0,-1
 962.986 -57.3604 l 1,1,-1
 492.51 548.52 l 1,2,-1
 374 548.52 l 1,3,-1
 374 -57.3604 l 1,4,-1
 143 -57.3604 l 1,5,-1
 143 1491.36 l 1,6,-1
 706.599 1491.36 l 2,7,8
 807.579 1491.36 807.579 1491.36 896.645 1457.19 c 0,9,10
 981.143 1425.6 981.143 1425.6 1036.06 1370.3 c 128,-1,11
 1091.05 1314.94 1091.05 1314.94 1122.41 1240.88 c 0,12,13
 1154 1166.29 1154 1166.29 1154 1082.31 c 2,14,-1
 1154 965.521 l 2,15,16
 1154 881.534 1154 881.534 1122.41 806.952 c 0,17,18
 1091.04 732.87 1091.04 732.87 1036.06 677.521 c 128,-1,19
 981.135 622.222 981.135 622.222 896.645 590.643 c 0,20,21
 855.808 576.035 855.808 576.035 811.84 568.022 c 1,22,-1
 1232.85 -57.3604 l 1,0,-1
914.625 964.039 m 2,23,-1
 914.625 1075.84 l 2,24,25
 914.625 1111.9 914.625 1111.9 897.949 1142.54 c 0,26,27
 880.753 1174.14 880.753 1174.14 851.31 1197.98 c 0,28,29
 822.236 1221.52 822.236 1221.52 783.044 1235.08 c 0,30,31
 744.599 1248.36 744.599 1248.36 699.342 1248.36 c 2,32,-1
 374 1248.36 l 1,33,-1
 374 791.52 l 1,34,-1
 699.342 791.52 l 2,35,36
 744.593 791.52 744.593 791.52 783.044 804.81 c 0,37,38
 822.232 818.354 822.232 818.354 851.31 841.899 c 0,39,40
 880.752 865.742 880.752 865.742 897.949 897.338 c 0,41,42
 914.625 927.981 914.625 927.981 914.625 964.039 c 2,23,-1
EndSplineSet
EndChar

StartChar: S
Encoding: 83 83 54
Width: 1267
VWidth: 2154
Flags: HW
LayerCount: 2
Fore
SplineSet
1154 368.113 m 2,0,-1
 1154 325.264 l 2,1,2
 1154 241.374 1154 241.374 1119.82 167.467 c 0,3,4
 1086.34 95.083 1086.34 95.083 1030 40.6455 c 128,-1,5
 973.604 -13.8555 973.604 -13.8555 897.146 -44.9648 c 0,6,7
 804.692 -78.96 804.692 -78.96 702.007 -78.96 c 2,8,-1
 574.993 -78.96 l 2,9,10
 472.305 -78.96 472.305 -78.96 379.854 -44.9648 c 0,11,12
 303.396 -11.2471 303.396 -11.2471 246.996 47.8174 c 128,-1,13
 190.666 106.812 190.666 106.812 157.184 185.264 c 0,14,15
 123 265.357 123 265.357 123 356.28 c 2,16,-1
 123 464.679 l 1,17,-1
 354 505.292 l 1,18,-1
 354 356.28 l 2,19,20
 354 316.737 354 316.737 368.658 283.043 c 0,21,22
 387.685 247.537 387.685 247.537 419.879 220.622 c 128,-1,23
 452.064 193.716 452.064 193.716 494.838 178.215 c 0,24,25
 536.931 162.96 536.931 162.96 583.625 162.96 c 2,26,-1
 694.608 162.96 l 2,27,28
 741.168 162.96 741.168 162.96 782.541 176.957 c 0,29,30
 824.842 191.267 824.842 191.267 857.121 216.169 c 128,-1,31
 889.314 241.004 889.314 241.004 908.342 273.768 c 0,32,33
 923 304.854 923 304.854 923 341.347 c 2,34,-1
 923 384.199 l 2,35,36
 923 444.034 923 444.034 899.448 480.892 c 0,37,38
 870.398 520.558 870.398 520.558 821.912 548.721 c 0,39,40
 769.016 579.445 769.016 579.445 701.63 601.047 c 0,41,42
 627.604 624.778 627.604 624.778 549.211 648.537 c 0,43,44
 467.694 673.242 467.694 673.242 390.581 703.111 c 0,45,46
 319.258 735.212 319.258 735.212 265.753 783.535 c 0,47,48
 210.03 833.859 210.03 833.859 176.673 906.077 c 0,49,50
 143 978.978 143 978.978 143 1081.8 c 2,51,-1
 143 1108.71 l 2,52,53
 143 1191.91 143 1191.91 174.643 1265.3 c 0,54,55
 206.004 1338.04 206.004 1338.04 260.938 1392.79 c 128,-1,56
 315.91 1447.58 315.91 1447.58 394.333 1478.84 c 0,57,58
 485.688 1512.96 485.688 1512.96 588.557 1512.96 c 2,59,-1
 702.007 1512.96 l 2,60,61
 804.966 1512.96 804.966 1512.96 895.777 1478.79 c 0,62,63
 971.143 1444.91 971.143 1444.91 1026.06 1385.58 c 128,-1,64
 1081 1326.25 1081 1326.25 1112.36 1247.42 c 0,65,66
 1144 1167.89 1144 1167.89 1144 1077.72 c 2,67,-1
 1144 990.922 l 1,68,-1
 913 950.309 l 1,69,-1
 913 1077.72 l 2,70,71
 913 1118.12 913 1118.12 897.107 1152.47 c 0,72,73
 879.679 1187.65 879.679 1187.65 849.909 1213.73 c 128,-1,74
 820.152 1239.79 820.152 1239.79 779.95 1255.07 c 0,75,76
 740.751 1269.96 740.751 1269.96 694.608 1269.96 c 2,77,-1
 595.956 1269.96 l 2,78,79
 549.812 1269.96 549.812 1269.96 510.615 1256.22 c 0,80,81
 470.179 1242.04 470.179 1242.04 439.682 1217.79 c 0,82,83
 409.554 1193.83 409.554 1193.83 392.225 1161.55 c 0,84,85
 375.222 1129.86 375.222 1129.86 375.222 1092.58 c 2,86,-1
 375.222 1065.68 l 2,87,88
 375.222 1011.33 375.222 1011.33 401.614 976.766 c 0,89,90
 430.535 938.892 430.535 938.892 479.039 911.535 c 0,91,92
 532.409 881.435 532.409 881.435 600.448 859.168 c 0,93,94
 674.88 834.809 674.88 834.809 753.648 809.449 c 0,95,96
 835.102 783.222 835.102 783.222 911.458 751.812 c 0,97,98
 978.387 718.191 978.387 718.191 1031.67 668.963 c 0,99,100
 1087.21 617.652 1087.21 617.652 1120.45 544.545 c 0,101,102
 1154 470.771 1154 470.771 1154 368.113 c 2,0,-1
EndSplineSet
EndChar

StartChar: T
Encoding: 84 84 55
Width: 1099
VWidth: 2154
Flags: HW
LayerCount: 2
Fore
SplineSet
1058 1248.36 m 1,0,-1
 692.82 1248.36 l 1,1,-1
 695.1 -57.3604 l 1,2,-1
 399.199 -57.3604 l 5,3,-1
 406.181 1248.36 l 1,4,-1
 41 1248.36 l 1,5,-1
 41 1491.36 l 1,6,-1
 1058 1491.36 l 1,7,-1
 1058 1248.36 l 1,0,-1
EndSplineSet
EndChar

StartChar: U
Encoding: 85 85 56
Width: 1298
VWidth: 2155
Flags: HW
LayerCount: 2
Fore
SplineSet
1154 1492.16 m 1,0,-1
 1154 330.243 l 2,1,2
 1154 246.106 1154 246.106 1122.36 171.894 c 0,3,4
 1090.99 98.333 1090.99 98.333 1036.06 42.9756 c 128,-1,5
 981.138 -12.374 981.138 -12.374 904.742 -43.9854 c 0,6,7
 814.298 -78.1602 814.298 -78.1602 711.752 -78.1602 c 2,8,-1
 586.477 -78.1602 l 2,9,10
 484.025 -78.1602 484.025 -78.1602 393.035 -44.0469 c 0,11,12
 315.918 -12.4336 315.918 -12.4336 260.938 42.9736 c 128,-1,13
 206.01 98.3252 206.01 98.3252 174.643 171.891 c 0,14,15
 143 246.102 143 246.102 143 330.24 c 2,16,-1
 143 1492.16 l 1,17,-1
 374 1492.16 l 1,18,-1
 374 342.276 l 2,19,20
 374 304.961 374 304.961 390.934 273.257 c 0,21,22
 408.298 240.751 408.298 240.751 438.557 216.18 c 128,-1,23
 468.814 191.611 468.814 191.611 508.848 177.511 c 0,24,25
 547.892 163.761 547.892 163.761 593.846 163.761 c 2,26,-1
 704.383 163.761 l 2,27,28
 750.336 163.761 750.336 163.761 789.381 177.511 c 0,29,30
 829.176 191.526 829.176 191.526 858.705 215.892 c 0,31,32
 888.601 240.56 888.601 240.56 906.066 273.257 c 0,33,34
 923 304.964 923 304.964 923 342.276 c 2,35,-1
 923 1492.16 l 1,36,-1
 1154 1492.16 l 1,0,-1
EndSplineSet
EndChar

StartChar: V
Encoding: 86 86 57
Width: 1154
VWidth: 2154
Flags: HW
LayerCount: 2
Fore
SplineSet
260.639 1491.36 m 1,0,-1
 594.07 414.321 l 1,1,-1
 928.554 1491.36 l 1,2,-1
 1168.25 1491.36 l 1,3,-1
 677.965 -57.3604 l 1,4,-1
 507.586 -57.3604 l 1,5,-1
 20 1491.36 l 1,6,-1
 260.639 1491.36 l 1,0,-1
EndSplineSet
EndChar

StartChar: W
Encoding: 87 87 58
Width: 1848
VWidth: 2154
Flags: HW
LayerCount: 2
Fore
SplineSet
1837.55 1491.36 m 1,0,-1
 1329.59 -57.3604 l 1,1,-1
 1183.83 -57.3604 l 1,2,-1
 939.479 963.236 l 1,3,-1
 594.881 -57.3604 l 1,4,-1
 449.101 -57.3604 l 1,5,-1
 41 1491.36 l 1,6,-1
 275.84 1491.36 l 1,7,-1
 520.912 464.671 l 1,8,-1
 863.624 1491.36 l 1,9,-1
 1015.02 1491.36 l 1,10,-1
 1256.14 462.899 l 1,11,-1
 1590.86 1449.98 l 2,12,13
 1592.91 1457.39 1592.91 1457.39 1596.96 1471.27 c 128,-1,14
 1601.01 1485.15 1601.01 1485.15 1602.76 1491.36 c 1,15,-1
 1837.55 1491.36 l 1,0,-1
EndSplineSet
EndChar

StartChar: X
Encoding: 88 88 59
Width: 1195
VWidth: 2154
Flags: HW
LayerCount: 2
Fore
SplineSet
1196.34 -57.3604 m 1,0,-1
 943.508 -57.3604 l 1,1,-1
 629.17 517.233 l 1,2,-1
 314.832 -57.3604 l 1,3,-1
 61 -57.3604 l 1,4,-1
 475.737 737.204 l 1,5,-1
 82.126 1491.36 l 1,6,-1
 334.816 1491.36 l 1,7,-1
 629.179 961.121 l 1,8,-1
 922.472 1491.36 l 1,9,-1
 1175.21 1491.36 l 1,10,-1
 781.614 737.204 l 1,11,-1
 1196.34 -57.3604 l 1,0,-1
EndSplineSet
EndChar

StartChar: Y
Encoding: 89 89 60
Width: 1154
VWidth: 2154
Flags: HW
LayerCount: 2
Fore
SplineSet
1175.06 1491.36 m 1,0,-1
 747.786 673.778 l 1,1,-1
 747.786 -57.3604 l 1,2,-1
 472.049 -57.3604 l 1,3,-1
 472.049 671.704 l 1,4,-1
 41 1491.36 l 1,5,-1
 293.789 1491.36 l 1,6,-1
 608.127 916.767 l 1,7,-1
 922.465 1491.36 l 1,8,-1
 1175.06 1491.36 l 1,0,-1
EndSplineSet
EndChar

StartChar: Z
Encoding: 90 90 61
Width: 1175
VWidth: 2154
Flags: HW
LayerCount: 2
Fore
SplineSet
1093 -57.3604 m 1,0,-1
 82 -57.3604 l 1,1,-1
 82 66.4189 l 1,2,-1
 776.825 1248.36 l 1,3,-1
 102 1248.36 l 1,4,-1
 102 1491.36 l 1,5,-1
 1093 1491.36 l 1,6,-1
 1093 1366.58 l 1,7,-1
 398.212 185.64 l 1,8,-1
 1093 185.64 l 1,9,-1
 1093 -57.3604 l 1,0,-1
EndSplineSet
EndChar

StartChar: bracketleft
Encoding: 91 91 62
Width: 633
VWidth: 2164
Flags: HW
LayerCount: 2
Fore
SplineSet
581 -545.72 m 1,0,-1
 113 -545.72 l 1,1,-1
 113 1741.72 l 1,2,-1
 581 1741.72 l 1,3,-1
 581 1511.68 l 1,4,-1
 338 1511.68 l 1,5,-1
 338 -315.68 l 1,6,-1
 581 -315.68 l 1,7,-1
 581 -545.72 l 1,0,-1
EndSplineSet
EndChar

StartChar: backslash
Encoding: 92 92 63
Width: 782
VWidth: 2154
Flags: HW
LayerCount: 2
Fore
SplineSet
575.476 -245.239 m 1,0,-1
 -30.2129 1678.24 l 1,1,-1
 206.524 1678.24 l 1,2,-1
 812.213 -245.239 l 1,3,-1
 575.476 -245.239 l 1,0,-1
EndSplineSet
EndChar

StartChar: bracketright
Encoding: 93 93 64
Width: 633
VWidth: 2164
Flags: HW
LayerCount: 2
Fore
SplineSet
51 -315.68 m 1,0,-1
 295 -315.68 l 1,1,-1
 295 1511.68 l 1,2,-1
 51 1511.68 l 1,3,-1
 51 1741.72 l 1,4,-1
 520 1741.72 l 1,5,-1
 520 -545.72 l 1,6,-1
 51 -545.72 l 1,7,-1
 51 -315.68 l 1,0,-1
EndSplineSet
EndChar

StartChar: asciicircum
Encoding: 94 94 65
Width: 1104
VWidth: 2122
Flags: HW
LayerCount: 2
Fore
SplineSet
1067.04 694.6 m 1,0,-1
 813.675 694.6 l 1,1,-1
 551.154 1216.16 l 1,2,-1
 290.424 694.6 l 1,3,-1
 36.9629 694.6 l 1,4,-1
 452.769 1515.4 l 1,5,-1
 651.231 1515.4 l 1,6,-1
 1067.04 694.6 l 1,0,-1
EndSplineSet
EndChar

StartChar: underscore
Encoding: 95 95 66
Width: 1122
VWidth: 2239
Flags: HW
LayerCount: 2
Fore
SplineSet
1175 -233.239 m 1,0,-1
 1175 -469.761 l 1,1,-1
 -53 -469.761 l 1,2,-1
 -53 -233.239 l 1,3,-1
 1175 -233.239 l 1,0,-1
EndSplineSet
EndChar

StartChar: grave
Encoding: 96 96 67
Width: 778
VWidth: 2106
Flags: HW
LayerCount: 2
Fore
SplineSet
71.1318 1498.92 m 1,0,-1
 437.387 1498.92 l 1,1,-1
 667.972 1123.08 l 1,2,-1
 461.571 1123.08 l 1,3,-1
 71.1318 1498.92 l 1,0,-1
EndSplineSet
EndChar

StartChar: a
Encoding: 97 97 68
Width: 1134
VWidth: 2170
Flags: HW
LayerCount: 2
Fore
SplineSet
1011 -40.96 m 1,0,-1
 891.706 -40.96 l 1,1,-1
 844.33 35.7881 l 1,2,3
 810.396 3.29883 810.396 3.29883 769.944 -19.9316 c 0,4,5
 671.636 -62.5605 671.636 -62.5605 553.536 -62.5605 c 2,6,-1
 511.799 -62.5605 l 2,7,8
 414.269 -62.5605 414.269 -62.5605 337.962 -32.75 c 0,9,10
 273.903 -5.3877 273.903 -5.3877 225.938 42.5674 c 128,-1,11
 177.973 90.5205 177.973 90.5205 150.602 154.564 c 0,12,13
 123 219.146 123 219.146 123 291.567 c 2,14,-1
 123 301.566 l 2,15,16
 123 373.988 123 373.988 150.602 438.571 c 0,17,18
 177.973 502.616 177.973 502.616 225.938 550.568 c 128,-1,19
 273.909 598.526 273.909 598.526 337.962 625.885 c 0,20,21
 414.276 653.48 414.276 653.48 511.799 653.48 c 2,22,-1
 786 653.48 l 1,23,-1
 786 743.854 l 2,24,25
 786 766.222 786 766.222 776.161 785.513 c 0,26,27
 766.026 805.383 766.026 805.383 743.291 819.817 c 0,28,29
 720.283 834.25 720.283 834.25 688.609 842.811 c 0,30,31
 657.858 851.12 657.858 851.12 622.201 851.12 c 2,32,-1
 525.262 851.12 l 2,33,34
 489.607 851.12 489.607 851.12 458.855 840.494 c 0,35,36
 427.182 829.549 427.182 829.549 404.173 811.093 c 128,-1,37
 381.165 792.637 381.165 792.637 367.839 767.229 c 0,38,39
 358 742.562 358 742.562 358 713.96 c 2,40,-1
 358 609.239 l 1,41,-1
 133 648.753 l 1,42,-1
 133 706.4 l 2,43,44
 133 784.637 133 784.637 160.602 854.4 c 0,45,46
 187.975 923.589 187.975 923.589 235.938 975.387 c 128,-1,47
 283.901 1027.19 283.901 1027.19 347.962 1056.75 c 0,48,49
 427.725 1086.56 427.725 1086.56 525.262 1086.56 c 2,50,-1
 622.201 1086.56 l 2,51,52
 719.741 1086.56 719.741 1086.56 796.038 1056.75 c 0,53,54
 860.102 1029.88 860.102 1029.88 908.062 982.809 c 128,-1,55
 956.03 935.728 956.03 935.728 983.398 872.856 c 0,56,57
 1011 809.449 1011 809.449 1011 738.353 c 2,58,-1
 1011 -40.96 l 1,0,-1
786 286.565 m 2,59,-1
 786 439.64 l 1,60,-1
 511.799 439.64 l 2,61,62
 476.143 439.64 476.143 439.64 445.391 430.833 c 0,63,64
 414.055 421.857 414.055 421.857 391.208 406.351 c 0,65,66
 368.08 390.492 368.08 390.492 357.839 369.211 c 0,67,68
 348 348.765 348 348.765 348 325.059 c 2,69,-1
 348 286.565 l 2,70,71
 348 262.859 348 262.859 357.839 242.414 c 0,72,73
 367.973 221.355 367.973 221.355 390.709 206.058 c 0,74,75
 413.717 190.76 413.717 190.76 445.391 181.688 c 0,76,77
 476.143 172.88 476.143 172.88 511.799 172.88 c 2,78,-1
 622.201 172.88 l 2,79,80
 657.858 172.88 657.858 172.88 688.609 181.688 c 0,81,82
 720.284 190.761 720.284 190.761 743.291 206.058 c 0,83,84
 766.027 221.355 766.027 221.355 776.161 242.414 c 0,85,86
 786 262.859 786 262.859 786 286.565 c 2,59,-1
EndSplineSet
EndChar

StartChar: b
Encoding: 98 98 69
Width: 1134
VWidth: 2155
Flags: HW
LayerCount: 2
Fore
SplineSet
1011 722.972 m 2,0,-1
 1011 269.828 l 2,1,2
 1011 198.783 1011 198.783 983.398 135.417 c 0,3,4
 956.031 72.5918 956.031 72.5918 908.062 25.541 c 128,-1,5
 860.1 -21.5029 860.1 -21.5029 796.038 -48.3506 c 0,6,7
 719.733 -78.1602 719.733 -78.1602 622.201 -78.1602 c 2,8,-1
 511.799 -78.1602 l 2,9,10
 414.269 -78.1602 414.269 -78.1602 337.962 -48.3506 c 0,11,12
 273.903 -20.7646 273.903 -20.7646 225.938 27.583 c 128,-1,13
 177.973 75.9277 177.973 75.9277 150.602 140.495 c 0,14,15
 123 205.604 123 205.604 123 278.619 c 2,16,-1
 123 1492.16 l 1,17,-1
 348 1492.16 l 1,18,-1
 348 1019.3 l 1,19,20
 361.857 1028.08 361.857 1028.08 378.688 1035.4 c 0,21,22
 472.103 1070.96 472.103 1070.96 580.464 1070.96 c 2,23,-1
 622.201 1070.96 l 2,24,25
 719.741 1070.96 719.741 1070.96 796.038 1041.15 c 0,26,27
 860.102 1014.3 860.102 1014.3 908.062 967.258 c 128,-1,28
 956.03 920.21 956.03 920.21 983.398 857.383 c 0,29,30
 1011 794.019 1011 794.019 1011 722.972 c 2,0,-1
786 275.275 m 2,31,-1
 786 717.525 l 2,32,33
 786 742.13 786 742.13 776.161 763.352 c 0,34,35
 766.026 785.209 766.026 785.209 743.291 801.085 c 0,36,37
 720.283 816.963 720.283 816.963 688.609 826.379 c 0,38,39
 657.858 835.52 657.858 835.52 622.201 835.52 c 2,40,-1
 511.799 835.52 l 2,41,42
 476.143 835.52 476.143 835.52 445.391 826.379 c 0,43,44
 413.719 816.964 413.719 816.964 390.709 801.085 c 0,45,46
 367.974 785.209 367.974 785.209 357.839 763.352 c 0,47,48
 348 742.13 348 742.13 348 717.525 c 2,49,-1
 348 275.275 l 2,50,51
 348 250.671 348 250.671 357.839 229.449 c 0,52,53
 367.973 207.593 367.973 207.593 390.709 191.715 c 0,54,55
 413.717 175.838 413.717 175.838 445.391 166.421 c 0,56,57
 476.143 157.28 476.143 157.28 511.799 157.28 c 2,58,-1
 622.201 157.28 l 2,59,60
 657.858 157.28 657.858 157.28 688.609 166.421 c 0,61,62
 720.284 175.838 720.284 175.838 743.291 191.715 c 0,63,64
 766.027 207.593 766.027 207.593 776.161 229.449 c 0,65,66
 786 250.671 786 250.671 786 275.275 c 2,31,-1
EndSplineSet
EndChar

StartChar: c
Encoding: 99 99 70
Width: 1134
VWidth: 2170
Flags: HW
LayerCount: 2
Fore
SplineSet
1011 408.727 m 1,0,-1
 1011 317.6 l 2,1,2
 1011 239.37 1011 239.37 983.398 169.6 c 0,3,4
 956.031 100.42 956.031 100.42 908.062 48.6123 c 128,-1,5
 860.1 -3.18848 860.1 -3.18848 796.038 -32.75 c 0,6,7
 719.733 -62.5605 719.733 -62.5605 622.201 -62.5605 c 2,8,-1
 511.799 -62.5605 l 2,9,10
 414.269 -62.5605 414.269 -62.5605 337.962 -32.75 c 0,11,12
 273.903 -5.90527 273.903 -5.90527 225.938 41.1406 c 128,-1,13
 177.973 88.1865 177.973 88.1865 150.602 151.018 c 0,14,15
 123 214.378 123 214.378 123 285.429 c 2,16,-1
 123 738.571 l 2,17,18
 123 809.623 123 809.623 150.602 872.982 c 0,19,20
 177.975 935.815 177.975 935.815 225.938 982.858 c 128,-1,21
 273.901 1029.9 273.901 1029.9 337.962 1056.75 c 0,22,23
 414.262 1086.56 414.262 1086.56 511.799 1086.56 c 2,24,-1
 622.201 1086.56 l 2,25,26
 719.741 1086.56 719.741 1086.56 796.038 1056.75 c 0,27,28
 860.102 1027.18 860.102 1027.18 908.062 975.387 c 128,-1,29
 956.03 923.583 956.03 923.583 983.398 854.4 c 0,30,31
 1011 784.633 1011 784.633 1011 706.4 c 2,32,-1
 1011 615.273 l 1,33,-1
 786 575.76 l 1,34,-1
 786 713.96 l 2,35,36
 786 742.562 786 742.562 776.161 767.229 c 0,37,38
 766.026 792.637 766.026 792.637 743.291 811.093 c 0,39,40
 720.283 829.548 720.283 829.548 688.609 840.494 c 0,41,42
 657.858 851.12 657.858 851.12 622.201 851.12 c 2,43,-1
 511.799 851.12 l 2,44,45
 476.143 851.12 476.143 851.12 445.391 841.979 c 0,46,47
 413.719 832.563 413.719 832.563 390.709 816.686 c 0,48,49
 367.974 800.809 367.974 800.809 357.839 778.951 c 0,50,51
 348 757.729 348 757.729 348 733.125 c 2,52,-1
 348 290.875 l 2,53,54
 348 266.271 348 266.271 357.839 245.049 c 0,55,56
 367.973 223.193 367.973 223.193 390.709 207.314 c 0,57,58
 413.717 191.438 413.717 191.438 445.391 182.021 c 0,59,60
 476.143 172.88 476.143 172.88 511.799 172.88 c 2,61,-1
 622.201 172.88 l 2,62,63
 657.858 172.88 657.858 172.88 688.609 183.506 c 0,64,65
 720.284 194.452 720.284 194.452 743.291 212.907 c 0,66,67
 766.027 231.364 766.027 231.364 776.161 256.771 c 0,68,69
 786 281.439 786 281.439 786 310.04 c 2,70,-1
 786 448.24 l 1,71,-1
 1011 408.727 l 1,0,-1
EndSplineSet
EndChar

StartChar: d
Encoding: 100 100 71
Width: 1134
VWidth: 2155
Flags: HW
LayerCount: 2
Fore
SplineSet
1011 -56.5605 m 1,0,-1
 891.412 -56.5605 l 1,1,-1
 844.457 20.999 l 1,2,3
 810.898 -12.0117 810.898 -12.0117 769.944 -35.5312 c 0,4,5
 671.636 -78.1602 671.636 -78.1602 553.536 -78.1602 c 2,6,-1
 511.799 -78.1602 l 2,7,8
 414.269 -78.1602 414.269 -78.1602 337.962 -48.3506 c 0,9,10
 273.903 -21.5049 273.903 -21.5049 225.938 25.541 c 128,-1,11
 177.973 72.5859 177.973 72.5859 150.602 135.417 c 0,12,13
 123 198.777 123 198.777 123 269.828 c 2,14,-1
 123 722.972 l 2,15,16
 123 794.023 123 794.023 150.602 857.383 c 0,17,18
 177.975 920.216 177.975 920.216 225.938 967.258 c 128,-1,19
 273.901 1014.3 273.901 1014.3 337.962 1041.15 c 0,20,21
 414.262 1070.96 414.262 1070.96 511.799 1070.96 c 2,22,-1
 553.536 1070.96 l 2,23,24
 661.894 1070.96 661.894 1070.96 755.312 1035.4 c 0,25,26
 772.138 1028.08 772.138 1028.08 786 1019.3 c 1,27,-1
 786 1492.16 l 1,28,-1
 1011 1492.16 l 1,29,-1
 1011 -56.5605 l 1,0,-1
786 275.275 m 2,30,-1
 786 717.525 l 2,31,32
 786 742.13 786 742.13 776.161 763.352 c 0,33,34
 766.026 785.209 766.026 785.209 743.291 801.085 c 0,35,36
 720.283 816.963 720.283 816.963 688.609 826.379 c 0,37,38
 657.858 835.52 657.858 835.52 622.201 835.52 c 2,39,-1
 511.799 835.52 l 2,40,41
 476.143 835.52 476.143 835.52 445.391 826.379 c 0,42,43
 413.719 816.964 413.719 816.964 390.709 801.085 c 0,44,45
 367.974 785.209 367.974 785.209 357.839 763.352 c 0,46,47
 348 742.13 348 742.13 348 717.525 c 2,48,-1
 348 275.275 l 2,49,50
 348 250.671 348 250.671 357.839 229.449 c 0,51,52
 367.973 207.593 367.973 207.593 390.709 191.715 c 0,53,54
 413.717 175.838 413.717 175.838 445.391 166.421 c 0,55,56
 476.143 157.28 476.143 157.28 511.799 157.28 c 2,57,-1
 622.201 157.28 l 2,58,59
 657.858 157.28 657.858 157.28 688.609 166.421 c 0,60,61
 720.284 175.838 720.284 175.838 743.291 191.715 c 0,62,63
 766.027 207.593 766.027 207.593 776.161 229.449 c 0,64,65
 786 250.671 786 250.671 786 275.275 c 2,30,-1
EndSplineSet
EndChar

StartChar: e
Encoding: 101 101 72
Width: 1134
VWidth: 2170
Flags: HW
LayerCount: 2
Fore
SplineSet
1011 378.527 m 5,0,-1
 1011 317.6 l 2,1,2
 1011 237.632 1011 237.632 983.398 169.6 c 0,3,4
 956.031 100.42 956.031 100.42 908.062 48.6123 c 0,5,6
 856.348 -7.24001 856.348 -7.24001 796.038 -32.75 c 0,7,8
 725.561 -62.5605 725.561 -62.5605 622.201 -62.5605 c 2,9,-1
 511.799 -62.5605 l 2,10,11
 409.098 -62.5605 409.098 -62.5605 337.962 -32.75 c 0,12,13
 273.903 -5.90527 273.903 -5.90527 225.938 41.1406 c 128,-1,14
 177.973 88.1865 177.973 88.1865 150.602 151.018 c 0,15,16
 123 214.378 123 214.378 123 285.429 c 2,17,-1
 123 738.571 l 2,18,19
 123 809.623 123 809.623 150.602 872.982 c 0,20,21
 177.975 935.815 177.975 935.815 225.938 982.858 c 0,22,23
 276.993 1032.93 276.993 1032.93 337.962 1056.75 c 0,24,25
 414.262 1086.56 414.262 1086.56 511.799 1086.56 c 2,26,-1
 622.201 1086.56 l 2,27,28
 725.626 1086.56 725.626 1086.56 796.038 1056.75 c 0,29,30
 860.102 1029.63 860.102 1029.63 908.062 982.12 c 128,-1,31
 956.03 934.601 956.03 934.601 983.398 871.143 c 0,32,33
 1011 807.146 1011 807.146 1011 735.387 c 2,34,-1
 1011 446.12 l 1,35,-1
 348 446.12 l 1,36,-1
 348 287.03 l 2,37,38
 348 263.227 348 263.227 357.839 242.698 c 0,39,40
 367.973 221.553 367.973 221.553 390.709 206.192 c 0,41,42
 413.717 190.832 413.717 190.832 445.391 181.723 c 0,43,44
 476.143 172.88 476.143 172.88 511.799 172.88 c 2,45,-1
 622.201 172.88 l 2,46,47
 657.858 172.88 657.858 172.88 688.609 183.506 c 0,48,49
 720.284 194.452 720.284 194.452 743.291 212.907 c 0,50,51
 763.874 229.616 763.874 229.616 776.161 256.771 c 0,52,53
 785.798 278.061 785.798 278.061 786 310.04 c 2,54,-1
 786.43 377.995 l 5,55,-1
 1011 378.527 l 5,0,-1
786 659.96 m 1,56,-1
 786 744.641 l 2,57,58
 786 766.844 786 766.844 776.161 785.994 c 0,59,60
 766.026 805.718 766.026 805.718 743.291 820.046 c 0,61,62
 720.283 834.373 720.283 834.373 688.609 842.869 c 0,63,64
 657.858 851.12 657.858 851.12 622.201 851.12 c 2,65,-1
 511.799 851.12 l 2,66,67
 476.143 851.12 476.143 851.12 445.391 842.869 c 0,68,69
 413.719 834.375 413.719 834.375 390.709 820.046 c 0,70,71
 367.974 805.718 367.974 805.718 357.839 785.994 c 0,72,73
 348 766.846 348 766.846 348 744.641 c 2,74,-1
 348 659.96 l 1,75,-1
 786 659.96 l 1,56,-1
EndSplineSet
EndChar

StartChar: f
Encoding: 102 102 73
Width: 792
VWidth: 2154
Flags: HW
HStem: -57.36 22.68G<205 432.332> 812.04 236.52<20 205 523.862 771> 1254.84 236.52<545.513 792>
VStem: 205 318.862<679.252 812.04 1048.56 1232.2> 205 225<-57.36 75.4277>
LayerCount: 2
Fore
SplineSet
792 1254.84 m 1,0,-1
 628 1254.84 l 2,1,2
 607.59 1254.84 607.59 1254.84 590.803 1246.98 c 0,3,4
 573.201 1238.73 573.201 1238.73 560.062 1224.54 c 128,-1,5
 547.049 1210.47 547.049 1210.47 535.524 1191.13 c 0,6,7
 523.862 1172.32 523.862 1172.32 523.862 1150.08 c 2,8,-1
 523.862 1048.56 l 1,9,-1
 771 1048.56 l 1,10,-1
 771 812.04 l 1,11,-1
 523.862 812.04 l 1,12,-1
 430 -57.3604 l 1,13,-1
 205 -57.3604 l 1,14,-1
 205 812.04 l 1,15,-1
 20 812.04 l 1,16,-1
 20 1048.56 l 1,17,-1
 205 1048.56 l 1,18,-1
 205 1143.6 l 2,19,20
 205 1215.28 205 1215.28 230.051 1279.05 c 0,21,22
 254.924 1342.37 254.924 1342.37 317.898 1389.9 c 0,23,24
 386.95 1437.37 386.95 1437.37 478.147 1464.23 c 0,25,26
 561.532 1491.36 561.532 1491.36 628 1491.36 c 2,27,-1
 792 1491.36 l 1,28,-1
 792 1254.84 l 1,0,-1
EndSplineSet
EndChar

StartChar: g
Encoding: 103 103 74
Width: 1134
VWidth: 2186
Flags: HW
LayerCount: 2
Fore
SplineSet
1021 -105.28 m 2,0,-1
 1021 -109.6 l 2,1,2
 1021 -188.426 1021 -188.426 992.975 -255.403 c 0,3,4
 965.085 -322.055 965.085 -322.055 916.168 -369.73 c 0,5,6
 857.922 -416.739 857.922 -416.739 778.945 -442.551 c 0,7,8
 700.593 -468.16 700.593 -468.16 612.911 -468.16 c 2,9,-1
 550.1 -468.16 l 2,10,11
 462.42 -468.16 462.42 -468.16 384.066 -442.551 c 0,12,13
 317.065 -416.741 317.065 -416.741 268.832 -369.73 c 0,14,15
 219.917 -322.058 219.917 -322.058 192.025 -255.403 c 0,16,17
 164 -188.428 164 -188.428 164 -109.6 c 2,18,-1
 164 -105.28 l 2,19,20
 164 -35.4326 164 -35.4326 190.319 23.6436 c 0,21,22
 204.12 54.6201 204.12 54.6201 223.571 81.7305 c 1,23,24
 195.95 107.974 195.95 107.974 176.303 141.676 c 0,25,26
 141 202.23 141 202.23 141 274.951 c 0,27,28
 141 340.06 141 340.06 169.286 396.537 c 0,29,30
 184.041 425.998 184.041 425.998 205.186 450.527 c 1,31,32
 175.961 485.23 175.961 485.23 155.926 526.926 c 0,33,34
 123 595.446 123 595.446 123 675.923 c 2,35,-1
 123 751.97 l 2,36,37
 123 823.514 123 823.514 150.602 887.31 c 0,38,39
 177.975 950.579 177.975 950.579 225.938 997.947 c 128,-1,40
 273.901 1045.32 273.901 1045.32 337.962 1072.35 c 0,41,42
 410.382 1102.16 410.382 1102.16 499.604 1102.16 c 2,43,-1
 562.416 1102.16 l 2,44,45
 670.327 1102.16 670.327 1102.16 762.299 1059.62 c 0,46,47
 812.765 1036.27 812.765 1036.27 854.409 1003.27 c 1,48,-1
 911.188 1080.56 l 1,49,-1
 1031 1080.56 l 1,50,-1
 1031 668.443 l 2,51,52
 1031 595.454 1031 595.454 1003.4 530.36 c 0,53,54
 976.03 465.815 976.03 465.815 928.062 417.481 c 0,55,56
 872.898 369.152 872.898 369.152 794.002 341.572 c 0,57,58
 714.445 313.761 714.445 313.761 625.227 313.761 c 2,59,-1
 406.003 313.761 l 2,60,61
 393.549 313.761 393.549 313.761 382.389 311.469 c 0,62,63
 369.044 308.729 369.044 308.729 360.924 304.327 c 0,64,65
 354.122 300.614 354.122 300.614 350.184 295.188 c 0,66,67
 346 289.424 346 289.424 346 283.236 c 128,-1,68
 346 277.189 346 277.189 350.004 271.813 c 128,-1,69
 354.127 266.279 354.127 266.279 361.562 262.076 c 128,-1,70
 369.053 257.873 369.053 257.873 381.114 255.543 c 0,71,72
 392.824 253.28 392.824 253.28 406.003 253.28 c 2,73,-1
 612.911 253.28 l 2,74,75
 700.597 253.28 700.597 253.28 778.945 227.671 c 0,76,77
 857.927 201.855 857.927 201.855 916.168 154.851 c 0,78,79
 965.087 107.173 965.087 107.173 992.975 40.5234 c 0,80,81
 1021 -26.4541 1021 -26.4541 1021 -105.28 c 2,0,-1
782.871 666.085 m 2,82,-1
 782.871 749.835 l 2,83,84
 782.871 774.21 782.871 774.21 770.753 795.23 c 0,85,86
 758.405 816.652 758.405 816.652 737.07 832.271 c 0,87,88
 715.255 848.239 715.255 848.239 685.973 857.664 c 0,89,90
 657.844 866.72 657.844 866.72 625.227 866.72 c 2,91,-1
 499.604 866.72 l 2,92,93
 466.989 866.72 466.989 866.72 438.858 857.664 c 0,94,95
 409.886 848.338 409.886 848.338 388.838 832.609 c 128,-1,96
 367.974 816.883 367.974 816.883 357.839 795.23 c 0,97,98
 348 774.211 348 774.211 348 749.835 c 2,99,-1
 348 666.085 l 2,100,101
 348 641.709 348 641.709 357.839 620.689 c 0,102,103
 367.974 599.037 367.974 599.037 388.838 583.311 c 128,-1,104
 409.886 567.582 409.886 567.582 438.858 558.256 c 0,105,106
 466.989 549.2 466.989 549.2 499.604 549.2 c 2,107,-1
 625.227 549.2 l 2,108,109
 657.844 549.2 657.844 549.2 685.973 558.256 c 0,110,111
 715.253 567.681 715.253 567.681 737.07 583.649 c 0,112,113
 758.405 599.268 758.405 599.268 770.753 620.689 c 0,114,115
 782.871 641.711 782.871 641.711 782.871 666.085 c 2,82,-1
776.713 -116.08 m 2,116,-1
 776.713 -98.7998 l 2,117,118
 776.713 -71.2451 776.713 -71.2451 765.537 -50.5957 c 0,119,120
 754.215 -29.6768 754.215 -29.6768 735.27 -15.834 c 0,121,122
 714.7 -0.802734 714.7 -0.802734 685.759 7.78809 c 0,123,124
 655.528 16.7607 655.528 16.7607 620.3 16.7607 c 2,125,-1
 542.71 16.7607 l 2,126,127
 507.482 16.7607 507.482 16.7607 477.252 7.78809 c 0,128,129
 448.308 -0.802734 448.308 -0.802734 427.74 -15.834 c 0,130,131
 408.794 -29.6797 408.794 -29.6797 397.474 -50.5957 c 0,132,133
 386.298 -71.2471 386.298 -71.2471 386.298 -98.7998 c 2,134,-1
 386.298 -116.08 l 2,135,136
 386.298 -143.44 386.298 -143.44 397.293 -163.414 c 0,137,138
 408.8 -184.314 408.8 -184.314 428.325 -198.939 c 0,139,140
 448.683 -214.188 448.683 -214.188 477.252 -222.668 c 0,141,142
 507.482 -231.64 507.482 -231.64 542.71 -231.64 c 2,143,-1
 620.3 -231.64 l 2,144,145
 655.528 -231.64 655.528 -231.64 685.759 -222.668 c 0,146,147
 714.327 -214.188 714.327 -214.188 734.686 -198.939 c 0,148,149
 754.211 -184.314 754.211 -184.314 765.717 -163.414 c 0,150,151
 776.713 -143.44 776.713 -143.44 776.713 -116.08 c 2,116,-1
EndSplineSet
EndChar

StartChar: h
Encoding: 104 104 75
Width: 1134
VWidth: 2154
Flags: HW
LayerCount: 2
Fore
SplineSet
1011 -57.3604 m 1,0,-1
 786 -57.3604 l 1,1,-1
 786 712.636 l 2,2,3
 786 738.094 786 738.094 773.174 760.05 c 0,4,5
 759.963 782.665 759.963 782.665 737.686 799.094 c 128,-1,6
 715.41 815.521 715.41 815.521 684.743 825.261 c 0,7,8
 654.969 834.72 654.969 834.72 620.446 834.72 c 2,9,-1
 513.554 834.72 l 2,10,11
 479.032 834.72 479.032 834.72 449.257 825.261 c 0,12,13
 418.591 815.521 418.591 815.521 396.314 799.094 c 128,-1,14
 374.037 782.665 374.037 782.665 360.826 760.05 c 0,15,16
 348 738.094 348 738.094 348 712.636 c 2,17,-1
 348 -57.3604 l 1,18,-1
 123 -57.3604 l 1,19,-1
 123 1491.36 l 1,20,-1
 348 1491.36 l 1,21,-1
 348 1018.5 l 1,22,23
 366.064 1027.28 366.064 1027.28 384.674 1034.6 c 0,24,25
 475.12 1070.16 475.12 1070.16 580.036 1070.16 c 2,26,-1
 620.446 1070.16 l 2,27,28
 714.885 1070.16 714.885 1070.16 796.038 1040.35 c 0,29,30
 860.102 1013.48 860.102 1013.48 908.062 966.409 c 128,-1,31
 956.03 919.328 956.03 919.328 983.398 856.456 c 0,32,33
 1011 793.049 1011 793.049 1011 721.953 c 2,34,-1
 1011 -57.3604 l 1,0,-1
EndSplineSet
EndChar

StartChar: i
Encoding: 105 105 76
Width: 553
VWidth: 2154
Flags: HW
HStem: -57.36 22.68G<164 389> 1026.96 21.6G<164 389> 1204.08 287.28<154 399>
VStem: 164 225<-57.36 1048.56 1204.08 1491.36>
LayerCount: 2
Fore
SplineSet
399 1204.08 m 1,0,-1
 154 1204.08 l 1,1,-1
 154 1491.36 l 1,2,-1
 399 1491.36 l 1,3,-1
 399 1204.08 l 1,0,-1
389 -57.3604 m 1,4,-1
 164 -57.3604 l 1,5,-1
 164 1048.56 l 1,6,-1
 389 1048.56 l 1,7,-1
 389 -57.3604 l 1,4,-1
EndSplineSet
EndChar

StartChar: j
Encoding: 106 106 77
Width: 553
VWidth: 2170
Flags: HW
LayerCount: 2
Fore
SplineSet
399 1220.48 m 1,0,-1
 154 1220.48 l 1,1,-1
 154 1507.76 l 1,2,-1
 399 1507.76 l 1,3,-1
 399 1220.48 l 1,0,-1
389 1064.96 m 1,4,-1
 389 -103.6 l 2,5,6
 389 -181.932 389 -181.932 361.332 -251.229 c 0,7,8
 333.964 -319.774 333.964 -319.774 286.062 -371.507 c 128,-1,9
 238.236 -423.158 238.236 -423.158 174.397 -453.243 c 0,10,11
 109.641 -483.761 109.641 -483.761 37 -483.761 c 2,12,-1
 -14 -483.761 l 1,13,-1
 -14 -247.239 l 1,14,-1
 37 -247.239 l 2,15,16
 63.4824 -247.239 63.4824 -247.239 86.3232 -236.613 c 0,17,18
 109.849 -225.67 109.849 -225.67 126.938 -207.213 c 128,-1,19
 144.027 -188.756 144.027 -188.756 154.161 -163.349 c 0,20,21
 164 -138.681 164 -138.681 164 -110.08 c 2,22,-1
 164 1064.96 l 1,23,-1
 389 1064.96 l 1,4,-1
EndSplineSet
EndChar

StartChar: k
Encoding: 107 107 78
Width: 1134
VWidth: 2154
Flags: HW
HStem: -57.36 22.68G<164 389 836.93 1151.11> 1026.96 21.6G<836.93 1151.11> 1469.76 21.6G<164 389>
VStem: 164 225<-57.36 427.868 563.332 1491.36>
LayerCount: 2
Fore
SplineSet
389 -57.3604 m 1,0,-1
 164 -57.3604 l 1,1,-1
 164 1491.36 l 1,2,-1
 389 1491.36 l 1,3,-1
 389 563.332 l 1,4,-1
 857.799 1048.56 l 1,5,-1
 1151.11 1048.56 l 1,6,-1
 631.161 495.6 l 1,7,-1
 1151.11 -57.3604 l 1,8,-1
 857.799 -57.3604 l 1,9,-1
 389 427.868 l 1,10,-1
 389 -57.3604 l 1,0,-1
EndSplineSet
EndChar

StartChar: l
Encoding: 108 108 79
Width: 553
VWidth: 2154
Flags: HW
HStem: -57.36 22.68G<164 389> 1469.76 21.6G<164 389>
VStem: 164 225<-57.36 1491.36>
LayerCount: 2
Fore
SplineSet
389 -57.3604 m 1,0,-1
 164 -57.3604 l 1,1,-1
 164 1491.36 l 1,2,-1
 389 1491.36 l 1,3,-1
 389 -57.3604 l 1,0,-1
EndSplineSet
EndChar

StartChar: m
Encoding: 109 109 80
Width: 1756
VWidth: 2169
Flags: HW
HStem: -41.76 22.68G<123 348 766 990 1408 1633> 850.32 235.44<384.311 730.466 1023.97 1373.41> 1042.56 21.6G<123 255.696>
VStem: 123 225<-41.76 811.558> 766 224<-41.76 811.225> 1408 225<-41.76 810.927>
CounterMasks: 1 1c
LayerCount: 2
Fore
SplineSet
1633 -41.7607 m 1,0,-1
 1408 -41.7607 l 1,1,-1
 1408 728.235 l 2,2,3
 1408 753.693 1408 753.693 1394.99 775.649 c 0,4,5
 1381.58 798.268 1381.58 798.268 1358.97 814.693 c 128,-1,6
 1336.36 831.123 1336.36 831.123 1305.25 840.861 c 0,7,8
 1275.04 850.32 1275.04 850.32 1240.01 850.32 c 2,9,-1
 1159.32 850.32 l 2,10,11
 1124.28 850.32 1124.28 850.32 1094.07 840.861 c 0,12,13
 1062.62 831.017 1062.62 831.017 1039.19 814.337 c 0,14,15
 1016.28 798.024 1016.28 798.024 1003.01 775.649 c 0,16,17
 990 753.693 990 753.693 990 728.235 c 2,18,-1
 990 -41.7607 l 1,19,-1
 766 -41.7607 l 1,20,-1
 766 728.235 l 2,21,22
 766 753.693 766 753.693 752.985 775.649 c 0,23,24
 739.723 798.024 739.723 798.024 716.808 814.337 c 0,25,26
 693.377 831.017 693.377 831.017 661.928 840.861 c 0,27,28
 631.715 850.32 631.715 850.32 596.684 850.32 c 2,29,-1
 515.994 850.32 l 2,30,31
 480.963 850.32 480.963 850.32 450.75 840.861 c 0,32,33
 429.863 834.323 429.863 834.323 412.902 824.83 c 0,34,35
 404.526 820.143 404.526 820.143 397.026 814.693 c 0,36,37
 374.421 798.265 374.421 798.265 361.015 775.649 c 0,38,39
 348 753.693 348 753.693 348 728.235 c 2,40,-1
 348 -41.7607 l 1,41,-1
 123 -41.7607 l 1,42,-1
 123 1064.16 l 1,43,-1
 242.812 1064.16 l 1,44,-1
 288.914 986.873 l 1,45,46
 322.728 1019.87 322.728 1019.87 368.772 1043.22 c 0,47,48
 467.554 1085.76 467.554 1085.76 583.456 1085.76 c 2,49,-1
 596.684 1085.76 l 2,50,51
 730.839 1085.76 730.839 1085.76 821.694 1031.17 c 0,52,53
 868.274 1000.27 868.274 1000.27 903.416 956.966 c 1,54,55
 908.396 963.003 908.396 963.003 913.311 968.498 c 0,56,57
 945.944 1005 945.944 1005 985.666 1030.87 c 0,58,59
 1036.86 1056.76 1036.86 1056.76 1098.35 1071.19 c 0,60,61
 1160.38 1085.76 1160.38 1085.76 1226.78 1085.76 c 2,62,-1
 1240.01 1085.76 l 2,63,64
 1335.84 1085.76 1335.84 1085.76 1418.04 1055.95 c 0,65,66
 1482.09 1029.08 1482.09 1029.08 1530.06 982.009 c 128,-1,67
 1578.02 934.942 1578.02 934.942 1605.4 872.056 c 0,68,69
 1633 808.659 1633 808.659 1633 737.553 c 2,70,-1
 1633 -41.7607 l 1,0,-1
EndSplineSet
EndChar

StartChar: n
Encoding: 110 110 81
Width: 1134
VWidth: 2169
Flags: HW
LayerCount: 2
Fore
SplineSet
1011 -41.7607 m 1,0,-1
 786 -41.7607 l 1,1,-1
 786 728.235 l 2,2,3
 786 753.693 786 753.693 773.174 775.649 c 0,4,5
 759.963 798.265 759.963 798.265 737.686 814.693 c 128,-1,6
 715.41 831.12 715.41 831.12 684.743 840.861 c 0,7,8
 654.969 850.32 654.969 850.32 620.446 850.32 c 2,9,-1
 513.554 850.32 l 2,10,11
 479.032 850.32 479.032 850.32 449.257 840.861 c 0,12,13
 428.674 834.323 428.674 834.323 411.959 824.83 c 0,14,15
 403.705 820.143 403.705 820.143 396.314 814.693 c 0,16,17
 374.037 798.265 374.037 798.265 360.826 775.649 c 0,18,19
 348 753.693 348 753.693 348 728.235 c 2,20,-1
 348 -41.7607 l 1,21,-1
 123 -41.7607 l 1,22,-1
 123 1064.16 l 1,23,-1
 242.812 1064.16 l 1,24,-1
 288.914 986.873 l 1,25,26
 322.728 1019.87 322.728 1019.87 368.47 1043.22 c 0,27,28
 465.818 1085.76 465.818 1085.76 580.036 1085.76 c 2,29,-1
 620.446 1085.76 l 2,30,31
 714.885 1085.76 714.885 1085.76 796.038 1055.95 c 0,32,33
 860.102 1029.08 860.102 1029.08 908.062 982.009 c 128,-1,34
 956.03 934.928 956.03 934.928 983.398 872.056 c 0,35,36
 1011 808.649 1011 808.649 1011 737.553 c 2,37,-1
 1011 -41.7607 l 1,0,-1
EndSplineSet
EndChar

StartChar: o
Encoding: 111 111 82
Width: 1134
VWidth: 2170
Flags: HW
LayerCount: 2
Fore
SplineSet
1011 738.571 m 2,0,-1
 1011 285.429 l 2,1,2
 1011 214.383 1011 214.383 983.398 151.018 c 0,3,4
 956.031 88.1914 956.031 88.1914 908.062 41.1406 c 128,-1,5
 860.1 -5.90332 860.1 -5.90332 796.038 -32.75 c 0,6,7
 719.733 -62.5605 719.733 -62.5605 622.201 -62.5605 c 2,8,-1
 511.799 -62.5605 l 2,9,10
 414.269 -62.5605 414.269 -62.5605 337.962 -32.75 c 0,11,12
 273.903 -5.90527 273.903 -5.90527 225.938 41.1406 c 128,-1,13
 177.973 88.1865 177.973 88.1865 150.602 151.018 c 0,14,15
 123 214.378 123 214.378 123 285.429 c 2,16,-1
 123 738.571 l 2,17,18
 123 809.623 123 809.623 150.602 872.982 c 0,19,20
 177.975 935.815 177.975 935.815 225.938 982.858 c 128,-1,21
 273.901 1029.9 273.901 1029.9 337.962 1056.75 c 0,22,23
 414.262 1086.56 414.262 1086.56 511.799 1086.56 c 2,24,-1
 622.201 1086.56 l 2,25,26
 719.741 1086.56 719.741 1086.56 796.038 1056.75 c 0,27,28
 860.102 1029.9 860.102 1029.9 908.062 982.858 c 128,-1,29
 956.03 935.811 956.03 935.811 983.398 872.982 c 0,30,31
 1011 809.619 1011 809.619 1011 738.571 c 2,0,-1
786 290.875 m 2,32,-1
 786 733.125 l 2,33,34
 786 757.729 786 757.729 776.161 778.951 c 0,35,36
 766.026 800.809 766.026 800.809 743.291 816.686 c 0,37,38
 720.283 832.562 720.283 832.562 688.609 841.979 c 0,39,40
 657.858 851.12 657.858 851.12 622.201 851.12 c 2,41,-1
 511.799 851.12 l 2,42,43
 476.143 851.12 476.143 851.12 445.391 841.979 c 0,44,45
 413.719 832.563 413.719 832.563 390.709 816.686 c 0,46,47
 367.974 800.809 367.974 800.809 357.839 778.951 c 0,48,49
 348 757.729 348 757.729 348 733.125 c 2,50,-1
 348 290.875 l 2,51,52
 348 266.271 348 266.271 357.839 245.049 c 0,53,54
 367.973 223.193 367.973 223.193 390.709 207.314 c 0,55,56
 413.717 191.438 413.717 191.438 445.391 182.021 c 0,57,58
 476.143 172.88 476.143 172.88 511.799 172.88 c 2,59,-1
 622.201 172.88 l 2,60,61
 657.858 172.88 657.858 172.88 688.609 182.021 c 0,62,63
 720.284 191.438 720.284 191.438 743.291 207.314 c 0,64,65
 766.027 223.193 766.027 223.193 776.161 245.049 c 0,66,67
 786 266.271 786 266.271 786 290.875 c 2,32,-1
EndSplineSet
EndChar

StartChar: p
Encoding: 112 112 83
Width: 1134
VWidth: 2186
Flags: HW
LayerCount: 2
Fore
SplineSet
1011 754.172 m 2,0,-1
 1011 301.028 l 2,1,2
 1011 229.983 1011 229.983 983.398 166.617 c 0,3,4
 956.031 103.791 956.031 103.791 908.062 56.7412 c 128,-1,5
 860.1 9.69629 860.1 9.69629 796.038 -17.1504 c 0,6,7
 723.24 -46.96 723.24 -46.96 633.225 -46.96 c 2,8,-1
 594.704 -46.96 l 2,9,10
 494.688 -46.96 494.688 -46.96 408.479 -11.4014 c 0,11,12
 390.734 -4.08203 390.734 -4.08203 373.52 4.70312 c 1,13,-1
 373.52 -468.16 l 1,14,-1
 123 -468.16 l 1,15,-1
 123 1080.56 l 1,16,-1
 242.812 1080.56 l 1,17,-1
 300.099 1003.27 l 1,18,19
 342.116 1036.27 342.116 1036.27 393.033 1059.62 c 0,20,21
 485.828 1102.16 485.828 1102.16 594.704 1102.16 c 2,22,-1
 633.225 1102.16 l 2,23,24
 723.248 1102.16 723.248 1102.16 796.038 1072.35 c 0,25,26
 860.102 1045.5 860.102 1045.5 908.062 998.458 c 128,-1,27
 956.03 951.41 956.03 951.41 983.398 888.583 c 0,28,29
 1011 825.219 1011 825.219 1011 754.172 c 2,0,-1
786 306.475 m 2,30,-1
 786 748.725 l 2,31,32
 786 773.33 786 773.33 776.161 794.551 c 0,33,34
 766.026 816.408 766.026 816.408 744.982 832.285 c 128,-1,35
 723.748 848.162 723.748 848.162 694.515 857.579 c 0,36,37
 666.134 866.72 666.134 866.72 633.225 866.72 c 2,38,-1
 531.331 866.72 l 2,39,40
 498.424 866.72 498.424 866.72 470.042 857.579 c 0,41,42
 440.81 848.163 440.81 848.163 419.574 832.285 c 128,-1,43
 398.339 816.408 398.339 816.408 385.746 794.551 c 0,44,45
 373.52 773.33 373.52 773.33 373.52 748.725 c 2,46,-1
 373.52 306.475 l 2,47,48
 373.52 281.871 373.52 281.871 385.746 260.648 c 0,49,50
 398.338 238.793 398.338 238.793 419.574 222.915 c 128,-1,51
 440.809 207.037 440.809 207.037 470.042 197.621 c 0,52,53
 498.424 188.48 498.424 188.48 531.331 188.48 c 2,54,-1
 633.225 188.48 l 2,55,56
 666.134 188.48 666.134 188.48 694.515 197.621 c 0,57,58
 723.749 207.037 723.749 207.037 744.982 222.915 c 128,-1,59
 766.027 238.793 766.027 238.793 776.161 260.648 c 0,60,61
 786 281.871 786 281.871 786 306.475 c 2,30,-1
EndSplineSet
EndChar

StartChar: q
Encoding: 113 113 84
Width: 1134
VWidth: 2186
Flags: HW
LayerCount: 2
Fore
SplineSet
1011 -468.16 m 1,0,-1
 760.44 -468.16 l 1,1,-1
 760.44 4.70312 l 1,2,3
 743.22 -4.08398 743.22 -4.08398 725.484 -11.4014 c 0,4,5
 639.281 -46.96 639.281 -46.96 539.278 -46.96 c 2,6,-1
 500.761 -46.96 l 2,7,8
 410.758 -46.96 410.758 -46.96 337.962 -17.1504 c 0,9,10
 273.903 9.69531 273.903 9.69531 225.938 56.7412 c 128,-1,11
 177.973 103.786 177.973 103.786 150.602 166.617 c 0,12,13
 123 229.978 123 229.978 123 301.028 c 2,14,-1
 123 754.172 l 2,15,16
 123 825.223 123 825.223 150.602 888.583 c 0,17,18
 177.975 951.416 177.975 951.416 225.938 998.458 c 128,-1,19
 273.901 1045.5 273.901 1045.5 337.962 1072.35 c 0,20,21
 410.75 1102.16 410.75 1102.16 500.761 1102.16 c 2,22,-1
 539.278 1102.16 l 2,23,24
 648.262 1102.16 648.262 1102.16 740.491 1059.53 c 0,25,26
 791.375 1036.01 791.375 1036.01 833.071 1003 c 1,27,-1
 891.412 1080.56 l 1,28,-1
 1011 1080.56 l 1,29,-1
 1011 -468.16 l 1,0,-1
760.44 306.475 m 2,30,-1
 760.44 748.725 l 2,31,32
 760.44 773.33 760.44 773.33 748.215 794.551 c 0,33,34
 735.623 816.408 735.623 816.408 714.39 832.285 c 128,-1,35
 693.158 848.162 693.158 848.162 663.928 857.579 c 0,36,37
 635.55 866.72 635.55 866.72 602.645 866.72 c 2,38,-1
 500.761 866.72 l 2,39,40
 467.857 866.72 467.857 866.72 439.478 857.579 c 0,41,42
 410.249 848.163 410.249 848.163 389.016 832.285 c 128,-1,43
 367.974 816.408 367.974 816.408 357.839 794.551 c 0,44,45
 348 773.33 348 773.33 348 748.725 c 2,46,-1
 348 306.475 l 2,47,48
 348 281.871 348 281.871 357.839 260.648 c 0,49,50
 367.973 238.793 367.973 238.793 389.016 222.915 c 128,-1,51
 410.248 207.037 410.248 207.037 439.478 197.621 c 0,52,53
 467.857 188.48 467.857 188.48 500.761 188.48 c 2,54,-1
 602.645 188.48 l 2,55,56
 635.55 188.48 635.55 188.48 663.928 197.621 c 0,57,58
 693.159 207.037 693.159 207.037 714.39 222.915 c 128,-1,59
 735.624 238.793 735.624 238.793 748.215 260.648 c 0,60,61
 760.44 281.871 760.44 281.871 760.44 306.475 c 2,30,-1
EndSplineSet
EndChar

StartChar: r
Encoding: 114 114 85
Width: 690
VWidth: 2169
Flags: HW
LayerCount: 2
Fore
SplineSet
649 827.64 m 1,0,-1
 475 827.64 l 2,1,2
 448.518 827.64 448.518 827.64 425.677 818.21 c 0,3,4
 402.152 808.495 402.152 808.495 385.062 792.113 c 128,-1,5
 367.974 775.733 367.974 775.733 357.839 753.184 c 0,6,7
 348 731.289 348 731.289 348 705.904 c 2,8,-1
 348 -41.7607 l 1,9,-1
 123 -41.7607 l 1,10,-1
 123 1064.16 l 1,11,-1
 242.812 1064.16 l 1,12,-1
 288.914 986.873 l 1,13,14
 322.728 1019.87 322.728 1019.87 363.703 1043.22 c 0,15,16
 438.381 1085.76 438.381 1085.76 526 1085.76 c 2,17,-1
 649 1085.76 l 1,18,-1
 649 827.64 l 1,0,-1
EndSplineSet
EndChar

StartChar: s
Encoding: 115 115 86
Width: 1144
VWidth: 2170
Flags: HW
LayerCount: 2
Fore
SplineSet
1001.89 397.364 m 0,0,1
 1031 339.678 1031 339.678 1031 258.284 c 0,2,3
 1031 187.446 1031 187.446 1000.88 127.83 c 0,4,5
 971.269 69.2207 971.269 69.2207 920.265 27.0508 c 0,6,7
 870.181 -14.3574 870.181 -14.3574 804.895 -37.1172 c 0,8,9
 725.28 -62.5605 725.28 -62.5605 631.298 -62.5605 c 2,10,-1
 522.702 -62.5605 l 2,11,12
 427.105 -62.5605 427.105 -62.5605 346.914 -32.9561 c 0,13,14
 281.521 -3.58203 281.521 -3.58203 232.091 47.9199 c 128,-1,15
 182.737 99.3398 182.737 99.3398 153.231 168.071 c 0,16,17
 123 238.492 123 238.492 123 317.6 c 2,18,-1
 123 408.727 l 1,19,-1
 348 448.24 l 1,20,-1
 348 310.04 l 2,21,22
 348 282.541 348 282.541 358.533 258.69 c 0,23,24
 370.146 233.16 370.146 233.16 395.024 214.434 c 0,25,26
 420.559 195.212 420.559 195.212 454.389 183.851 c 0,27,28
 487.062 172.88 487.062 172.88 522.702 172.88 c 2,29,-1
 631.298 172.88 l 2,30,31
 669.646 172.88 669.646 172.88 704.535 181.07 c 0,32,33
 738.35 189.007 738.35 189.007 764.123 203.472 c 0,34,35
 787.165 216.754 787.165 216.754 797.521 235.371 c 0,36,37
 807 252.41 807 252.41 807 275.687 c 0,38,39
 807 313.346 807 313.346 791.938 334.447 c 0,40,41
 770.727 359.189 770.727 359.189 731.185 376.255 c 0,42,43
 685.837 395.828 685.837 395.828 626.709 408.994 c 0,44,45
 560.279 423.787 560.279 423.787 490.5 438.592 c 0,46,47
 417.31 454.12 417.31 454.12 352.721 474.173 c 0,48,49
 294.776 496.224 294.776 496.224 249.097 532.335 c 0,50,51
 201.06 570.311 201.06 570.311 172.199 626.928 c 0,52,53
 143 684.205 143 684.205 143 765.7 c 0,54,55
 143 836.124 143 836.124 171.773 895.45 c 0,56,57
 200.144 953.942 200.144 953.942 248.832 996.162 c 0,58,59
 297.002 1037.93 297.002 1037.93 360.545 1060.89 c 0,60,61
 441.556 1086.56 441.556 1086.56 535.945 1086.56 c 2,62,-1
 631.298 1086.56 l 2,63,64
 727.242 1086.56 727.242 1086.56 806.038 1056.75 c 0,65,66
 870.102 1027.18 870.102 1027.18 918.062 975.387 c 128,-1,67
 966.03 923.583 966.03 923.583 993.398 854.4 c 0,68,69
 1021 784.633 1021 784.633 1021 706.4 c 2,70,-1
 1021 655.232 l 1,71,-1
 796 615.72 l 1,72,-1
 796 713.96 l 2,73,74
 796 742.562 796 742.562 786.161 767.229 c 0,75,76
 773.038 792.637 773.038 792.637 750.406 811.093 c 128,-1,77
 727.775 829.548 727.775 829.548 696.619 840.494 c 0,78,79
 666.371 851.12 666.371 851.12 631.298 851.12 c 2,80,-1
 535.945 851.12 l 2,81,82
 498.062 851.12 498.062 851.12 465.557 843.137 c 0,83,84
 434.837 835.593 434.837 835.593 412.945 822.027 c 0,85,86
 391.95 809.016 391.95 809.016 379.577 790.422 c 0,87,88
 368 772.652 368 772.652 368 748.311 c 0,89,90
 368 713.127 368 713.127 386.902 693.736 c 0,91,92
 410.264 670.076 410.264 670.076 450.079 653.258 c 0,93,94
 495.672 633.996 495.672 633.996 555.102 620.765 c 0,95,96
 621.821 605.905 621.821 605.905 691.939 589.92 c 0,97,98
 764.35 573.41 764.35 573.41 822.082 552.388 c 0,99,100
 879.75 529.346 879.75 529.346 925.198 492.861 c 0,101,102
 973.109 454.4 973.109 454.4 1001.89 397.364 c 0,0,1
EndSplineSet
EndChar

StartChar: t
Encoding: 116 116 87
Width: 915
VWidth: 2159
Flags: HW
LayerCount: 2
Fore
SplineSet
812 -51.959 m 1,0,-1
 649 -51.959 l 2,1,2
 582.63 -51.959 582.63 -51.959 499.066 -24.9033 c 0,3,4
 406.478 -1.08105 406.478 -1.08105 337.833 41.125 c 0,5,6
 276.08 82.8662 276.08 82.8662 250.798 137.898 c 0,7,8
 225 194.055 225 194.055 225 257.756 c 2,9,-1
 225 817.441 l 1,10,-1
 41 817.441 l 1,11,-1
 41 1053.96 l 1,12,-1
 225 1053.96 l 1,13,-1
 225 1311.41 l 1,14,-1
 543.816 1350.92 l 1,15,-1
 543.816 1053.96 l 1,16,-1
 812 1053.96 l 1,17,-1
 812 817.441 l 1,18,-1
 543.816 817.441 l 1,19,-1
 543.816 272.871 l 2,20,21
 543.816 254.094 543.816 254.094 555.287 238.653 c 0,22,23
 566.923 222.463 566.923 222.463 580.062 210.375 c 128,-1,24
 593.075 198.404 593.075 198.404 610.985 191.389 c 0,25,26
 628.408 184.562 628.408 184.562 649 184.562 c 2,27,-1
 812 184.562 l 1,28,-1
 812 -51.959 l 1,0,-1
EndSplineSet
EndChar

StartChar: u
Encoding: 117 117 88
Width: 1134
VWidth: 2171
Flags: HW
LayerCount: 2
Fore
SplineSet
1011 -40.1602 m 1,0,-1
 891.412 -40.1602 l 1,1,-1
 844.457 37.3984 l 1,2,3
 810.898 4.3877 810.898 4.3877 765.07 -19.1318 c 0,4,5
 668.309 -61.7607 668.309 -61.7607 553.964 -61.7607 c 2,6,-1
 513.554 -61.7607 l 2,7,8
 419.125 -61.7607 419.125 -61.7607 337.962 -31.9502 c 0,9,10
 273.903 -5.08691 273.903 -5.08691 225.938 41.9922 c 128,-1,11
 177.973 89.0693 177.973 89.0693 150.602 151.944 c 0,12,13
 123 215.348 123 215.348 123 286.447 c 2,14,-1
 123 1065.76 l 1,15,-1
 348 1065.76 l 1,16,-1
 348 295.765 l 2,17,18
 348 270.307 348 270.307 360.826 248.351 c 0,19,20
 374.036 225.736 374.036 225.736 396.314 209.307 c 128,-1,21
 418.59 192.879 418.59 192.879 449.257 183.139 c 0,22,23
 479.032 173.68 479.032 173.68 513.554 173.68 c 2,24,-1
 620.446 173.68 l 2,25,26
 654.969 173.68 654.969 173.68 684.743 183.139 c 0,27,28
 704.89 189.538 704.89 189.538 721.322 198.765 c 0,29,30
 729.977 203.623 729.977 203.623 737.686 209.307 c 0,31,32
 759.964 225.736 759.964 225.736 773.174 248.351 c 0,33,34
 786 270.307 786 270.307 786 295.765 c 2,35,-1
 786 1065.76 l 1,36,-1
 1011 1065.76 l 1,37,-1
 1011 -40.1602 l 1,0,-1
EndSplineSet
EndChar

StartChar: v
Encoding: 118 118 89
Width: 1031
VWidth: 2170
Flags: HW
LayerCount: 2
Fore
SplineSet
1053.38 1064.96 m 1,0,-1
 617.719 -40.96 l 1,1,-1
 455.668 -40.96 l 1,2,-1
 20 1064.96 l 1,3,-1
 251.575 1064.96 l 1,4,-1
 537.201 328.798 l 1,5,-1
 821.758 1064.96 l 1,6,-1
 1053.38 1064.96 l 1,0,-1
EndSplineSet
EndChar

StartChar: w
Encoding: 119 119 90
Width: 1654
VWidth: 2170
Flags: HW
LayerCount: 2
Fore
SplineSet
1672.61 1064.96 m 1,0,-1
 1194.54 -40.96 l 1,1,-1
 1053.25 -40.96 l 1,2,-1
 846.803 676.237 l 1,3,-1
 538.355 -40.96 l 1,4,-1
 396.066 -40.96 l 1,5,-1
 20 1064.96 l 1,6,-1
 253.199 1064.96 l 1,7,-1
 463.434 344.718 l 1,8,-1
 772.221 1064.96 l 1,9,-1
 921.431 1064.96 l 1,10,-1
 1127.26 345.039 l 1,11,-1
 1439.41 1064.96 l 1,12,-1
 1672.61 1064.96 l 1,0,-1
EndSplineSet
EndChar

StartChar: x
Encoding: 120 120 91
Width: 1072
VWidth: 2170
Flags: HW
LayerCount: 2
Fore
SplineSet
1061.96 -40.96 m 1,0,-1
 812.09 -40.96 l 1,1,-1
 572.054 325.407 l 1,2,-1
 332.018 -40.96 l 1,3,-1
 82 -40.96 l 1,4,-1
 415.278 512 l 1,5,-1
 82 1064.96 l 1,6,-1
 332.018 1064.96 l 1,7,-1
 572.054 698.593 l 1,8,-1
 812.09 1064.96 l 1,9,-1
 1061.96 1064.96 l 1,10,-1
 730.037 512 l 1,11,-1
 1061.96 -40.96 l 1,0,-1
EndSplineSet
EndChar

StartChar: y
Encoding: 121 121 92
Width: 1011
VWidth: 2187
Flags: HW
LayerCount: 2
Fore
SplineSet
1053.85 1081.36 m 1,0,-1
 428.688 -467.36 l 1,1,-1
 169.266 -467.36 l 1,2,-1
 395.795 86.4463 l 1,3,-1
 20 1081.36 l 1,4,-1
 251.59 1081.36 l 1,5,-1
 537.216 345.198 l 1,6,-1
 821.771 1081.36 l 1,7,-1
 1053.85 1081.36 l 1,0,-1
EndSplineSet
EndChar

StartChar: z
Encoding: 122 122 93
Width: 1052
VWidth: 2170
Flags: HW
LayerCount: 2
Fore
SplineSet
970 -40.96 m 1,0,-1
 82 -40.96 l 1,1,-1
 82 74.2949 l 1,2,-1
 638.406 828.439 l 1,3,-1
 102 828.439 l 1,4,-1
 102 1064.96 l 1,5,-1
 970 1064.96 l 1,6,-1
 970 949.704 l 1,7,-1
 413.594 195.561 l 1,8,-1
 970 195.561 l 1,9,-1
 970 -40.96 l 1,0,-1
EndSplineSet
EndChar

StartChar: braceleft
Encoding: 123 123 94
Width: 778
VWidth: 2164
Flags: HW
LayerCount: 2
Fore
SplineSet
283 290.2 m 2,0,1
 283 335.754 283 335.754 269.648 371.804 c 0,2,3
 256.616 406.986 256.616 406.986 233.737 431.293 c 0,4,5
 210.736 455.727 210.736 455.727 178.042 469.434 c 0,6,7
 144.447 483.52 144.447 483.52 104 483.52 c 2,8,-1
 31 483.52 l 1,9,-1
 31 712.48 l 1,10,-1
 113.912 712.48 l 1,11,12
 152.303 714.5 152.303 714.5 183.052 728.611 c 0,13,14
 213.524 742.598 213.524 742.598 235.332 766.962 c 0,15,16
 257.331 791.541 257.331 791.541 270.108 826.249 c 0,17,18
 283 861.27 283 861.27 283 905.8 c 2,19,-1
 283 1305.4 l 2,20,21
 283 1399.44 283 1399.44 313.326 1479.15 c 0,22,23
 343.767 1559.17 343.767 1559.17 398.629 1617.79 c 0,24,25
 453.298 1676.22 453.298 1676.22 527.119 1708.96 c 0,26,27
 600.938 1741.72 600.938 1741.72 686 1741.72 c 2,28,-1
 747 1741.72 l 1,29,-1
 747 1511.68 l 1,30,-1
 686 1511.68 l 2,31,32
 645.662 1511.68 645.662 1511.68 612.648 1497.67 c 0,33,34
 580.34 1483.97 580.34 1483.97 557.263 1459.45 c 0,35,36
 534.383 1435.14 534.383 1435.14 521.352 1399.96 c 0,37,38
 508 1363.91 508 1363.91 508 1319.44 c 2,39,-1
 508 918.761 l 2,40,41
 508 799.968 508 799.968 459.284 703.407 c 0,42,43
 428.498 642.385 428.498 642.385 383.944 597.428 c 1,44,45
 428.495 551.76 428.495 551.76 459.15 491.776 c 0,46,47
 508 396.189 508 396.189 508 277.239 c 2,48,-1
 508 -123.439 l 2,49,50
 508 -167.913 508 -167.913 521.352 -203.964 c 0,51,52
 534.384 -239.149 534.384 -239.149 557.263 -263.452 c 0,53,54
 580.341 -287.967 580.341 -287.967 612.648 -301.675 c 0,55,56
 645.658 -315.68 645.658 -315.68 686 -315.68 c 2,57,-1
 747 -315.68 l 1,58,-1
 747 -545.72 l 1,59,-1
 686 -545.72 l 2,60,61
 600.931 -545.72 600.931 -545.72 527.119 -512.969 c 0,62,63
 453.293 -480.21 453.293 -480.21 398.629 -421.793 c 0,64,65
 343.765 -363.163 343.765 -363.163 313.326 -283.152 c 0,66,67
 283 -203.436 283 -203.436 283 -109.4 c 2,68,-1
 283 290.2 l 2,0,1
EndSplineSet
EndChar

StartChar: bar
Encoding: 124 124 95
Width: 457
VWidth: 2164
Flags: HW
LayerCount: 2
Fore
SplineSet
113 -545.72 m 1,0,-1
 113 1741.72 l 1,1,-1
 344 1741.72 l 1,2,-1
 344 -545.72 l 1,3,-1
 113 -545.72 l 1,0,-1
EndSplineSet
EndChar

StartChar: braceright
Encoding: 125 125 96
Width: 778
VWidth: 2164
Flags: HW
LayerCount: 2
Fore
SplineSet
495 -109.4 m 2,0,1
 495 -203.436 495 -203.436 464.674 -283.152 c 0,2,3
 434.235 -363.162 434.235 -363.162 379.371 -421.793 c 0,4,5
 324.707 -480.21 324.707 -480.21 250.881 -512.969 c 0,6,7
 177.07 -545.72 177.07 -545.72 92 -545.72 c 2,8,-1
 31 -545.72 l 1,9,-1
 31 -315.68 l 1,10,-1
 92 -315.68 l 2,11,12
 132.341 -315.68 132.341 -315.68 165.352 -301.675 c 0,13,14
 197.861 -287.882 197.861 -287.882 221.534 -263.139 c 0,15,16
 244.697 -238.93 244.697 -238.93 257.648 -203.964 c 0,17,18
 271 -167.913 271 -167.913 271 -123.439 c 2,19,-1
 271 277.239 l 2,20,21
 271 395.896 271 395.896 318.605 491.292 c 0,22,23
 348.812 551.825 348.812 551.825 393.875 597.714 c 1,24,25
 348.708 643.455 348.708 643.455 318.54 704.299 c 0,26,27
 271 800.182 271 800.182 271 918.761 c 2,28,-1
 271 1319.44 l 2,29,30
 271 1363.91 271 1363.91 257.648 1399.96 c 0,31,32
 244.697 1434.92 244.697 1434.92 221.534 1459.14 c 0,33,34
 197.859 1483.88 197.859 1483.88 165.352 1497.67 c 0,35,36
 132.336 1511.68 132.336 1511.68 92 1511.68 c 2,37,-1
 31 1511.68 l 1,38,-1
 31 1741.72 l 1,39,-1
 92 1741.72 l 2,40,41
 177.064 1741.72 177.064 1741.72 250.881 1708.96 c 0,42,43
 324.703 1676.22 324.703 1676.22 379.371 1617.79 c 0,44,45
 434.233 1559.17 434.233 1559.17 464.674 1479.15 c 0,46,47
 495 1399.44 495 1399.44 495 1305.4 c 2,48,-1
 495 905.8 l 2,49,50
 495 860.246 495 860.246 508.352 824.196 c 0,51,52
 521.303 789.229 521.303 789.229 544.466 765.021 c 0,53,54
 568.139 740.28 568.139 740.28 600.648 726.485 c 0,55,56
 633.657 712.48 633.657 712.48 674 712.48 c 2,57,-1
 747 712.48 l 1,58,-1
 747 483.52 l 1,59,-1
 664.547 483.52 l 2,60,61
 626.7 482.512 626.7 482.512 595.729 468.059 c 0,62,63
 564.579 453.521 564.579 453.521 542.158 428.487 c 0,64,65
 519.861 403.591 519.861 403.591 507.586 369.207 c 0,66,67
 495 333.951 495 333.951 495 290.2 c 2,68,-1
 495 -109.4 l 2,0,1
EndSplineSet
EndChar

StartChar: asciitilde
Encoding: 126 126 97
Width: 985
VWidth: 2161
Flags: HW
LayerCount: 2
Fore
SplineSet
659 657.64 m 0,0,1
 674.218 657.64 674.218 657.64 684.446 663.549 c 0,2,3
 696.267 670.379 696.267 670.379 704.576 682.043 c 0,4,5
 713.877 695.102 713.877 695.102 719.176 714.059 c 0,6,7
 725 734.894 725 734.894 725 760.239 c 2,8,-1
 725 815.32 l 1,9,-1
 934 815.32 l 1,10,-1
 934 760.239 l 2,11,12
 934 693.894 934 693.894 917.878 635.437 c 0,13,14
 901.04 574.384 901.04 574.384 866.824 528.192 c 0,15,16
 831.429 480.407 831.429 480.407 778.216 453.362 c 0,17,18
 725.401 426.52 725.401 426.52 657 426.52 c 0,19,20
 609.604 426.52 609.604 426.52 569.15 441.308 c 0,21,22
 531.983 454.893 531.983 454.893 499.697 474.817 c 0,23,24
 468.521 494.056 468.521 494.056 440.633 517.549 c 0,25,26
 417.129 537.351 417.129 537.351 394.71 553.49 c 0,27,28
 373.901 568.473 373.901 568.473 353.879 578.595 c 0,29,30
 340.655 585.28 340.655 585.28 326 585.28 c 0,31,32
 297.132 585.28 297.132 585.28 280.942 562.523 c 0,33,34
 260 533.086 260 533.086 260 483.761 c 2,35,-1
 260 428.68 l 1,36,-1
 51 428.68 l 1,37,-1
 51 483.761 l 2,38,39
 51 550.109 51 550.109 67.1221 608.563 c 0,40,41
 84.0273 669.855 84.0273 669.855 118.953 716.18 c 0,42,43
 154.782 763.7 154.782 763.7 207.784 790.638 c 0,44,45
 260.601 817.48 260.601 817.48 328 817.48 c 0,46,47
 398.402 817.48 398.402 817.48 453.917 786.491 c 0,48,49
 502.006 759.646 502.006 759.646 543.253 726.822 c 0,50,51
 580.138 697.469 580.138 697.469 614.008 673.431 c 0,52,53
 636.256 657.64 636.256 657.64 659 657.64 c 0,0,1
EndSplineSet
EndChar

StartChar: exclamdown
Encoding: 161 161 99
Width: 428
VWidth: 2187
Flags: HW
LayerCount: 2
Fore
SplineSet
358.882 -522.439 m 1,0,-1
 69.1182 -522.439 l 1,1,-1
 129.728 667.72 l 1,2,-1
 298.272 667.72 l 1,3,-1
 358.882 -522.439 l 1,0,-1
342 1136.44 m 1,4,-1
 342 859.96 l 1,5,-1
 86 859.96 l 1,6,-1
 86 1136.44 l 1,7,-1
 342 1136.44 l 1,4,-1
EndSplineSet
EndChar

StartChar: cent
Encoding: 162 162 100
Width: 930
VWidth: 2154
Flags: HW
LayerCount: 2
Fore
SplineSet
114.746 -134.04 m 1,0,-1
 202.494 170.921 l 1,1,2
 150.578 216.898 150.578 216.898 116.72 280.893 c 0,3,4
 72 365.414 72 365.414 72 466.439 c 2,5,-1
 72 966.48 l 2,6,7
 72 1044.71 72 1044.71 99.6016 1114.48 c 0,8,9
 126.971 1183.66 126.971 1183.66 174.938 1235.46 c 0,10,11
 222.894 1287.26 222.894 1287.26 286.962 1316.83 c 0,12,13
 351.556 1346.64 351.556 1346.64 424 1346.64 c 2,14,-1
 506 1346.64 l 2,15,16
 520.628 1346.64 520.628 1346.64 535.573 1345.54 c 1,17,-1
 599.411 1568.04 l 1,18,-1
 813.911 1568.04 l 1,19,-1
 727.46 1262.48 l 1,20,21
 779.384 1217.17 779.384 1217.17 813.28 1153.1 c 0,22,23
 858 1068.58 858 1068.58 858 966.48 c 2,24,-1
 858 875.353 l 1,25,-1
 633 835.842 l 1,26,-1
 633 928.893 l 1,27,-1
 461.323 322.8 l 1,28,-1
 506 322.8 l 2,29,30
 532.483 322.8 532.483 322.8 555.323 333.426 c 0,31,32
 578.848 344.371 578.848 344.371 595.938 362.827 c 0,33,34
 613.027 381.284 613.027 381.284 623.161 406.691 c 0,35,36
 633 431.358 633 431.358 633 459.96 c 2,37,-1
 633 598.681 l 1,38,-1
 858 557.193 l 1,39,-1
 858 466.439 l 2,40,41
 858 388.212 858 388.212 830.398 318.438 c 0,42,43
 803.033 249.262 803.033 249.262 755.062 197.453 c 0,44,45
 707.1 145.652 707.1 145.652 643.038 116.09 c 0,46,47
 578.441 86.2803 578.441 86.2803 506 86.2803 c 2,48,-1
 424 86.2803 l 2,49,50
 409.381 86.2803 409.381 86.2803 394.068 87.4102 c 1,51,-1
 330.601 -134.04 l 1,52,-1
 114.746 -134.04 l 1,0,-1
297 503.603 m 1,53,-1
 469.547 1111.2 l 1,54,-1
 424 1111.2 l 2,55,56
 397.517 1111.2 397.517 1111.2 374.677 1100.57 c 0,57,58
 351.402 1089.75 351.402 1089.75 334.432 1071.04 c 0,59,60
 317.081 1051.91 317.081 1051.91 306.839 1026.23 c 0,61,62
 297 1001.56 297 1001.56 297 972.96 c 2,63,-1
 297 503.603 l 1,53,-1
EndSplineSet
EndChar

StartChar: sterling
Encoding: 163 163 101
Width: 1108
VWidth: 2153
Flags: HW
LayerCount: 2
Fore
SplineSet
235.197 737.8 m 1,0,1
 230.513 755.516 230.513 755.516 225.925 773.029 c 0,2,3
 211.484 828.176 211.484 828.176 200.146 884.946 c 0,4,5
 188.69 942.317 188.69 942.317 181.416 1003.48 c 0,6,7
 174 1065.84 174 1065.84 174 1132 c 0,8,9
 174 1222.17 174 1222.17 205.643 1301.7 c 0,10,11
 237.004 1380.53 237.004 1380.53 291.938 1439.87 c 0,12,13
 346.908 1499.24 346.908 1499.24 420.498 1533.12 c 0,14,15
 494.58 1567.24 494.58 1567.24 578 1567.24 c 2,16,-1
 606 1567.24 l 2,17,18
 689.492 1567.24 689.492 1567.24 763.134 1533.07 c 0,19,20
 836.143 1499.19 836.143 1499.19 891.062 1439.87 c 0,21,22
 945.998 1380.53 945.998 1380.53 977.357 1301.7 c 0,23,24
 1009 1222.17 1009 1222.17 1009 1132 c 2,25,-1
 1009 1045.2 l 1,26,-1
 778 1004.59 l 1,27,-1
 778 1132 l 2,28,29
 778 1172.4 778 1172.4 764.212 1206.75 c 0,30,31
 750.079 1241.93 750.079 1241.93 725.938 1268.02 c 0,32,33
 701.807 1294.08 701.807 1294.08 669.206 1309.35 c 0,34,35
 637.419 1324.24 637.419 1324.24 600 1324.24 c 2,36,-1
 584 1324.24 l 2,37,38
 546.581 1324.24 546.581 1324.24 514.794 1309.35 c 0,39,40
 482.003 1293.99 482.003 1293.99 457.273 1267.7 c 0,41,42
 432.841 1241.74 432.841 1241.74 418.788 1206.75 c 0,43,44
 405 1172.4 405 1172.4 405 1132 c 0,45,46
 405 1076.51 405 1076.51 411.987 1023.69 c 0,47,48
 419.131 969.684 419.131 969.684 431.034 917.232 c 0,49,50
 443.196 863.637 443.196 863.637 458.296 809.977 c 0,51,52
 468.352 774.254 468.352 774.254 478.269 737.8 c 1,53,-1
 831 737.8 l 1,54,-1
 831 517.48 l 1,55,-1
 529.001 517.48 l 1,56,57
 533.875 488.099 533.875 488.099 537.942 458.644 c 0,58,59
 547 393.056 547 393.056 547 322 c 0,60,61
 547 241.354 547 241.354 523.63 169.324 c 0,62,63
 517.06 149.076 517.06 149.076 509.037 129.761 c 1,64,-1
 1016 129.761 l 1,65,-1
 1016 -113.239 l 1,66,-1
 72 -113.239 l 1,67,-1
 72 129.761 l 1,68,-1
 158 129.761 l 2,69,70
 194.666 129.761 194.666 129.761 222.9 144.017 c 0,71,72
 251.627 158.521 251.627 158.521 271.542 183.216 c 0,73,74
 292.278 208.929 292.278 208.929 304.037 244.063 c 0,75,76
 316 279.808 316 279.808 316 322 c 0,77,78
 316 382.274 316 382.274 307.182 439.922 c 0,79,80
 301.25 478.703 301.25 478.703 293.457 517.48 c 1,81,-1
 72 517.48 l 1,82,-1
 72 737.8 l 1,83,-1
 235.197 737.8 l 1,0,1
EndSplineSet
EndChar

StartChar: currency
Encoding: 164 164 102
Width: 1237
VWidth: 2154
Flags: HW
LayerCount: 2
Fore
SplineSet
214.721 1329.99 m 1,0,-1
 371.514 1159.52 l 1,1,2
 416.092 1188.84 416.092 1188.84 465.804 1207.45 c 0,3,4
 537.409 1234.24 537.409 1234.24 618 1234.24 c 0,5,6
 698.52 1234.24 698.52 1234.24 770.579 1207.49 c 0,7,8
 820.077 1189.11 820.077 1189.11 864.104 1159.76 c 1,9,-1
 1022.52 1329.72 l 1,10,-1
 1183.73 1151.74 l 1,11,-1
 1028.07 983.628 l 1,12,13
 1054.19 935.009 1054.19 935.009 1070.81 882.008 c 0,14,15
 1095 804.827 1095 804.827 1095 719.083 c 0,16,17
 1095 633.391 1095 633.391 1070.84 555.743 c 0,18,19
 1053.97 501.512 1053.97 501.512 1026.81 453.536 c 1,20,-1
 1186.4 280.046 l 1,21,-1
 1021.84 106.183 l 1,22,-1
 861.555 277.043 l 1,23,24
 817.902 249.148 817.902 249.148 769.128 231.59 c 0,25,26
 698.276 206.083 698.276 206.083 618 206.083 c 0,27,28
 538.848 206.083 538.848 206.083 467.1 231.509 c 0,29,30
 417.397 249.121 417.397 249.121 373.72 276.926 c 1,31,-1
 215.394 105.934 l 1,32,-1
 50.5967 280.046 l 1,33,-1
 210.248 453.597 l 1,34,35
 183.101 501.958 183.101 501.958 166.931 556.482 c 0,36,37
 144 633.799 144 633.799 144 719.083 c 0,38,39
 144 804.501 144 804.501 167.003 880.847 c 0,40,41
 183.106 934.293 183.106 934.293 208.923 981.891 c 1,42,-1
 53.5039 1152 l 1,43,-1
 214.721 1329.99 l 1,0,-1
368 719.083 m 0,44,45
 368 661.142 368 661.142 387.464 611.499 c 0,46,47
 407.154 561.278 407.154 561.278 440.783 524.512 c 0,48,49
 474.391 487.767 474.391 487.767 520.396 466.086 c 0,50,51
 565.645 444.764 565.645 444.764 618 444.764 c 0,52,53
 671.446 444.764 671.446 444.764 717.258 466.159 c 0,54,55
 763.822 487.906 763.822 487.906 797.938 524.75 c 0,56,57
 831.912 561.443 831.912 561.443 851.536 611.499 c 0,58,59
 871 661.146 871 661.146 871 719.083 c 0,60,61
 871 777.114 871 777.114 851.473 827.37 c 0,62,63
 831.788 878.032 831.788 878.032 797.72 915.272 c 0,64,65
 763.673 952.491 763.673 952.491 717.258 974.167 c 0,66,67
 671.446 995.563 671.446 995.563 618 995.563 c 0,68,69
 565.642 995.563 565.642 995.563 520.396 974.239 c 0,70,71
 474.533 952.624 474.533 952.624 441 915.514 c 0,72,73
 407.273 878.188 407.273 878.188 387.527 827.37 c 0,74,75
 368 777.114 368 777.114 368 719.083 c 0,44,45
EndSplineSet
EndChar

StartChar: yen
Encoding: 165 165 103
Width: 950
VWidth: 2154
Flags: HW
LayerCount: 2
Fore
SplineSet
315.041 765.6 m 1,0,-1
 -40.959 1546.44 l 1,1,-1
 211.662 1546.44 l 1,2,-1
 475 971.846 l 1,3,-1
 738.338 1546.44 l 1,4,-1
 990.959 1546.44 l 1,5,-1
 634.959 765.6 l 1,6,-1
 878 765.6 l 1,7,-1
 878 544.2 l 1,8,-1
 592 544.2 l 1,9,-1
 592 510.72 l 1,10,-1
 878 510.72 l 1,11,-1
 878 290.4 l 1,12,-1
 592 290.4 l 1,13,-1
 592 -112.439 l 1,14,-1
 361 -112.439 l 1,15,-1
 361 290.4 l 1,16,-1
 72 290.4 l 1,17,-1
 72 510.72 l 1,18,-1
 361 510.72 l 1,19,-1
 361 544.2 l 1,20,-1
 72 544.2 l 1,21,-1
 72 765.6 l 1,22,-1
 315.041 765.6 l 1,0,-1
EndSplineSet
EndChar

StartChar: brokenbar
Encoding: 166 166 104
Width: 457
VWidth: 2164
Flags: HW
LayerCount: 2
Fore
SplineSet
113 -545.72 m 1,0,-1
 113 542.92 l 1,1,-1
 344 542.92 l 1,2,-1
 344 -545.72 l 1,3,-1
 113 -545.72 l 1,0,-1
113 653.08 m 1,4,-1
 113 1741.72 l 1,5,-1
 344 1741.72 l 1,6,-1
 344 653.08 l 1,7,-1
 113 653.08 l 1,4,-1
EndSplineSet
EndChar

StartChar: section
Encoding: 167 167 105
Width: 1073
VWidth: 2170
Flags: HW
LayerCount: 2
Fore
SplineSet
92 1149.2 m 2,0,1
 92 1239.37 92 1239.37 123.643 1318.9 c 0,2,3
 155.004 1397.74 155.004 1397.74 209.938 1457.06 c 0,4,5
 264.91 1516.44 264.91 1516.44 338.498 1550.32 c 0,6,7
 412.58 1584.44 412.58 1584.44 496 1584.44 c 2,8,-1
 588 1584.44 l 2,9,10
 671.492 1584.44 671.492 1584.44 745.134 1550.27 c 0,11,12
 818.143 1516.39 818.143 1516.39 873.062 1457.06 c 0,13,14
 927.998 1397.73 927.998 1397.73 959.357 1318.9 c 0,15,16
 991 1239.37 991 1239.37 991 1149.2 c 2,17,-1
 991 1062.4 l 1,18,-1
 760 1021.79 l 1,19,-1
 760 1149.2 l 2,20,21
 760 1189.6 760 1189.6 746.212 1223.95 c 0,22,23
 732.079 1259.13 732.079 1259.13 707.938 1285.21 c 0,24,25
 683.807 1311.28 683.807 1311.28 651.206 1326.55 c 0,26,27
 619.418 1341.44 619.418 1341.44 582 1341.44 c 2,28,-1
 502 1341.44 l 2,29,30
 464.581 1341.44 464.581 1341.44 432.794 1326.55 c 0,31,32
 400.004 1311.19 400.004 1311.19 375.273 1284.9 c 0,33,34
 350.841 1258.94 350.841 1258.94 336.788 1223.95 c 0,35,36
 323 1189.6 323 1189.6 323 1149.2 c 2,37,-1
 323 1120.04 l 2,38,39
 323 1061.15 323 1061.15 344.403 1023.68 c 0,40,41
 367.855 982.635 367.855 982.635 407.188 952.987 c 0,42,43
 450.468 920.365 450.468 920.365 505.643 896.232 c 0,44,45
 566.002 869.834 566.002 869.834 629.877 842.349 c 0,46,47
 695.931 813.926 695.931 813.926 758.458 779.884 c 0,48,49
 825.386 743.446 825.386 743.446 878.673 690.092 c 0,50,51
 934.211 634.483 934.211 634.483 967.453 555.253 c 0,52,53
 1001 475.297 1001 475.297 1001 364.04 c 2,54,-1
 1001 317.6 l 2,55,56
 1001 257.798 1001 257.798 985.91 202.633 c 0,57,58
 975.518 164.644 975.518 164.644 959.062 129.28 c 1,59,60
 975.68 92.3789 975.68 92.3789 986.154 51.4844 c 0,61,62
 1001 -6.47949 1001 -6.47949 1001 -78.7607 c 2,63,-1
 1001 -125.2 l 2,64,65
 1001 -216.117 1001 -216.117 966.817 -296.217 c 0,66,67
 933.338 -374.665 933.338 -374.665 877.003 -433.662 c 0,68,69
 820.602 -492.729 820.602 -492.729 746.243 -526.446 c 0,70,71
 671.27 -560.439 671.27 -560.439 588 -560.439 c 2,72,-1
 485 -560.439 l 2,73,74
 401.727 -560.439 401.727 -560.439 326.757 -526.446 c 0,75,76
 252.396 -492.727 252.396 -492.727 195.997 -433.662 c 0,77,78
 139.666 -374.67 139.666 -374.67 106.183 -296.217 c 0,79,80
 72 -216.123 72 -216.123 72 -125.2 c 2,81,-1
 72 -15.3613 l 1,82,-1
 303 23.3174 l 1,83,-1
 303 -125.2 l 2,84,85
 303 -164.744 303 -164.744 317.658 -198.436 c 0,86,87
 333.016 -233.736 333.016 -233.736 358.918 -260.016 c 0,88,89
 385.119 -286.597 385.119 -286.597 420 -302.186 c 0,90,91
 454.135 -317.439 454.135 -317.439 492 -317.439 c 2,92,-1
 582 -317.439 l 2,93,94
 619.757 -317.439 619.757 -317.439 653.307 -302.272 c 0,95,96
 687.804 -286.676 687.804 -286.676 714.082 -260.016 c 0,97,98
 739.983 -233.736 739.983 -233.736 755.342 -198.436 c 0,99,100
 770 -164.746 770 -164.746 770 -125.2 c 2,101,-1
 770 -78.7607 l 2,102,103
 770 -13.916 770 -13.916 748.111 26.0264 c 0,104,105
 724.553 69.0127 724.553 69.0127 685.235 99.5342 c 0,106,107
 642.347 132.825 642.347 132.825 587.694 156.241 c 0,108,109
 527.665 181.961 527.665 181.961 464.093 207.707 c 0,110,111
 397.988 234.479 397.988 234.479 335.455 266.852 c 0,112,113
 268.258 301.639 268.258 301.639 214.753 354.007 c 0,114,115
 159.03 408.544 159.03 408.544 125.673 486.809 c 0,116,117
 92 565.812 92 565.812 92 678.32 c 2,118,-1
 92 706.4 l 2,119,120
 92 769.396 92 769.396 107.564 826.671 c 0,121,122
 118.577 867.197 118.577 867.197 136.361 905.253 c 1,123,124
 118.349 942.244 118.349 942.244 107.368 984.85 c 0,125,126
 92 1044.47 92 1044.47 92 1120.04 c 2,127,-1
 92 1149.2 l 2,0,1
770 364.04 m 2,128,129
 770 424.712 770 424.712 750.566 463.807 c 0,130,131
 730.086 505.005 730.086 505.005 695.929 534.082 c 0,132,133
 658.737 565.743 658.737 565.743 609.962 588.25 c 0,134,135
 555.964 613.166 555.964 613.166 498.549 636.484 c 0,136,137
 439.154 660.607 439.154 660.607 379.799 687.456 c 0,138,139
 351.069 700.451 351.069 700.451 323.236 716.312 c 1,140,141
 323 711.169 323 711.169 323 706.4 c 2,142,-1
 323 678.32 l 2,143,144
 323 621.808 323 621.808 342.159 585.995 c 0,145,146
 363.166 546.729 363.166 546.729 397.778 517.704 c 0,147,148
 435.176 486.345 435.176 486.345 484.742 463.196 c 0,149,150
 539.513 437.614 539.513 437.614 598.235 412.568 c 0,151,152
 658.625 386.81 658.625 386.81 718.567 358.283 c 0,153,154
 745.007 345.699 745.007 345.699 770 330.789 c 1,155,-1
 770 364.04 l 2,128,129
EndSplineSet
EndChar

StartChar: dieresis
Encoding: 168 168 106
Width: 950
VWidth: 2107
Flags: HW
LayerCount: 2
Fore
SplineSet
154 1169.8 m 1,0,-1
 154 1445.2 l 1,1,-1
 409 1445.2 l 1,2,-1
 409 1169.8 l 1,3,-1
 154 1169.8 l 1,0,-1
541 1169.8 m 1,4,-1
 541 1445.2 l 1,5,-1
 796 1445.2 l 1,6,-1
 796 1169.8 l 1,7,-1
 541 1169.8 l 1,4,-1
EndSplineSet
EndChar

StartChar: copyright
Encoding: 169 169 107
Width: 1679
VWidth: 2154
Flags: HW
LayerCount: 2
Fore
SplineSet
51 717 m 0,0,1
 51 834.778 51 834.778 79.4131 943.625 c 0,2,3
 107.686 1051.93 107.686 1051.93 158.986 1146.58 c 0,4,5
 210.286 1241.23 210.286 1241.23 281.938 1318.62 c 0,6,7
 353.572 1396 353.572 1396 441.236 1451.41 c 0,8,9
 528.913 1506.84 528.913 1506.84 629.73 1537.38 c 0,10,11
 730.977 1568.04 730.977 1568.04 840 1568.04 c 0,12,13
 949.056 1568.04 949.056 1568.04 1049.84 1537.36 c 0,14,15
 1150.11 1506.83 1150.11 1506.83 1237.76 1451.41 c 0,16,17
 1325.41 1396.02 1325.41 1396.02 1397.06 1318.62 c 0,18,19
 1468.72 1241.24 1468.72 1241.24 1520.01 1146.58 c 0,20,21
 1571.31 1051.92 1571.31 1051.92 1599.59 943.625 c 0,22,23
 1628 834.787 1628 834.787 1628 717 c 0,24,25
 1628 599.258 1628 599.258 1599.61 489.908 c 0,26,27
 1571.31 380.954 1571.31 380.954 1519.94 286.747 c 0,28,29
 1468.71 192.79 1468.71 192.79 1397.2 114.978 c 0,30,31
 1325.42 36.8799 1325.42 36.8799 1237.56 -18.0811 c 0,32,33
 1150 -72.8594 1150 -72.8594 1049.84 -103.354 c 0,34,35
 949.047 -134.04 949.047 -134.04 840 -134.04 c 0,36,37
 730.981 -134.04 730.981 -134.04 629.73 -103.375 c 0,38,39
 529.014 -72.8701 529.014 -72.8701 441.438 -18.0811 c 0,40,41
 353.572 36.8887 353.572 36.8887 281.804 114.978 c 0,42,43
 210.297 192.781 210.297 192.781 159.055 286.747 c 0,44,45
 107.685 380.949 107.685 380.949 79.3945 489.908 c 0,46,47
 51 599.266 51 599.266 51 717 c 0,0,1
268 717 m 0,48,49
 268 586.554 268 586.554 312.065 472.536 c 0,50,51
 356.276 358.141 356.276 358.141 433.38 273.382 c 0,52,53
 510.451 188.658 510.451 188.658 614.888 139.468 c 0,54,55
 718.637 90.5996 718.637 90.5996 840 90.5996 c 0,56,57
 960.363 90.5996 960.363 90.5996 1064.11 139.468 c 0,58,59
 1168.56 188.662 1168.56 188.662 1245.62 273.382 c 0,60,61
 1322.74 358.16 1322.74 358.16 1366.94 472.536 c 0,62,63
 1411 586.57 1411 586.57 1411 717 c 0,64,65
 1411 847.43 1411 847.43 1366.94 961.464 c 0,66,67
 1322.74 1075.83 1322.74 1075.83 1245.62 1160.62 c 0,68,69
 1168.56 1245.34 1168.56 1245.34 1064.11 1294.53 c 0,70,71
 960.367 1343.4 960.367 1343.4 840 1343.4 c 0,72,73
 718.633 1343.4 718.633 1343.4 614.888 1294.53 c 0,74,75
 510.442 1245.34 510.442 1245.34 433.38 1160.62 c 0,76,77
 356.274 1075.85 356.274 1075.85 312.065 961.464 c 0,78,79
 268 847.446 268 847.446 268 717 c 0,48,49
1128.79 347.863 m 0,80,81
 1106.84 293.208 1106.84 293.208 1068.27 252.222 c 0,82,83
 1030 211.547 1030 211.547 979.794 188.028 c 0,84,85
 928.584 164.04 928.584 164.04 870 164.04 c 2,86,-1
 809 164.04 l 2,87,88
 750.416 164.04 750.416 164.04 699.206 188.028 c 0,89,90
 648.801 211.641 648.801 211.641 610.938 252.533 c 0,91,92
 573.071 293.429 573.071 293.429 551.212 347.863 c 0,93,94
 529 403.174 529 403.174 529 466.439 c 2,95,-1
 529 966.48 l 2,96,97
 529 1029.75 529 1029.75 551.212 1085.05 c 0,98,99
 572.983 1139.28 572.983 1139.28 610.65 1180.61 c 0,100,101
 648.6 1222.27 648.6 1222.27 699.206 1245.97 c 0,102,103
 750.412 1269.96 750.412 1269.96 809 1269.96 c 2,104,-1
 870 1269.96 l 2,105,106
 928.588 1269.96 928.588 1269.96 979.794 1245.97 c 0,107,108
 1030.2 1222.35 1030.2 1222.35 1068.56 1180.92 c 0,109,110
 1106.93 1139.5 1106.93 1139.5 1128.79 1085.05 c 0,111,112
 1151 1029.75 1151 1029.75 1151 966.48 c 2,113,-1
 1151 864.271 l 1,114,-1
 934 827.588 l 1,115,-1
 934 966.48 l 2,116,117
 934 981.854 934 981.854 928.851 994.439 c 0,118,119
 923.201 1008.25 923.201 1008.25 913.938 1018.25 c 0,120,121
 904.674 1028.26 904.674 1028.26 891.888 1034.36 c 0,122,123
 880.235 1039.92 880.235 1039.92 866 1039.92 c 2,124,-1
 813 1039.92 l 2,125,126
 799.542 1039.92 799.542 1039.92 787.218 1034.17 c 0,127,128
 774.169 1028.08 774.169 1028.08 765.062 1018.25 c 0,129,130
 755.799 1008.25 755.799 1008.25 750.149 994.439 c 0,131,132
 745 981.854 745 981.854 745 966.48 c 2,133,-1
 745 466.439 l 2,134,135
 745 452.146 745 452.146 750.149 439.561 c 0,136,137
 755.799 425.752 755.799 425.752 765.062 415.747 c 0,138,139
 774.169 405.911 774.169 405.911 787.218 399.826 c 0,140,141
 799.542 394.08 799.542 394.08 813 394.08 c 2,142,-1
 866 394.08 l 2,143,144
 880.235 394.08 880.235 394.08 891.888 399.641 c 0,145,146
 904.674 405.743 904.674 405.743 913.938 415.747 c 0,147,148
 923.201 425.752 923.201 425.752 928.851 439.561 c 0,149,150
 934 452.146 934 452.146 934 466.439 c 2,151,-1
 934 606.412 l 1,152,-1
 1151 569.729 l 1,153,-1
 1151 466.439 l 2,154,155
 1151 403.164 1151 403.164 1128.79 347.863 c 0,80,81
EndSplineSet
EndChar

StartChar: ordfeminine
Encoding: 170 170 108
Width: 717
VWidth: 2131
Flags: HW
LayerCount: 2
Fore
SplineSet
295 1234.56 m 1,0,1
 314.516 1237.8 314.516 1237.8 334 1237.8 c 2,2,-1
 428 1237.8 l 1,3,-1
 428 1275.6 l 2,4,5
 428 1285.89 428 1285.89 424.624 1294.4 c 0,6,7
 420.993 1303.55 420.993 1303.55 414.938 1310.1 c 0,8,9
 408.438 1317.12 408.438 1317.12 399.296 1321.63 c 0,10,11
 391.896 1325.28 391.896 1325.28 383 1325.28 c 2,12,-1
 340 1325.28 l 2,13,14
 331.104 1325.28 331.104 1325.28 323.704 1321.63 c 0,15,16
 314.562 1317.12 314.562 1317.12 308.062 1310.1 c 0,17,18
 302.007 1303.55 302.007 1303.55 298.376 1294.4 c 0,19,20
 295 1285.89 295 1285.89 295 1275.6 c 2,21,-1
 295 1234.56 l 1,0,1
197.303 1192.75 m 1,22,-1
 99 1219.86 l 1,23,-1
 99 1262.64 l 2,24,25
 99 1317.59 99 1317.59 117.193 1366.37 c 0,26,27
 135.296 1414.92 135.296 1414.92 167.422 1451.66 c 0,28,29
 199.748 1488.63 199.748 1488.63 243.796 1510.37 c 0,30,31
 288.894 1532.64 288.894 1532.64 340 1532.64 c 2,32,-1
 383 1532.64 l 2,33,34
 433.602 1532.64 433.602 1532.64 477.835 1511.87 c 0,35,36
 521.452 1491.4 521.452 1491.4 553.911 1455.65 c 0,37,38
 586.112 1420.19 586.112 1420.19 604.876 1372.9 c 0,39,40
 624 1324.71 624 1324.71 624 1271.28 c 2,41,-1
 624 723.72 l 1,42,-1
 504.989 723.72 l 1,43,-1
 485.283 755.053 l 1,44,45
 470.229 744.501 470.229 744.501 454.07 735.888 c 0,46,47
 404.9 709.68 404.9 709.68 352 709.68 c 2,48,-1
 334 709.68 l 2,49,50
 283.532 709.68 283.532 709.68 238.91 730.334 c 0,51,52
 194.413 750.93 194.413 750.93 161.751 787.589 c 0,53,54
 129.607 823.666 129.607 823.666 110.923 872.096 c 0,55,56
 92 921.145 92 921.145 92 977.52 c 0,57,58
 92 1032.18 92 1032.18 111.229 1079.95 c 0,59,60
 130.087 1126.79 130.087 1126.79 162.438 1161.73 c 0,61,62
 178.051 1178.59 178.051 1178.59 197.303 1192.75 c 1,22,-1
428 1044.48 m 1,63,-1
 334 1044.48 l 2,64,65
 315.124 1044.48 315.124 1044.48 302.062 1030.38 c 0,66,67
 289 1016.26 289 1016.26 289 994.8 c 2,68,-1
 289 966.72 l 2,69,70
 289 957.506 289 957.506 292.376 948.998 c 0,71,72
 296.204 939.353 296.204 939.353 302.736 932.025 c 0,73,74
 309.015 924.983 309.015 924.983 317.704 920.694 c 0,75,76
 325.104 917.04 325.104 917.04 334 917.04 c 2,77,-1
 383 917.04 l 2,78,79
 391.896 917.04 391.896 917.04 399.296 920.694 c 0,80,81
 407.985 924.983 407.985 924.983 414.264 932.025 c 0,82,83
 420.796 939.353 420.796 939.353 424.624 948.998 c 0,84,85
 428 957.506 428 957.506 428 966.72 c 2,86,-1
 428 1044.48 l 1,63,-1
92 656.761 m 1,87,-1
 624 656.761 l 1,88,-1
 624 462.36 l 1,89,-1
 92 462.36 l 1,90,-1
 92 656.761 l 1,87,-1
EndSplineSet
EndChar

StartChar: guillemotleft
Encoding: 171 171 109
Width: 961
VWidth: 2174
Flags: HW
LayerCount: 2
Fore
SplineSet
796.714 -24.8438 m 1,0,-1
 348.438 467 l 1,1,-1
 796.714 958.844 l 1,2,-1
 904.953 841.945 l 1,3,-1
 651.173 467 l 1,4,-1
 904.953 92.0547 l 1,5,-1
 796.714 -24.8438 l 1,0,-1
458.714 -24.8438 m 1,6,-1
 10.4375 467 l 1,7,-1
 458.714 958.844 l 1,8,-1
 566.953 841.945 l 1,9,-1
 313.173 467 l 1,10,-1
 566.953 92.0547 l 1,11,-1
 458.714 -24.8438 l 1,6,-1
EndSplineSet
EndChar

StartChar: logicalnot
Encoding: 172 172 110
Width: 1270
VWidth: 2167
Flags: HW
LayerCount: 2
Fore
SplineSet
1198 856 m 1,0,-1
 1198 235 l 1,1,-1
 967 235 l 1,2,-1
 967 606.52 l 1,3,-1
 72 606.52 l 1,4,-1
 72 856 l 1,5,-1
 1198 856 l 1,0,-1
EndSplineSet
EndChar

StartChar: registered
Encoding: 174 174 111
Width: 1679
VWidth: 2154
Flags: HW
LayerCount: 2
Fore
SplineSet
955 953.52 m 2,0,1
 955 968.055 955 968.055 949.679 981.364 c 0,2,3
 944.044 995.458 944.044 995.458 934.938 1005.29 c 0,4,5
 925.831 1015.13 925.831 1015.13 912.782 1021.21 c 0,6,7
 900.458 1026.96 900.458 1026.96 887 1026.96 c 2,8,-1
 766 1026.96 l 1,9,-1
 766 763.439 l 1,10,-1
 887 763.439 l 2,11,12
 900.458 763.439 900.458 763.439 912.782 769.187 c 0,13,14
 925.831 775.272 925.831 775.272 934.938 785.107 c 0,15,16
 944.044 794.942 944.044 794.942 949.679 809.035 c 0,17,18
 955 822.346 955 822.346 955 837.96 c 2,19,-1
 955 953.52 l 2,0,1
973.004 177 m 1,20,-1
 766 528.315 l 1,21,-1
 766 177 l 1,22,-1
 549 177 l 1,23,-1
 549 1255.92 l 1,24,-1
 891 1255.92 l 2,25,26
 949.588 1255.92 949.588 1255.92 1000.79 1231.93 c 0,27,28
 1051.2 1208.31 1051.2 1208.31 1089.06 1167.42 c 0,29,30
 1126.93 1126.54 1126.93 1126.54 1148.79 1072.09 c 0,31,32
 1171 1016.79 1171 1016.79 1171 953.52 c 2,33,-1
 1171 837.96 l 2,34,35
 1171 781.729 1171 781.729 1153.38 729.879 c 0,36,37
 1135.73 677.97 1135.73 677.97 1103.81 637.528 c 0,38,39
 1072.11 597.368 1072.11 597.368 1029 570.482 c 0,40,41
 1018.26 563.784 1018.26 563.784 1006.1 557.842 c 1,42,43
 1013.35 545.546 1013.35 545.546 1020.61 533.132 c 0,44,45
 1048.18 486.031 1048.18 486.031 1075.75 438.392 c 0,46,47
 1103.35 390.693 1103.35 390.693 1130.05 345.315 c 0,48,49
 1156.92 299.646 1156.92 299.646 1179.62 262.328 c 2,50,-1
 1200.16 228.581 l 1,51,52
 1223.97 249.579 1223.97 249.579 1245.62 273.382 c 0,53,54
 1322.74 358.16 1322.74 358.16 1366.94 472.536 c 0,55,56
 1411 586.57 1411 586.57 1411 717 c 0,57,58
 1411 847.43 1411 847.43 1366.94 961.464 c 0,59,60
 1322.74 1075.83 1322.74 1075.83 1245.62 1160.62 c 0,61,62
 1168.56 1245.34 1168.56 1245.34 1064.11 1294.53 c 0,63,64
 960.367 1343.4 960.367 1343.4 840 1343.4 c 0,65,66
 718.633 1343.4 718.633 1343.4 614.888 1294.53 c 0,67,68
 510.442 1245.34 510.442 1245.34 433.38 1160.62 c 0,69,70
 356.274 1075.85 356.274 1075.85 312.065 961.464 c 0,71,72
 268 847.446 268 847.446 268 717 c 0,73,74
 268 586.554 268 586.554 312.065 472.536 c 0,75,76
 356.276 358.141 356.276 358.141 433.38 273.382 c 0,77,78
 510.451 188.658 510.451 188.658 614.888 139.468 c 0,79,80
 718.637 90.5996 718.637 90.5996 840 90.5996 c 0,81,82
 960.363 90.5996 960.363 90.5996 1064.11 139.468 c 0,83,84
 1099.6 156.184 1099.6 156.184 1131.93 177 c 1,85,-1
 973.004 177 l 1,20,-1
51 717 m 0,86,87
 51 834.778 51 834.778 79.4131 943.625 c 0,88,89
 107.686 1051.93 107.686 1051.93 158.986 1146.58 c 0,90,91
 210.286 1241.23 210.286 1241.23 281.938 1318.62 c 0,92,93
 353.572 1396 353.572 1396 441.236 1451.41 c 0,94,95
 528.913 1506.84 528.913 1506.84 629.73 1537.38 c 0,96,97
 730.977 1568.04 730.977 1568.04 840 1568.04 c 0,98,99
 949.056 1568.04 949.056 1568.04 1049.84 1537.36 c 0,100,101
 1150.11 1506.83 1150.11 1506.83 1237.76 1451.41 c 0,102,103
 1325.41 1396.02 1325.41 1396.02 1397.06 1318.62 c 0,104,105
 1468.72 1241.24 1468.72 1241.24 1520.01 1146.58 c 0,106,107
 1571.31 1051.92 1571.31 1051.92 1599.59 943.625 c 0,108,109
 1628 834.787 1628 834.787 1628 717 c 0,110,111
 1628 599.258 1628 599.258 1599.61 489.908 c 0,112,113
 1571.31 380.954 1571.31 380.954 1519.94 286.747 c 0,114,115
 1468.71 192.79 1468.71 192.79 1397.2 114.978 c 0,116,117
 1325.42 36.8799 1325.42 36.8799 1237.56 -18.0811 c 0,118,119
 1150 -72.8594 1150 -72.8594 1049.84 -103.354 c 0,120,121
 949.047 -134.04 949.047 -134.04 840 -134.04 c 0,122,123
 730.981 -134.04 730.981 -134.04 629.73 -103.375 c 0,124,125
 529.014 -72.8701 529.014 -72.8701 441.438 -18.0811 c 0,126,127
 353.572 36.8887 353.572 36.8887 281.804 114.978 c 0,128,129
 210.297 192.781 210.297 192.781 159.055 286.747 c 0,130,131
 107.685 380.949 107.685 380.949 79.3945 489.908 c 0,132,133
 51 599.266 51 599.266 51 717 c 0,86,87
EndSplineSet
EndChar

StartChar: macron
Encoding: 175 175 112
Width: 1010
VWidth: 2108
Flags: HW
LayerCount: 2
Fore
SplineSet
154 1388 m 1,0,-1
 856 1388 l 1,1,-1
 856 1172 l 1,2,-1
 154 1172 l 1,3,-1
 154 1388 l 1,0,-1
EndSplineSet
EndChar

StartChar: degree
Encoding: 176 176 113
Width: 856
VWidth: 2117
Flags: HW
LayerCount: 2
Fore
SplineSet
92 1168.96 m 0,0,1
 92 1244.08 92 1244.08 118.694 1310.71 c 0,2,3
 145.057 1376.51 145.057 1376.51 190.438 1425.53 c 0,4,5
 235.814 1474.54 235.814 1474.54 296.747 1503.01 c 0,6,7
 358.441 1531.84 358.441 1531.84 428 1531.84 c 0,8,9
 497.557 1531.84 497.557 1531.84 559.253 1503.01 c 0,10,11
 620.186 1474.54 620.186 1474.54 665.562 1425.53 c 0,12,13
 710.945 1376.51 710.945 1376.51 737.306 1310.71 c 0,14,15
 764 1244.08 764 1244.08 764 1168.96 c 0,16,17
 764 1093.74 764 1093.74 737.234 1027.57 c 0,18,19
 710.88 962.416 710.88 962.416 665.562 913.473 c 0,20,21
 620.18 864.46 620.18 864.46 559.253 835.989 c 0,22,23
 497.557 807.16 497.557 807.16 428 807.16 c 0,24,25
 358.441 807.16 358.441 807.16 296.747 835.989 c 0,26,27
 235.82 864.461 235.82 864.461 190.438 913.473 c 0,28,29
 145.123 962.411 145.123 962.411 118.766 1027.57 c 0,30,31
 92 1093.74 92 1093.74 92 1168.96 c 0,0,1
309 1168.96 m 0,32,33
 309 1142.47 309 1142.47 318.376 1118.84 c 0,34,35
 328.118 1094.29 328.118 1094.29 344.448 1076.26 c 0,36,37
 360.484 1058.57 360.484 1058.57 382.363 1048.28 c 0,38,39
 403.622 1038.28 403.622 1038.28 428 1038.28 c 0,40,41
 452.375 1038.28 452.375 1038.28 473.637 1048.28 c 0,42,43
 495.516 1058.57 495.516 1058.57 511.552 1076.26 c 0,44,45
 527.882 1094.29 527.882 1094.29 537.624 1118.84 c 0,46,47
 547 1142.47 547 1142.47 547 1168.96 c 0,48,49
 547 1196.37 547 1196.37 537.741 1219.33 c 0,50,51
 527.989 1243.51 527.989 1243.51 511.552 1261.66 c 0,52,53
 495.516 1279.35 495.516 1279.35 473.637 1289.64 c 0,54,55
 452.378 1299.64 452.378 1299.64 428 1299.64 c 0,56,57
 403.625 1299.64 403.625 1299.64 382.363 1289.64 c 0,58,59
 360.484 1279.35 360.484 1279.35 344.448 1261.66 c 0,60,61
 328.01 1243.51 328.01 1243.51 318.259 1219.33 c 0,62,63
 309 1196.37 309 1196.37 309 1168.96 c 0,32,33
EndSplineSet
EndChar

StartChar: plusminus
Encoding: 177 177 114
Width: 1188
VWidth: 2159
Flags: HW
LayerCount: 2
Fore
SplineSet
477 224.28 m 1,0,-1
 477 597.96 l 1,1,-1
 31 597.96 l 1,2,-1
 31 847.439 l 1,3,-1
 477 847.439 l 1,4,-1
 477 1330.2 l 1,5,-1
 708 1330.2 l 1,6,-1
 708 847.439 l 1,7,-1
 1157 847.439 l 1,8,-1
 1157 597.96 l 1,9,-1
 708 597.96 l 1,10,-1
 708 224.28 l 1,11,-1
 1157 224.28 l 1,12,-1
 1157 -25.2002 l 1,13,-1
 31 -25.2002 l 1,14,-1
 31 224.28 l 1,15,-1
 477 224.28 l 1,0,-1
EndSplineSet
EndChar

StartChar: twosuperior
Encoding: 178 178 115
Width: 692
VWidth: 2123
Flags: HW
LayerCount: 2
Fore
SplineSet
340 1311.12 m 2,0,1
 326.124 1311.12 326.124 1311.12 316.562 1300.79 c 0,2,3
 307 1290.46 307 1290.46 307 1275.48 c 2,4,-1
 307 1160.77 l 1,5,-1
 107 1189.43 l 1,6,-1
 107 1275.48 l 2,7,8
 107 1328.25 107 1328.25 125.925 1374.06 c 0,9,10
 144.159 1418.2 144.159 1418.2 174.568 1451.73 c 0,11,12
 205.597 1485.93 205.597 1485.93 247.323 1505.35 c 0,13,14
 289.482 1524.96 289.482 1524.96 336 1524.96 c 2,15,-1
 365 1524.96 l 2,16,17
 413.178 1524.96 413.178 1524.96 455.064 1506.17 c 0,18,19
 497.166 1487.28 497.166 1487.28 528.432 1452.8 c 0,20,21
 559.796 1418.22 559.796 1418.22 577.083 1369.82 c 0,22,23
 594 1322.45 594 1322.45 594 1265.76 c 0,24,25
 594 1222.52 594 1222.52 582.09 1176.84 c 0,26,27
 570.943 1134.11 570.943 1134.11 552.631 1092.15 c 0,28,29
 534.904 1051.54 534.904 1051.54 512.391 1012.18 c 0,30,31
 490.321 973.586 490.321 973.586 467.145 939.455 c 0,32,33
 446.059 908.362 446.059 908.362 422.296 876.96 c 1,34,-1
 600 876.96 l 1,35,-1
 600 662.04 l 1,36,-1
 92 662.04 l 1,37,-1
 92 827.592 l 1,38,-1
 110.857 844.123 l 2,39,40
 192.799 915.963 192.799 915.963 256.153 991.64 c 0,41,42
 282.701 1023.39 282.701 1023.39 308.407 1059.88 c 0,43,44
 333.327 1095.27 333.327 1095.27 352.646 1132.02 c 0,45,46
 371.288 1167.5 371.288 1167.5 382.746 1203.67 c 0,47,48
 393 1236.04 393 1236.04 393 1265.76 c 0,49,50
 393 1292.68 393 1292.68 384.594 1301.21 c 0,51,52
 374.812 1311.12 374.812 1311.12 362 1311.12 c 2,53,-1
 340 1311.12 l 2,0,1
EndSplineSet
EndChar

StartChar: threesuperior
Encoding: 179 179 116
Width: 672
VWidth: 2124
Flags: HW
LayerCount: 2
Fore
SplineSet
232 1169.88 m 1,0,-1
 92 1192.8 l 1,1,-1
 92 1277.96 l 2,2,3
 92 1328.2 92 1328.2 110.161 1373.73 c 0,4,5
 128.024 1418.52 128.024 1418.52 158.938 1451.9 c 0,6,7
 189.601 1485.03 189.601 1485.03 230.72 1504.84 c 0,8,9
 273.136 1525.28 273.136 1525.28 322 1525.28 c 2,10,-1
 350 1525.28 l 2,11,12
 398.864 1525.28 398.864 1525.28 441.28 1504.84 c 0,13,14
 482.4 1485.03 482.4 1485.03 513.062 1451.9 c 0,15,16
 544.218 1418.25 544.218 1418.25 561.598 1373.06 c 0,17,18
 579 1327.82 579 1327.82 579 1277.96 c 2,19,-1
 579 1253.12 l 2,20,21
 579 1161.81 579 1161.81 532.936 1098.46 c 1,22,23
 545.273 1079.77 545.273 1079.77 555.116 1058.51 c 0,24,25
 579 1006.92 579 1006.92 579 950.72 c 2,26,-1
 579 901.04 l 2,27,28
 579 851.177 579 851.177 561.598 805.931 c 0,29,30
 544.218 760.74 544.218 760.74 513.062 727.093 c 0,31,32
 482.395 693.972 482.395 693.972 441.28 674.159 c 0,33,34
 398.863 653.72 398.863 653.72 350 653.72 c 2,35,-1
 322 653.72 l 2,36,37
 273.136 653.72 273.136 653.72 230.72 674.159 c 0,38,39
 189.606 693.972 189.606 693.972 158.938 727.093 c 0,40,41
 128.028 760.474 128.028 760.474 110.161 805.269 c 0,42,43
 92 850.801 92 850.801 92 901.04 c 2,44,-1
 92 986.203 l 1,45,-1
 232 1009.12 l 1,46,-1
 232 1169.88 l 1,0,-1
293 995 m 1,47,-1
 293 901.04 l 2,48,49
 293 887.811 293 887.811 301.803 878.69 c 0,50,51
 311.506 868.64 311.506 868.64 326 868.64 c 2,52,-1
 346 868.64 l 2,53,54
 360.494 868.64 360.494 868.64 370.197 878.69 c 0,55,56
 379 887.811 379 887.811 379 901.04 c 2,57,-1
 379 959.36 l 2,58,59
 379 974.345 379 974.345 369.438 984.673 c 0,60,61
 359.875 995 359.875 995 346 995 c 2,62,-1
 293 995 l 1,47,-1
293 1208.84 m 1,63,-1
 346 1208.84 l 2,64,65
 353.425 1208.84 353.425 1208.84 358.722 1211.32 c 0,66,67
 365.344 1214.41 365.344 1214.41 370.248 1219.48 c 0,68,69
 374.301 1223.67 374.301 1223.67 376.705 1229.66 c 0,70,71
 379 1235.39 379 1235.39 379 1242.32 c 2,72,-1
 379 1277.96 l 2,73,74
 379 1284.89 379 1284.89 376.705 1290.62 c 0,75,76
 374.302 1296.61 374.302 1296.61 370.248 1300.8 c 0,77,78
 365.344 1305.87 365.344 1305.87 358.722 1308.96 c 0,79,80
 353.425 1311.44 353.425 1311.44 346 1311.44 c 2,81,-1
 326 1311.44 l 2,82,83
 318.575 1311.44 318.575 1311.44 313.278 1308.96 c 0,84,85
 306.656 1305.87 306.656 1305.87 301.752 1300.8 c 0,86,87
 297.699 1296.61 297.699 1296.61 295.295 1290.62 c 0,88,89
 293 1284.89 293 1284.89 293 1277.96 c 2,90,-1
 293 1208.84 l 1,63,-1
EndSplineSet
EndChar

StartChar: acute
Encoding: 180 180 117
Width: 778
VWidth: 2106
Flags: HW
LayerCount: 2
Fore
SplineSet
316.429 1123.08 m 1,0,-1
 109.706 1123.08 l 1,1,-1
 341.706 1498.92 l 1,2,-1
 706.868 1498.92 l 1,3,-1
 316.429 1123.08 l 1,0,-1
EndSplineSet
EndChar

StartChar: mu
Encoding: 181 181 118
Width: 930
VWidth: 2182
Flags: HW
LayerCount: 2
Fore
SplineSet
72 1131.84 m 1,0,-1
 297 1131.84 l 1,1,-1
 297 266.761 l 2,2,3
 297 238.158 297 238.158 306.839 213.491 c 0,4,5
 316.973 188.084 316.973 188.084 334.062 169.627 c 0,6,7
 351.151 151.171 351.151 151.171 374.677 140.226 c 0,8,9
 397.518 129.6 397.518 129.6 424 129.6 c 2,10,-1
 506 129.6 l 2,11,12
 532.483 129.6 532.483 129.6 555.323 140.226 c 0,13,14
 570.778 147.416 570.778 147.416 583.384 157.78 c 0,15,16
 590.023 163.24 590.023 163.24 595.938 169.627 c 0,17,18
 613.027 188.084 613.027 188.084 623.161 213.491 c 0,19,20
 633 238.158 633 238.158 633 266.761 c 2,21,-1
 633 1131.84 l 1,22,-1
 858 1131.84 l 1,23,-1
 858 -84.2393 l 1,24,-1
 738.412 -84.2393 l 1,25,-1
 691.457 -6.68164 l 1,26,27
 657.899 -39.6924 657.899 -39.6924 616.944 -63.2119 c 0,28,29
 542.717 -105.84 542.717 -105.84 455 -105.84 c 2,30,-1
 424 -105.84 l 2,31,32
 364.463 -105.84 364.463 -105.84 311.391 -86.0977 c 0,33,34
 304.634 -83.584 304.634 -83.584 297 -80.375 c 1,35,-1
 297 -402.84 l 1,36,-1
 72 -402.84 l 1,37,-1
 72 1131.84 l 1,0,-1
EndSplineSet
EndChar

StartChar: paragraph
Encoding: 182 182 119
Width: 1155
VWidth: 2170
Flags: HW
LayerCount: 2
Fore
SplineSet
737 -538.84 m 1,0,-1
 506 -538.84 l 1,1,-1
 506 587.6 l 1,2,-1
 455 587.6 l 2,3,4
 371.58 587.6 371.58 587.6 297.498 621.713 c 0,5,6
 223.918 655.595 223.918 655.595 168.938 714.973 c 0,7,8
 114.011 774.291 114.011 774.291 82.6426 853.135 c 0,9,10
 51 932.666 51 932.666 51 1022.84 c 2,11,-1
 51 1126.52 l 2,12,13
 51 1216.61 51 1216.61 82.5859 1296.62 c 0,14,15
 113.952 1376.08 113.952 1376.08 168.938 1435.46 c 0,16,17
 223.91 1494.84 223.91 1494.84 297.498 1528.72 c 0,18,19
 371.58 1562.84 371.58 1562.84 455 1562.84 c 2,20,-1
 1042 1562.84 l 1,21,-1
 1042 -538.84 l 1,22,-1
 811 -538.84 l 1,23,-1
 811 1319.84 l 1,24,-1
 737 1319.84 l 1,25,-1
 737 -538.84 l 1,0,-1
EndSplineSet
EndChar

StartChar: periodcentered
Encoding: 183 183 120
Width: 440
VWidth: 2153
Flags: HW
LayerCount: 2
Fore
SplineSet
92 593.761 m 1,0,-1
 92 870.239 l 1,1,-1
 348 870.239 l 1,2,-1
 348 593.761 l 1,3,-1
 92 593.761 l 1,0,-1
EndSplineSet
EndChar

StartChar: cedilla
Encoding: 184 184 121
Width: 741
VWidth: 2227
Flags: HW
LayerCount: 2
Fore
SplineSet
260.448 -206.511 m 1,0,-1
 291.179 -246.339 l 2,1,2
 293.736 -249.651 293.736 -249.651 299.883 -255.553 c 0,3,4
 304.126 -259.627 304.126 -259.627 311.976 -264.022 c 0,5,6
 321.296 -269.242 321.296 -269.242 333.29 -273.168 c 0,7,8
 342.558 -276.2 342.558 -276.2 354 -276.2 c 0,9,10
 372.703 -276.2 372.703 -276.2 384.079 -266.083 c 0,11,12
 391 -259.926 391 -259.926 391 -244.88 c 0,13,14
 391 -232.603 391 -232.603 387.396 -225.229 c 0,15,16
 383.424 -217.102 383.424 -217.102 376.503 -211.665 c 0,17,18
 368.257 -205.188 368.257 -205.188 357.188 -202.342 c 0,19,20
 344.115 -198.981 344.115 -198.981 328.235 -200.41 c 2,21,-1
 260.448 -206.511 l 1,0,-1
235.103 -208.791 m 1,22,-1
 227.87 -209.442 l 1,23,-1
 387.452 71.5605 l 1,24,-1
 591.169 71.5605 l 1,25,-1
 510.811 -75.9775 l 1,26,27
 524.423 -88.2227 524.423 -88.2227 537.146 -104.179 c 0,28,29
 557.332 -129.495 557.332 -129.495 571.833 -163.542 c 0,30,31
 588 -201.498 588 -201.498 588 -249.2 c 0,32,33
 588 -302.097 588 -302.097 569.48 -346.391 c 0,34,35
 550.938 -390.736 550.938 -390.736 518.139 -421.82 c 0,36,37
 485.983 -452.294 485.983 -452.294 442.341 -468.235 c 0,38,39
 400.391 -483.561 400.391 -483.561 352 -483.561 c 0,40,41
 295.405 -483.561 295.405 -483.561 248.451 -459.246 c 0,42,43
 204.097 -436.278 204.097 -436.278 168.938 -398.308 c 2,44,-1
 139.664 -366.692 l 1,45,-1
 235.103 -208.791 l 1,22,-1
EndSplineSet
EndChar

StartChar: onesuperior
Encoding: 185 185 122
Width: 694
VWidth: 2124
Flags: HW
LayerCount: 2
Fore
SplineSet
92 662.36 m 1,0,-1
 92 877.28 l 1,1,-1
 248 877.28 l 1,2,-1
 248 1263.38 l 1,3,-1
 92 1193.18 l 1,4,-1
 92 1420.62 l 1,5,-1
 306.865 1516.64 l 1,6,-1
 448 1516.64 l 1,7,-1
 448 877.28 l 1,8,-1
 602 877.28 l 1,9,-1
 602 662.36 l 1,10,-1
 92 662.36 l 1,0,-1
EndSplineSet
EndChar

StartChar: ordmasculine
Encoding: 186 186 123
Width: 717
VWidth: 2131
Flags: HW
LayerCount: 2
Fore
SplineSet
604.876 869.423 m 0,0,1
 586.108 822.127 586.108 822.127 553.911 786.672 c 0,2,3
 521.452 750.93 521.452 750.93 477.835 730.447 c 0,4,5
 433.609 709.68 433.609 709.68 383 709.68 c 2,6,-1
 334 709.68 l 2,7,8
 283.532 709.68 283.532 709.68 238.91 730.334 c 0,9,10
 194.647 750.821 194.647 750.821 162.089 786.672 c 0,11,12
 129.893 822.127 129.893 822.127 111.124 869.423 c 0,13,14
 92 917.613 92 917.613 92 971.04 c 2,15,-1
 92 1271.28 l 2,16,17
 92 1324.71 92 1324.71 111.124 1372.9 c 0,18,19
 129.888 1420.19 129.888 1420.19 162.089 1455.65 c 0,20,21
 194.642 1491.49 194.642 1491.49 238.91 1511.99 c 0,22,23
 283.532 1532.64 283.532 1532.64 334 1532.64 c 2,24,-1
 383 1532.64 l 2,25,26
 433.602 1532.64 433.602 1532.64 477.835 1511.87 c 0,27,28
 521.452 1491.4 521.452 1491.4 553.911 1455.65 c 0,29,30
 586.112 1420.19 586.112 1420.19 604.876 1372.9 c 0,31,32
 624 1324.71 624 1324.71 624 1271.28 c 2,33,-1
 624 971.04 l 2,34,35
 624 917.613 624 917.613 604.876 869.423 c 0,0,1
428 1275.6 m 2,36,37
 428 1285.89 428 1285.89 424.624 1294.4 c 0,38,39
 420.993 1303.55 420.993 1303.55 414.938 1310.1 c 0,40,41
 408.438 1317.12 408.438 1317.12 399.296 1321.63 c 0,42,43
 391.896 1325.28 391.896 1325.28 383 1325.28 c 2,44,-1
 334 1325.28 l 2,45,46
 325.104 1325.28 325.104 1325.28 317.704 1321.63 c 0,47,48
 308.562 1317.12 308.562 1317.12 302.062 1310.1 c 0,49,50
 296.007 1303.55 296.007 1303.55 292.376 1294.4 c 0,51,52
 289 1285.89 289 1285.89 289 1275.6 c 2,53,-1
 289 966.72 l 2,54,55
 289 957.506 289 957.506 292.376 948.998 c 0,56,57
 296.204 939.353 296.204 939.353 302.736 932.025 c 0,58,59
 309.015 924.983 309.015 924.983 317.704 920.694 c 0,60,61
 325.104 917.04 325.104 917.04 334 917.04 c 2,62,-1
 383 917.04 l 2,63,64
 391.896 917.04 391.896 917.04 399.296 920.694 c 0,65,66
 407.985 924.983 407.985 924.983 414.264 932.025 c 0,67,68
 420.796 939.353 420.796 939.353 424.624 948.998 c 0,69,70
 428 957.506 428 957.506 428 966.72 c 2,71,-1
 428 1275.6 l 2,36,37
92 656.761 m 1,72,-1
 624 656.761 l 1,73,-1
 624 462.36 l 1,74,-1
 92 462.36 l 1,75,-1
 92 656.761 l 1,72,-1
EndSplineSet
EndChar

StartChar: guillemotright
Encoding: 187 187 124
Width: 961
VWidth: 2174
Flags: HW
LayerCount: 2
Fore
SplineSet
56.0469 92.0547 m 1,0,-1
 309.827 467 l 1,1,-1
 56.0469 841.945 l 1,2,-1
 164.286 958.844 l 1,3,-1
 612.562 467 l 1,4,-1
 164.286 -24.8438 l 1,5,-1
 56.0469 92.0547 l 1,0,-1
394.047 92.0547 m 1,6,-1
 647.827 467 l 1,7,-1
 394.047 841.945 l 1,8,-1
 502.286 958.844 l 1,9,-1
 950.562 467 l 1,10,-1
 502.286 -24.8438 l 1,11,-1
 394.047 92.0547 l 1,6,-1
EndSplineSet
EndChar

StartChar: onequarter
Encoding: 188 188 125
Width: 1364
VWidth: 2154
Flags: HW
LayerCount: 2
Fore
SplineSet
1216 16.0801 m 1,0,-1
 1216 -112.439 l 1,1,-1
 1024 -112.439 l 1,2,-1
 1024 16.0801 l 1,3,-1
 764 16.0801 l 1,4,-1
 764 136.369 l 1,5,-1
 1078.2 738.6 l 1,6,-1
 1216 738.6 l 1,7,-1
 1216 221.28 l 1,8,-1
 1272 221.28 l 1,9,-1
 1272 16.0801 l 1,10,-1
 1216 16.0801 l 1,0,-1
199.247 -112.439 m 1,11,-1
 1074.36 1546.44 l 1,12,-1
 1306.81 1546.44 l 1,13,-1
 430.622 -112.439 l 1,14,-1
 199.247 -112.439 l 1,11,-1
92 692.16 m 1,15,-1
 92 907.08 l 1,16,-1
 248 907.08 l 1,17,-1
 248 1293.18 l 1,18,-1
 92 1222.98 l 1,19,-1
 92 1450.42 l 1,20,-1
 306.865 1546.44 l 1,21,-1
 448 1546.44 l 1,22,-1
 448 907.08 l 1,23,-1
 602 907.08 l 1,24,-1
 602 692.16 l 1,25,-1
 92 692.16 l 1,15,-1
EndSplineSet
EndChar

StartChar: onehalf
Encoding: 189 189 126
Width: 1448
VWidth: 2154
Flags: HW
LayerCount: 2
Fore
SplineSet
92 692.16 m 1,0,-1
 92 907.08 l 1,1,-1
 248 907.08 l 1,2,-1
 248 1293.18 l 1,3,-1
 92 1222.98 l 1,4,-1
 92 1450.42 l 1,5,-1
 306.865 1546.44 l 1,6,-1
 448 1546.44 l 1,7,-1
 448 907.08 l 1,8,-1
 602 907.08 l 1,9,-1
 602 692.16 l 1,10,-1
 92 692.16 l 1,0,-1
1096 535.561 m 2,11,12
 1082.13 535.561 1082.13 535.561 1072.56 525.233 c 0,13,14
 1063 514.906 1063 514.906 1063 499.92 c 2,15,-1
 1063 387.001 l 1,16,-1
 862 413.313 l 1,17,-1
 862 499.92 l 2,18,19
 862 552.693 862 552.693 880.925 598.502 c 0,20,21
 899.271 642.907 899.271 642.907 930.438 676.566 c 0,22,23
 961.847 710.49 961.847 710.49 1003.32 729.786 c 0,24,25
 1045.48 749.4 1045.48 749.4 1092 749.4 c 2,26,-1
 1120 749.4 l 2,27,28
 1167.82 749.4 1167.82 749.4 1209.44 731.42 c 0,29,30
 1251.91 713.072 1251.91 713.072 1283.43 678.324 c 0,31,32
 1314.79 643.749 1314.79 643.749 1332.08 595.341 c 0,33,34
 1349 547.975 1349 547.975 1349 491.28 c 0,35,36
 1349 448.034 1349 448.034 1337.09 402.365 c 0,37,38
 1325.98 359.761 1325.98 359.761 1307.75 317.404 c 0,39,40
 1290.09 276.366 1290.09 276.366 1268.18 237.119 c 0,41,42
 1246.5 198.289 1246.5 198.289 1223.27 164.08 c 0,43,44
 1202.35 132.626 1202.35 132.626 1178.77 101.4 c 1,45,-1
 1356 101.4 l 1,46,-1
 1356 -112.439 l 1,47,-1
 848 -112.439 l 1,48,-1
 848 53.1113 l 1,49,-1
 866.857 69.6436 l 2,50,51
 948.81 141.495 948.81 141.495 1012.15 217.16 c 0,52,53
 1038.72 248.922 1038.72 248.922 1064.41 285.404 c 0,54,55
 1089.33 320.8 1089.33 320.8 1108.65 357.548 c 0,56,57
 1127.28 393.01 1127.28 393.01 1138.75 429.189 c 0,58,59
 1149 461.557 1149 461.557 1149 491.28 c 0,60,61
 1149 516.789 1149 516.789 1140.47 525.266 c 0,62,63
 1130.11 535.561 1130.11 535.561 1118 535.561 c 2,64,-1
 1096 535.561 l 2,11,12
199.247 -112.439 m 1,65,-1
 1074.36 1546.44 l 1,66,-1
 1306.81 1546.44 l 1,67,-1
 430.622 -112.439 l 1,68,-1
 199.247 -112.439 l 1,65,-1
EndSplineSet
EndChar

StartChar: threequarters
Encoding: 190 190 127
Width: 1364
VWidth: 2153
Flags: HW
LayerCount: 2
Fore
SplineSet
232 1199.36 m 1,0,-1
 92 1222.28 l 1,1,-1
 92 1307.44 l 2,2,3
 92 1357.68 92 1357.68 110.161 1403.21 c 0,4,5
 128.024 1448 128.024 1448 158.938 1481.38 c 0,6,7
 189.601 1514.51 189.601 1514.51 230.72 1534.32 c 0,8,9
 273.136 1554.76 273.136 1554.76 322 1554.76 c 2,10,-1
 350 1554.76 l 2,11,12
 398.864 1554.76 398.864 1554.76 441.28 1534.32 c 0,13,14
 482.4 1514.51 482.4 1514.51 513.062 1481.38 c 0,15,16
 544.218 1447.73 544.218 1447.73 561.598 1402.54 c 0,17,18
 579 1357.3 579 1357.3 579 1307.44 c 2,19,-1
 579 1282.6 l 2,20,21
 579 1191.29 579 1191.29 532.936 1127.94 c 1,22,23
 545.273 1109.25 545.273 1109.25 555.116 1088 c 0,24,25
 579 1036.4 579 1036.4 579 980.2 c 2,26,-1
 579 930.52 l 2,27,28
 579 880.657 579 880.657 561.598 835.411 c 0,29,30
 544.218 790.221 544.218 790.221 513.062 756.573 c 0,31,32
 482.395 723.451 482.395 723.451 441.28 703.639 c 0,33,34
 398.863 683.2 398.863 683.2 350 683.2 c 2,35,-1
 322 683.2 l 2,36,37
 273.136 683.2 273.136 683.2 230.72 703.639 c 0,38,39
 189.606 723.451 189.606 723.451 158.938 756.573 c 0,40,41
 128.028 789.954 128.028 789.954 110.161 834.749 c 0,42,43
 92 880.28 92 880.28 92 930.52 c 2,44,-1
 92 1015.68 l 1,45,-1
 232 1038.6 l 1,46,-1
 232 1199.36 l 1,0,-1
293 1024.48 m 1,47,-1
 293 930.52 l 2,48,49
 293 917.29 293 917.29 301.803 908.17 c 0,50,51
 311.506 898.12 311.506 898.12 326 898.12 c 2,52,-1
 346 898.12 l 2,53,54
 360.494 898.12 360.494 898.12 370.197 908.17 c 0,55,56
 379 917.29 379 917.29 379 930.52 c 2,57,-1
 379 988.84 l 2,58,59
 379 1003.83 379 1003.83 369.438 1014.15 c 0,60,61
 359.875 1024.48 359.875 1024.48 346 1024.48 c 2,62,-1
 293 1024.48 l 1,47,-1
293 1238.32 m 1,63,-1
 346 1238.32 l 2,64,65
 353.425 1238.32 353.425 1238.32 358.722 1240.8 c 0,66,67
 365.344 1243.89 365.344 1243.89 370.248 1248.96 c 0,68,69
 374.301 1253.15 374.301 1253.15 376.705 1259.14 c 0,70,71
 379 1264.87 379 1264.87 379 1271.8 c 2,72,-1
 379 1307.44 l 2,73,74
 379 1314.37 379 1314.37 376.705 1320.1 c 0,75,76
 374.302 1326.09 374.302 1326.09 370.248 1330.28 c 0,77,78
 365.344 1335.35 365.344 1335.35 358.722 1338.44 c 0,79,80
 353.425 1340.92 353.425 1340.92 346 1340.92 c 2,81,-1
 326 1340.92 l 2,82,83
 318.575 1340.92 318.575 1340.92 313.278 1338.44 c 0,84,85
 306.656 1335.35 306.656 1335.35 301.752 1330.28 c 0,86,87
 297.699 1326.09 297.699 1326.09 295.295 1320.1 c 0,88,89
 293 1314.37 293 1314.37 293 1307.44 c 2,90,-1
 293 1238.32 l 1,63,-1
1216 15.7607 m 1,91,-1
 1216 -112.761 l 1,92,-1
 1024 -112.761 l 1,93,-1
 1024 15.7607 l 1,94,-1
 764 15.7607 l 1,95,-1
 764 136.049 l 1,96,-1
 1078.2 738.28 l 1,97,-1
 1216 738.28 l 1,98,-1
 1216 220.96 l 1,99,-1
 1272 220.96 l 1,100,-1
 1272 15.7607 l 1,101,-1
 1216 15.7607 l 1,91,-1
199.247 -112.761 m 1,102,-1
 1074.36 1546.12 l 1,103,-1
 1306.81 1546.12 l 1,104,-1
 430.622 -112.761 l 1,105,-1
 199.247 -112.761 l 1,102,-1
EndSplineSet
EndChar

StartChar: questiondown
Encoding: 191 191 128
Width: 950
VWidth: 2187
Flags: HW
LayerCount: 2
Fore
SplineSet
669 1137.24 m 1,0,-1
 669 860.761 l 1,1,-1
 414 860.761 l 1,2,-1
 414 1137.24 l 1,3,-1
 669 1137.24 l 1,0,-1
426 668.52 m 1,4,-1
 657 668.52 l 1,5,-1
 657 571.32 l 2,6,7
 657 491.27 657 491.27 638.481 430.022 c 0,8,9
 620.037 369.026 620.037 369.026 588.963 322.168 c 0,10,11
 558.947 276.906 558.947 276.906 520.88 241.316 c 0,12,13
 485.986 208.692 485.986 208.692 449.008 178.881 c 0,14,15
 414.267 150.874 414.267 150.874 381.505 122.355 c 0,16,17
 352.306 96.9395 352.306 96.9395 329.265 65.9521 c 0,18,19
 307.797 37.0791 307.797 37.0791 294.659 -0.167969 c 0,20,21
 282 -36.0566 282 -36.0566 282 -87.4805 c 2,22,-1
 282 -108 l 2,23,24
 282 -148.409 282 -148.409 295.788 -182.742 c 0,25,26
 309.842 -217.735 309.842 -217.735 334.273 -243.702 c 0,27,28
 359.004 -269.989 359.004 -269.989 391.794 -285.35 c 0,29,30
 423.584 -300.239 423.584 -300.239 461 -300.239 c 2,31,-1
 489 -300.239 l 2,32,33
 526.416 -300.239 526.416 -300.239 558.206 -285.35 c 0,34,35
 590.994 -269.989 590.994 -269.989 615.727 -243.702 c 0,36,37
 640.159 -217.735 640.159 -217.735 654.212 -182.742 c 0,38,39
 668 -148.407 668 -148.407 668 -108 c 2,40,-1
 668 19.4111 l 1,41,-1
 899 -21.2021 l 1,42,-1
 899 -108 l 2,43,44
 899 -198.171 899 -198.171 867.357 -277.704 c 0,45,46
 835.992 -356.543 835.992 -356.543 781.062 -415.867 c 0,47,48
 726.134 -475.19 726.134 -475.19 653.134 -509.066 c 0,49,50
 579.492 -543.239 579.492 -543.239 496 -543.239 c 2,51,-1
 455 -543.239 l 2,52,53
 371.58 -543.239 371.58 -543.239 297.498 -509.128 c 0,54,55
 223.918 -475.246 223.918 -475.246 168.938 -415.867 c 0,56,57
 114.01 -356.547 114.01 -356.547 82.6426 -277.704 c 0,58,59
 51 -198.171 51 -198.171 51 -108 c 2,60,-1
 51 -87.4805 l 2,61,62
 51 -4.67871 51 -4.67871 69.2549 59.3984 c 0,63,64
 87.4189 123.153 87.4189 123.153 117.984 172.98 c 0,65,66
 147.865 221.692 147.865 221.692 185.861 259.667 c 0,67,68
 221.165 294.95 221.165 294.95 258.626 325.72 c 0,69,70
 293.938 354.726 293.938 354.726 327.231 382.632 c 0,71,72
 356.619 407.267 356.619 407.267 379.734 436.47 c 0,73,74
 401.076 463.434 401.076 463.434 413.997 496.574 c 0,75,76
 426 527.363 426 527.363 426 571.32 c 2,77,-1
 426 668.52 l 1,4,-1
EndSplineSet
EndChar

StartChar: Agrave
Encoding: 192 192 129
Width: 1154
VWidth: 2137
Flags: HW
LayerCount: 2
Fore
SplineSet
928.562 -73.7197 m 1,0,-1
 816.438 287 l 1,1,-1
 371.652 287 l 1,2,-1
 260.708 -73.7197 l 1,3,-1
 20 -73.7197 l 1,4,-1
 507.578 1475 l 1,5,-1
 677.959 1475 l 1,6,-1
 1168.25 -73.7197 l 1,7,-1
 928.562 -73.7197 l 1,0,-1
594.121 948.023 m 1,8,-1
 447.07 474.92 l 1,9,-1
 741.953 474.92 l 1,10,-1
 594.121 948.023 l 1,8,-1
631.241 1540.88 m 1,11,-1
 184.211 1916.72 l 1,12,-1
 602.698 1916.72 l 1,13,-1
 874.848 1540.88 l 1,14,-1
 631.241 1540.88 l 1,11,-1
EndSplineSet
EndChar

StartChar: Aacute
Encoding: 193 193 130
Width: 1154
VWidth: 2137
Flags: HW
LayerCount: 2
Fore
SplineSet
928.562 -73.7197 m 1,0,-1
 816.438 287 l 1,1,-1
 371.652 287 l 1,2,-1
 260.708 -73.7197 l 1,3,-1
 20 -73.7197 l 1,4,-1
 507.578 1475 l 1,5,-1
 677.959 1475 l 1,6,-1
 1168.25 -73.7197 l 1,7,-1
 928.562 -73.7197 l 1,0,-1
594.121 948.023 m 1,8,-1
 447.07 474.92 l 1,9,-1
 741.953 474.92 l 1,10,-1
 594.121 948.023 l 1,8,-1
1003.95 1916.72 m 1,11,-1
 556.718 1540.88 l 1,12,-1
 312.73 1540.88 l 1,13,-1
 586.55 1916.72 l 1,14,-1
 1003.95 1916.72 l 1,11,-1
EndSplineSet
EndChar

StartChar: Acircumflex
Encoding: 194 194 131
Width: 1154
VWidth: 2137
Flags: HW
LayerCount: 2
Fore
SplineSet
928.562 -73.7197 m 1,0,-1
 816.438 287 l 1,1,-1
 371.652 287 l 1,2,-1
 260.708 -73.7197 l 1,3,-1
 20 -73.7197 l 1,4,-1
 507.578 1475 l 1,5,-1
 677.959 1475 l 1,6,-1
 1168.25 -73.7197 l 1,7,-1
 928.562 -73.7197 l 1,0,-1
594.121 948.023 m 1,8,-1
 447.07 474.92 l 1,9,-1
 741.953 474.92 l 1,10,-1
 594.121 948.023 l 1,8,-1
695.438 1916.72 m 1,11,-1
 1019.63 1540.88 l 1,12,-1
 735.38 1540.88 l 1,13,-1
 593.98 1689.27 l 1,14,-1
 452.58 1540.88 l 1,15,-1
 168.192 1540.88 l 1,16,-1
 493.791 1916.72 l 1,17,-1
 695.438 1916.72 l 1,11,-1
EndSplineSet
EndChar

StartChar: Atilde
Encoding: 195 195 132
Width: 1154
VWidth: 2137
Flags: HW
LayerCount: 2
Fore
SplineSet
928.562 -73.7197 m 1,0,-1
 816.438 287 l 1,1,-1
 371.652 287 l 1,2,-1
 260.708 -73.7197 l 1,3,-1
 20 -73.7197 l 1,4,-1
 507.578 1475 l 1,5,-1
 677.959 1475 l 1,6,-1
 1168.25 -73.7197 l 1,7,-1
 928.562 -73.7197 l 1,0,-1
594.121 948.023 m 1,8,-1
 447.07 474.92 l 1,9,-1
 741.953 474.92 l 1,10,-1
 594.121 948.023 l 1,8,-1
709.928 1805.19 m 0,11,12
 731.036 1793.6 731.036 1793.6 755.675 1793.6 c 0,13,14
 773.866 1793.6 773.866 1793.6 781.862 1804.08 c 0,15,16
 796.984 1823.89 796.984 1823.89 796.984 1861.64 c 2,17,-1
 796.984 1916.72 l 1,18,-1
 1014.08 1916.72 l 1,19,-1
 1014.08 1861.64 l 2,20,21
 1014.08 1805.09 1014.08 1805.09 1000.5 1755.35 c 0,22,23
 986.195 1702.96 986.195 1702.96 957.038 1663.25 c 0,24,25
 926.609 1622.23 926.609 1622.23 873.751 1598.39 c 0,26,27
 820.451 1574.36 820.451 1574.36 753.315 1574.36 c 0,28,29
 682.632 1574.36 682.632 1574.36 626.959 1599.48 c 0,30,31
 580.092 1620.63 580.092 1620.63 539.392 1646.05 c 0,32,33
 503.031 1668.75 503.031 1668.75 470.366 1687.63 c 0,34,35
 451.453 1698.56 451.453 1698.56 432.285 1698.56 c 0,36,37
 414.928 1698.56 414.928 1698.56 408.012 1689.07 c 0,38,39
 393.336 1668.92 393.336 1668.92 393.336 1631.6 c 2,40,-1
 393.336 1576.52 l 1,41,-1
 177.08 1576.52 l 1,42,-1
 177.08 1631.6 l 2,43,44
 177.08 1687.91 177.08 1687.91 190.042 1736.91 c 0,45,46
 203.748 1788.72 203.748 1788.72 232.285 1828.44 c 0,47,48
 262.459 1870.08 262.459 1870.08 316.023 1893.51 c 0,49,50
 369.067 1916.72 369.067 1916.72 437.006 1916.72 c 128,-1,51
 504.87 1916.72 504.87 1916.72 558.679 1891.04 c 0,52,53
 602.651 1870.04 602.651 1870.04 641.688 1845.45 c 0,54,55
 676.105 1823.76 676.105 1823.76 709.928 1805.19 c 0,11,12
EndSplineSet
EndChar

StartChar: Adieresis
Encoding: 196 196 133
Width: 1154
VWidth: 2139
Flags: HW
LayerCount: 2
Fore
SplineSet
928.562 -71.7607 m 1,0,-1
 816.438 288.96 l 1,1,-1
 371.652 288.96 l 1,2,-1
 260.708 -71.7607 l 1,3,-1
 20 -71.7607 l 1,4,-1
 507.578 1476.96 l 1,5,-1
 677.959 1476.96 l 1,6,-1
 1168.25 -71.7607 l 1,7,-1
 928.562 -71.7607 l 1,0,-1
594.121 949.984 m 1,8,-1
 447.07 476.88 l 1,9,-1
 741.953 476.88 l 1,10,-1
 594.121 949.984 l 1,8,-1
516.083 1589.28 m 1,11,-1
 222.08 1589.28 l 1,12,-1
 222.08 1865.76 l 1,13,-1
 516.083 1865.76 l 1,14,-1
 516.083 1589.28 l 1,11,-1
966.08 1589.28 m 1,15,-1
 671.877 1589.28 l 1,16,-1
 671.877 1865.76 l 1,17,-1
 966.08 1865.76 l 1,18,-1
 966.08 1589.28 l 1,15,-1
EndSplineSet
EndChar

StartChar: Aring
Encoding: 197 197 134
Width: 1154
VWidth: 2140
Flags: HW
LayerCount: 2
Fore
SplineSet
300.944 1452.6 m 0,0,1
 284.784 1496.29 284.784 1496.29 284.784 1544.24 c 0,2,3
 284.784 1603.07 284.784 1603.07 309.125 1655.04 c 0,4,5
 333.055 1706.13 333.055 1706.13 374.631 1744.85 c 128,-1,6
 416.342 1783.69 416.342 1783.69 472.326 1806.3 c 0,7,8
 529.383 1829.36 529.383 1829.36 594.011 1829.36 c 128,-1,9
 658.64 1829.36 658.64 1829.36 715.696 1806.3 c 0,10,11
 771.436 1783.78 771.436 1783.78 813.613 1745.18 c 128,-1,12
 855.8 1706.59 855.8 1706.59 880.406 1655.59 c 0,13,14
 905.599 1603.38 905.599 1603.38 905.599 1544.24 c 0,15,16
 905.599 1495.91 905.599 1495.91 888.579 1451.89 c 0,17,18
 871.875 1411.61 871.875 1411.61 842.006 1378.04 c 128,-1,19
 812.06 1344.39 812.06 1344.39 771.223 1320.12 c 0,20,21
 755.356 1310.69 755.356 1310.69 738.083 1303.05 c 1,22,-1
 1168.27 -70.3604 l 1,23,-1
 928.595 -70.3604 l 1,24,-1
 816.47 290.36 l 1,25,-1
 371.684 290.36 l 1,26,-1
 260.739 -70.3604 l 1,27,-1
 20 -70.3604 l 1,28,-1
 449.076 1303.91 l 1,29,30
 431.28 1312.05 431.28 1312.05 415.792 1321.41 c 0,31,32
 375.73 1345.66 375.73 1345.66 346.503 1378.71 c 0,33,34
 317.041 1412.02 317.041 1412.02 300.944 1452.6 c 0,0,1
594.152 951.384 m 1,35,-1
 447.102 478.28 l 1,36,-1
 741.985 478.28 l 1,37,-1
 594.152 951.384 l 1,35,-1
532.179 1570.13 m 0,38,39
 526.736 1558.12 526.736 1558.12 526.736 1544.24 c 0,40,41
 526.736 1531.7 526.736 1531.7 531.974 1520.43 c 0,42,43
 537.435 1508.67 537.435 1508.67 546.875 1500.03 c 0,44,45
 556.985 1490.78 556.985 1490.78 570.255 1485.18 c 0,46,47
 581.266 1480.52 581.266 1480.52 594.011 1480.52 c 0,48,49
 608.526 1480.52 608.526 1480.52 621.156 1485.6 c 0,50,51
 634.989 1491.15 634.989 1491.15 644.688 1500.03 c 0,52,53
 654.129 1508.67 654.129 1508.67 659.59 1520.43 c 0,54,55
 664.827 1531.7 664.827 1531.7 664.827 1544.24 c 0,56,57
 664.827 1558.12 664.827 1558.12 659.385 1570.13 c 0,58,59
 653.739 1582.58 653.739 1582.58 643.997 1591.79 c 0,60,61
 634.519 1600.76 634.519 1600.76 621.156 1606.12 c 0,62,63
 608.526 1611.2 608.526 1611.2 594.011 1611.2 c 0,64,65
 581.266 1611.2 581.266 1611.2 570.255 1606.54 c 0,66,67
 557.45 1601.15 557.45 1601.15 547.566 1591.79 c 128,-1,68
 537.826 1582.58 537.826 1582.58 532.179 1570.13 c 0,38,39
EndSplineSet
EndChar

StartChar: AE
Encoding: 198 198 135
Width: 1971
VWidth: 2154
Flags: HW
LayerCount: 2
Fore
SplineSet
1929 -57.3604 m 1,0,-1
 968.574 -57.3604 l 1,1,-1
 968.574 303.36 l 1,2,-1
 486.973 303.36 l 1,3,-1
 273.62 -57.3604 l 1,4,-1
 20 -57.3604 l 1,5,-1
 992.388 1491.36 l 1,6,-1
 1929 1491.36 l 1,7,-1
 1929 1248.36 l 1,8,-1
 1217.48 1248.36 l 1,9,-1
 1217.48 837.96 l 1,10,-1
 1799 837.96 l 1,11,-1
 1799 594.96 l 1,12,-1
 1217.48 594.96 l 1,13,-1
 1217.48 185.64 l 1,14,-1
 1929 185.64 l 1,15,-1
 1929 -57.3604 l 1,0,-1
632.533 491.28 m 1,16,-1
 968.574 491.28 l 1,17,-1
 968.574 1051.84 l 1,18,-1
 632.533 491.28 l 1,16,-1
EndSplineSet
EndChar

StartChar: Ccedilla
Encoding: 199 199 136
Width: 1277
VWidth: 2169
Flags: HW
LayerCount: 2
Fore
SplineSet
506.318 -203.49 m 2,0,-1
 421.969 -209.591 l 1,1,-1
 460.209 -249.419 l 2,2,3
 462.842 -252.162 462.842 -252.162 470.376 -257.668 c 0,4,5
 476.798 -262.363 476.798 -262.363 487.331 -267.103 c 0,6,7
 498.927 -272.322 498.927 -272.322 513.852 -276.246 c 0,8,9
 525.384 -279.28 525.384 -279.28 539.622 -279.28 c 0,10,11
 562.894 -279.28 562.894 -279.28 577.05 -269.162 c 0,12,13
 585.662 -263.006 585.662 -263.006 585.662 -247.96 c 0,14,15
 585.662 -235.684 585.662 -235.684 581.178 -228.31 c 0,16,17
 576.236 -220.182 576.236 -220.182 567.623 -214.745 c 0,18,19
 557.503 -208.357 557.503 -208.357 543.29 -205.489 c 0,20,21
 526.248 -202.048 526.248 -202.048 506.318 -203.49 c 2,0,-1
294.664 -369.772 m 1,22,-1
 390.431 -211.871 l 1,23,-1
 382.685 -212.539 l 1,24,-1
 492.2 -55.9824 l 1,25,26
 439.083 -47.4492 439.083 -47.4492 389.678 -29.167 c 0,27,28
 315.918 2.42969 315.918 2.42969 260.938 57.8037 c 128,-1,29
 206.01 113.127 206.01 113.127 174.643 186.651 c 0,30,31
 143 260.822 143 260.822 143 344.915 c 2,32,-1
 143 1120.44 l 2,33,34
 143 1204.53 143 1204.53 174.643 1278.71 c 0,35,36
 206.004 1352.22 206.004 1352.22 260.938 1407.55 c 128,-1,37
 315.91 1462.92 315.91 1462.92 389.678 1494.52 c 0,38,39
 481.86 1528.64 481.86 1528.64 585.662 1528.64 c 2,40,-1
 712.583 1528.64 l 2,41,42
 816.474 1528.64 816.474 1528.64 908.108 1494.47 c 0,43,44
 981.143 1460.59 981.143 1460.59 1036.06 1401.26 c 128,-1,45
 1091 1341.93 1091 1341.93 1122.36 1263.1 c 0,46,47
 1154 1183.57 1154 1183.57 1154 1093.4 c 2,48,-1
 1154 983.562 l 1,49,-1
 923 944.882 l 1,50,-1
 923 1093.4 l 2,51,52
 923 1133.8 923 1133.8 909.212 1168.15 c 0,53,54
 891.864 1203.33 891.864 1203.33 861.824 1229.42 c 128,-1,55
 831.797 1255.48 831.797 1255.48 791.231 1270.75 c 0,56,57
 751.678 1285.64 751.678 1285.64 705.117 1285.64 c 2,58,-1
 593.128 1285.64 l 2,59,60
 546.566 1285.64 546.566 1285.64 507.013 1272.1 c 0,61,62
 466.212 1258.12 466.212 1258.12 435.438 1234.22 c 0,63,64
 405.037 1210.6 405.037 1210.6 387.788 1178.77 c 0,65,66
 374 1147.55 374 1147.55 374 1110.8 c 2,67,-1
 374 354.464 l 2,68,69
 374 317.712 374 317.712 387.788 286.484 c 0,70,71
 405.142 254.47 405.142 254.47 435.799 230.271 c 128,-1,72
 466.453 206.071 466.453 206.071 507.013 192.185 c 0,73,74
 546.57 178.64 546.57 178.64 593.128 178.64 c 2,75,-1
 705.117 178.64 l 2,76,77
 751.674 178.64 751.674 178.64 791.231 193.531 c 0,78,79
 831.549 208.71 831.549 208.71 861.466 235.094 c 0,80,81
 891.755 261.809 891.755 261.809 909.212 297.217 c 0,82,83
 923 331.553 923 331.553 923 371.96 c 2,84,-1
 923 520.972 l 1,85,-1
 1154 480.358 l 1,86,-1
 1154 371.96 l 2,87,88
 1154 281.79 1154 281.79 1122.36 202.255 c 0,89,90
 1090.99 123.419 1090.99 123.419 1036.06 64.0928 c 128,-1,91
 981.138 4.77246 981.138 4.77246 908.108 -29.1055 c 0,92,93
 831.254 -57.7686 831.254 -57.7686 744.936 -62.4326 c 1,94,-1
 734.191 -78.7061 l 1,95,96
 751.972 -91.708 751.972 -91.708 767.556 -107.938 c 0,97,98
 791.606 -132.986 791.606 -132.986 809.432 -166.622 c 0,99,100
 829.549 -204.578 829.549 -204.578 829.549 -252.28 c 0,101,102
 829.549 -305.177 829.549 -305.177 806.504 -349.471 c 128,-1,103
 783.431 -393.816 783.431 -393.816 742.619 -424.9 c 0,104,105
 702.719 -455.289 702.719 -455.289 649.195 -471.236 c 0,106,107
 597.495 -486.64 597.495 -486.64 537.133 -486.64 c 0,108,109
 466.89 -486.64 466.89 -486.64 407.965 -462.452 c 0,110,111
 359.196 -439.467 359.196 -439.467 323.938 -401.387 c 2,112,-1
 294.664 -369.772 l 1,22,-1
EndSplineSet
EndChar

StartChar: Egrave
Encoding: 200 200 137
Width: 1257
VWidth: 2137
Flags: HW
LayerCount: 2
Fore
SplineSet
1175 -73.7197 m 1,0,-1
 164 -73.7197 l 1,1,-1
 164 1475 l 1,2,-1
 1175 1475 l 1,3,-1
 1175 1232 l 1,4,-1
 395 1232 l 1,5,-1
 395 821.6 l 1,6,-1
 1046 821.6 l 1,7,-1
 1046 578.6 l 1,8,-1
 395 578.6 l 1,9,-1
 395 169.28 l 1,10,-1
 1175 169.28 l 1,11,-1
 1175 -73.7197 l 1,0,-1
658.454 1540.88 m 1,12,-1
 217.77 1916.72 l 1,13,-1
 626.938 1916.72 l 1,14,-1
 915.62 1540.88 l 1,15,-1
 658.454 1540.88 l 1,12,-1
EndSplineSet
EndChar

StartChar: Eacute
Encoding: 201 201 138
Width: 1257
VWidth: 2137
Flags: HW
LayerCount: 2
Fore
SplineSet
1175 -73.7197 m 1,0,-1
 164 -73.7197 l 1,1,-1
 164 1475 l 1,2,-1
 1175 1475 l 1,3,-1
 1175 1232 l 1,4,-1
 395 1232 l 1,5,-1
 395 821.6 l 1,6,-1
 1046 821.6 l 1,7,-1
 1046 578.6 l 1,8,-1
 395 578.6 l 1,9,-1
 395 169.28 l 1,10,-1
 1175 169.28 l 1,11,-1
 1175 -73.7197 l 1,0,-1
1080.23 1916.72 m 1,12,-1
 629.529 1540.88 l 1,13,-1
 379.706 1540.88 l 1,14,-1
 661.046 1916.72 l 1,15,-1
 1080.23 1916.72 l 1,12,-1
EndSplineSet
EndChar

StartChar: Ecircumflex
Encoding: 202 202 139
Width: 1257
VWidth: 2137
Flags: HW
LayerCount: 2
Fore
SplineSet
1175 -73.7197 m 1,0,-1
 164 -73.7197 l 1,1,-1
 164 1475 l 1,2,-1
 1175 1475 l 1,3,-1
 1175 1232 l 1,4,-1
 395 1232 l 1,5,-1
 395 821.6 l 1,6,-1
 1046 821.6 l 1,7,-1
 1046 578.6 l 1,8,-1
 395 578.6 l 1,9,-1
 395 169.28 l 1,10,-1
 1175 169.28 l 1,11,-1
 1175 -73.7197 l 1,0,-1
775.749 1916.72 m 1,12,-1
 1095.89 1540.88 l 1,13,-1
 819.33 1540.88 l 1,14,-1
 669.044 1689.43 l 1,15,-1
 519.802 1540.88 l 1,16,-1
 243.113 1540.88 l 1,17,-1
 563.251 1916.72 l 1,18,-1
 775.749 1916.72 l 1,12,-1
EndSplineSet
EndChar

StartChar: Edieresis
Encoding: 203 203 140
Width: 1257
VWidth: 2139
Flags: HW
LayerCount: 2
Fore
SplineSet
1175 -71.7607 m 1,0,-1
 164 -71.7607 l 1,1,-1
 164 1476.96 l 1,2,-1
 1175 1476.96 l 1,3,-1
 1175 1233.96 l 1,4,-1
 395 1233.96 l 1,5,-1
 395 823.561 l 1,6,-1
 1046 823.561 l 1,7,-1
 1046 580.561 l 1,8,-1
 395 580.561 l 1,9,-1
 395 171.239 l 1,10,-1
 1175 171.239 l 1,11,-1
 1175 -71.7607 l 1,0,-1
536.98 1589.28 m 1,12,-1
 256 1589.28 l 1,13,-1
 256 1865.76 l 1,14,-1
 536.98 1865.76 l 1,15,-1
 536.98 1589.28 l 1,12,-1
1001 1589.28 m 1,16,-1
 699.986 1589.28 l 1,17,-1
 699.986 1865.76 l 1,18,-1
 1001 1865.76 l 1,19,-1
 1001 1589.28 l 1,16,-1
EndSplineSet
EndChar

StartChar: Igrave
Encoding: 204 204 141
Width: 559
VWidth: 2137
Flags: HW
LayerCount: 2
Fore
SplineSet
478.23 -73.7197 m 1,0,-1
 247.23 -73.7197 l 1,1,-1
 247.23 1475 l 1,2,-1
 478.23 1475 l 1,3,-1
 478.23 -73.7197 l 1,0,-1
395.854 1540.88 m 1,4,-1
 4 1916.72 l 1,5,-1
 370.525 1916.72 l 1,6,-1
 602.525 1540.88 l 1,7,-1
 395.854 1540.88 l 1,4,-1
EndSplineSet
EndChar

StartChar: Iacute
Encoding: 205 205 142
Width: 559
VWidth: 2137
Flags: HW
LayerCount: 2
Fore
SplineSet
439.294 -73.7197 m 1,0,-1
 208.294 -73.7197 l 1,1,-1
 208.294 1475 l 1,2,-1
 439.294 1475 l 1,3,-1
 439.294 -73.7197 l 1,0,-1
684.525 1916.72 m 1,4,-1
 292.672 1540.88 l 1,5,-1
 86 1540.88 l 1,6,-1
 318 1916.72 l 1,7,-1
 684.525 1916.72 l 1,4,-1
EndSplineSet
EndChar

StartChar: Icircumflex
Encoding: 206 206 143
Width: 763
VWidth: 2137
Flags: HW
LayerCount: 2
Fore
SplineSet
554.887 -73.7197 m 1,0,-1
 323.887 -73.7197 l 1,1,-1
 323.887 1475 l 1,2,-1
 554.887 1475 l 1,3,-1
 554.887 -73.7197 l 1,0,-1
525.774 1916.72 m 1,4,-1
 917.774 1540.88 l 1,5,-1
 600.654 1540.88 l 1,6,-1
 440.021 1689.43 l 1,7,-1
 290.518 1540.88 l 1,8,-1
 -37 1540.88 l 1,9,-1
 355 1916.72 l 1,10,-1
 525.774 1916.72 l 1,4,-1
EndSplineSet
EndChar

StartChar: Idieresis
Encoding: 207 207 144
Width: 559
VWidth: 2139
Flags: HW
LayerCount: 2
Fore
SplineSet
395 -71.7607 m 1,0,-1
 164 -71.7607 l 1,1,-1
 164 1476.96 l 1,2,-1
 395 1476.96 l 1,3,-1
 395 -71.7607 l 1,0,-1
215 1589.28 m 1,4,-1
 -41 1589.28 l 1,5,-1
 -41 1865.76 l 1,6,-1
 215 1865.76 l 1,7,-1
 215 1589.28 l 1,4,-1
602 1589.28 m 1,8,-1
 346 1589.28 l 1,9,-1
 346 1865.76 l 1,10,-1
 602 1865.76 l 1,11,-1
 602 1589.28 l 1,8,-1
EndSplineSet
EndChar

StartChar: Eth
Encoding: 208 208 145
Width: 1343
VWidth: 2154
Flags: HW
LayerCount: 2
Fore
SplineSet
61 738.6 m 1,0,-1
 188 738.6 l 1,1,-1
 188 1491.36 l 1,2,-1
 694 1491.36 l 2,3,4
 831.653 1491.36 831.653 1491.36 953.065 1457.19 c 0,5,6
 1026.14 1425.65 1026.14 1425.65 1081.06 1370.44 c 128,-1,7
 1136.05 1315.17 1136.05 1315.17 1167.41 1241.21 c 0,8,9
 1199 1166.74 1199 1166.74 1199 1082.89 c 2,10,-1
 1199 350.103 l 2,11,12
 1199 266.177 1199 266.177 1167.36 192.151 c 0,13,14
 1135.99 118.775 1135.99 118.775 1081.06 63.5576 c 128,-1,15
 1026.14 8.3457 1026.14 8.3457 953.065 -23.1855 c 0,16,17
 831.656 -57.3604 831.656 -57.3604 694 -57.3604 c 2,18,-1
 188 -57.3604 l 1,19,-1
 188 518.28 l 1,20,-1
 61 518.28 l 1,21,-1
 61 738.6 l 1,0,-1
968 359.825 m 2,22,-1
 968 1073.2 l 2,23,24
 968 1109.81 968 1109.81 954.212 1140.92 c 0,25,26
 931.402 1173 931.402 1173 891.266 1197.21 c 0,27,28
 851.633 1221.11 851.633 1221.11 798.207 1234.87 c 0,29,30
 745.8 1248.36 745.8 1248.36 688 1248.36 c 2,31,-1
 419 1248.36 l 1,32,-1
 419 738.6 l 1,33,-1
 659 738.6 l 1,34,-1
 659 518.28 l 1,35,-1
 419 518.28 l 1,36,-1
 419 185.64 l 1,37,-1
 688 185.64 l 2,38,39
 745.795 185.64 745.795 185.64 798.207 199.133 c 0,40,41
 851.949 212.969 851.949 212.969 891.74 236.587 c 128,-1,42
 931.537 260.209 931.537 260.209 954.212 292.101 c 0,43,44
 968 323.212 968 323.212 968 359.825 c 2,22,-1
EndSplineSet
EndChar

StartChar: Ntilde
Encoding: 209 209 146
Width: 1339
VWidth: 2137
Flags: HW
LayerCount: 2
Fore
SplineSet
1046.15 -73.7197 m 1,0,-1
 1021.54 -64.4854 l 1,1,-1
 411.042 924.529 l 1,2,-1
 411.042 -73.7197 l 1,3,-1
 164 -73.7197 l 1,4,-1
 164 1475 l 1,5,-1
 311.575 1475 l 1,6,-1
 944 473.935 l 1,7,-1
 944 1475 l 1,8,-1
 1175 1475 l 1,9,-1
 1175 -73.7197 l 1,10,-1
 1046.15 -73.7197 l 1,0,-1
791.671 1805.19 m 0,11,12
 812.996 1793.6 812.996 1793.6 837.885 1793.6 c 0,13,14
 856.261 1793.6 856.261 1793.6 864.34 1804.08 c 0,15,16
 879.616 1823.89 879.616 1823.89 879.616 1861.64 c 2,17,-1
 879.616 1916.72 l 1,18,-1
 1087 1916.72 l 1,19,-1
 1087 1861.64 l 2,20,21
 1087 1805.09 1087 1805.09 1073.42 1755.35 c 0,22,23
 1059.12 1702.96 1059.12 1702.96 1029.96 1663.25 c 0,24,25
 999.828 1622.23 999.828 1622.23 955.042 1598.39 c 0,26,27
 903.322 1574.36 903.322 1574.36 835.501 1574.36 c 0,28,29
 764.094 1574.36 764.094 1574.36 707.857 1599.48 c 0,30,31
 660.502 1620.64 660.502 1620.64 619.396 1646.05 c 0,32,33
 582.682 1668.74 582.682 1668.74 549.667 1687.63 c 0,34,35
 530.56 1698.56 530.56 1698.56 511.196 1698.56 c 0,36,37
 493.662 1698.56 493.662 1698.56 486.675 1689.07 c 0,38,39
 471.85 1668.92 471.85 1668.92 471.85 1631.6 c 2,40,-1
 471.85 1576.52 l 1,41,-1
 250 1576.52 l 1,42,-1
 250 1631.6 l 2,43,44
 250 1687.91 250 1687.91 262.962 1736.91 c 0,45,46
 276.668 1788.72 276.668 1788.72 305.206 1828.44 c 0,47,48
 339.637 1870.08 339.637 1870.08 393.749 1893.51 c 0,49,50
 447.333 1916.72 447.333 1916.72 515.965 1916.72 c 128,-1,51
 584.521 1916.72 584.521 1916.72 638.88 1891.04 c 0,52,53
 683.301 1870.04 683.301 1870.04 722.735 1845.45 c 0,54,55
 757.503 1823.76 757.503 1823.76 791.671 1805.19 c 0,11,12
EndSplineSet
EndChar

StartChar: Ograve
Encoding: 210 210 147
Width: 1298
VWidth: 2138
Flags: HW
LayerCount: 2
Fore
SplineSet
1154 1089.2 m 2,0,-1
 1154 313.677 l 2,1,2
 1154 229.587 1154 229.587 1122.36 155.415 c 0,3,4
 1090.99 81.8936 1090.99 81.8936 1036.06 26.5693 c 128,-1,5
 981.138 -28.752 981.138 -28.752 908.108 -60.3457 c 0,6,7
 816.476 -94.5195 816.476 -94.5195 712.583 -94.5195 c 2,8,-1
 585.662 -94.5195 l 2,9,10
 481.864 -94.5195 481.864 -94.5195 389.678 -60.4072 c 0,11,12
 315.918 -28.8105 315.918 -28.8105 260.938 26.5645 c 128,-1,13
 206.01 81.8877 206.01 81.8877 174.643 155.411 c 0,14,15
 143 229.583 143 229.583 143 313.675 c 2,16,-1
 143 1089.2 l 2,17,18
 143 1173.29 143 1173.29 174.643 1247.47 c 0,19,20
 206.004 1320.98 206.004 1320.98 260.938 1376.31 c 128,-1,21
 315.91 1431.68 315.91 1431.68 389.678 1463.28 c 0,22,23
 481.86 1497.4 481.86 1497.4 585.662 1497.4 c 2,24,-1
 712.583 1497.4 l 2,25,26
 816.474 1497.4 816.474 1497.4 908.108 1463.23 c 0,27,28
 981.143 1431.63 981.143 1431.63 1036.06 1376.31 c 128,-1,29
 1091 1320.98 1091 1320.98 1122.36 1247.47 c 0,30,31
 1154 1173.29 1154 1173.29 1154 1089.2 c 2,0,-1
923 323.225 m 2,32,-1
 923 1079.56 l 2,33,34
 923 1116.31 923 1116.31 909.212 1147.53 c 0,35,36
 891.864 1179.54 891.864 1179.54 861.824 1203.26 c 128,-1,37
 831.797 1226.97 831.797 1226.97 791.231 1240.86 c 0,38,39
 751.678 1254.4 751.678 1254.4 705.117 1254.4 c 2,40,-1
 593.128 1254.4 l 2,41,42
 546.566 1254.4 546.566 1254.4 507.013 1240.86 c 0,43,44
 466.212 1226.88 466.212 1226.88 435.438 1202.98 c 0,45,46
 405.037 1179.36 405.037 1179.36 387.788 1147.53 c 0,47,48
 374 1116.31 374 1116.31 374 1079.56 c 2,49,-1
 374 323.225 l 2,50,51
 374 286.472 374 286.472 387.788 255.244 c 0,52,53
 405.142 223.23 405.142 223.23 435.799 199.03 c 128,-1,54
 466.453 174.831 466.453 174.831 507.013 160.944 c 0,55,56
 546.57 147.4 546.57 147.4 593.128 147.4 c 2,57,-1
 705.117 147.4 l 2,58,59
 751.674 147.4 751.674 147.4 791.231 160.944 c 0,60,61
 831.549 174.748 831.549 174.748 861.466 198.746 c 0,62,63
 891.755 223.041 891.755 223.041 909.212 255.244 c 0,64,65
 923 286.473 923 286.473 923 323.225 c 2,32,-1
359.066 1821.32 m 2,66,67
 349.113 1830.43 349.113 1830.43 259.132 1917.52 c 1,68,-1
 683.085 1917.52 l 1,69,-1
 959.294 1541.68 l 1,70,-1
 713.292 1541.68 l 1,71,-1
 359.066 1821.32 l 2,66,67
EndSplineSet
EndChar

StartChar: Oacute
Encoding: 211 211 148
Width: 1298
VWidth: 2138
Flags: HW
LayerCount: 2
Fore
SplineSet
1154 1089.2 m 2,0,-1
 1154 313.677 l 2,1,2
 1154 229.587 1154 229.587 1122.36 155.415 c 0,3,4
 1090.99 81.8936 1090.99 81.8936 1036.06 26.5693 c 128,-1,5
 981.138 -28.752 981.138 -28.752 908.108 -60.3457 c 0,6,7
 816.476 -94.5195 816.476 -94.5195 712.583 -94.5195 c 2,8,-1
 585.662 -94.5195 l 2,9,10
 481.864 -94.5195 481.864 -94.5195 389.678 -60.4072 c 0,11,12
 315.918 -28.8105 315.918 -28.8105 260.938 26.5645 c 128,-1,13
 206.01 81.8877 206.01 81.8877 174.643 155.411 c 0,14,15
 143 229.583 143 229.583 143 313.675 c 2,16,-1
 143 1089.2 l 2,17,18
 143 1173.29 143 1173.29 174.643 1247.47 c 0,19,20
 206.004 1320.98 206.004 1320.98 260.938 1376.31 c 128,-1,21
 315.91 1431.68 315.91 1431.68 389.678 1463.28 c 0,22,23
 481.86 1497.4 481.86 1497.4 585.662 1497.4 c 2,24,-1
 712.583 1497.4 l 2,25,26
 816.474 1497.4 816.474 1497.4 908.108 1463.23 c 0,27,28
 981.143 1431.63 981.143 1431.63 1036.06 1376.31 c 128,-1,29
 1091 1320.98 1091 1320.98 1122.36 1247.47 c 0,30,31
 1154 1173.29 1154 1173.29 1154 1089.2 c 2,0,-1
923 323.225 m 2,32,-1
 923 1079.56 l 2,33,34
 923 1116.31 923 1116.31 909.212 1147.53 c 0,35,36
 891.864 1179.54 891.864 1179.54 861.824 1203.26 c 128,-1,37
 831.797 1226.97 831.797 1226.97 791.231 1240.86 c 0,38,39
 751.678 1254.4 751.678 1254.4 705.117 1254.4 c 2,40,-1
 593.128 1254.4 l 2,41,42
 546.566 1254.4 546.566 1254.4 507.013 1240.86 c 0,43,44
 466.212 1226.88 466.212 1226.88 435.438 1202.98 c 0,45,46
 405.037 1179.36 405.037 1179.36 387.788 1147.53 c 0,47,48
 374 1116.31 374 1116.31 374 1079.56 c 2,49,-1
 374 323.225 l 2,50,51
 374 286.472 374 286.472 387.788 255.244 c 0,52,53
 405.142 223.23 405.142 223.23 435.799 199.03 c 128,-1,54
 466.453 174.831 466.453 174.831 507.013 160.944 c 0,55,56
 546.57 147.4 546.57 147.4 593.128 147.4 c 2,57,-1
 705.117 147.4 l 2,58,59
 751.674 147.4 751.674 147.4 791.231 160.944 c 0,60,61
 831.549 174.748 831.549 174.748 861.466 198.746 c 0,62,63
 891.755 223.041 891.755 223.041 909.212 255.244 c 0,64,65
 923 286.473 923 286.473 923 323.225 c 2,32,-1
1080.23 1917.52 m 1,66,-1
 634.659 1541.68 l 1,67,-1
 379.706 1541.68 l 1,68,-1
 666.177 1917.52 l 1,69,-1
 1080.23 1917.52 l 1,66,-1
EndSplineSet
EndChar

StartChar: Ocircumflex
Encoding: 212 212 149
Width: 1298
VWidth: 2138
Flags: HW
LayerCount: 2
Fore
SplineSet
1154 1089.2 m 2,0,-1
 1154 313.677 l 2,1,2
 1154 229.587 1154 229.587 1122.36 155.415 c 0,3,4
 1090.99 81.8936 1090.99 81.8936 1036.06 26.5693 c 128,-1,5
 981.138 -28.752 981.138 -28.752 908.108 -60.3457 c 0,6,7
 816.476 -94.5195 816.476 -94.5195 712.583 -94.5195 c 2,8,-1
 585.662 -94.5195 l 2,9,10
 481.864 -94.5195 481.864 -94.5195 389.678 -60.4072 c 0,11,12
 315.918 -28.8105 315.918 -28.8105 260.938 26.5645 c 128,-1,13
 206.01 81.8877 206.01 81.8877 174.643 155.411 c 0,14,15
 143 229.583 143 229.583 143 313.675 c 2,16,-1
 143 1089.2 l 2,17,18
 143 1173.29 143 1173.29 174.643 1247.47 c 0,19,20
 206.004 1320.98 206.004 1320.98 260.938 1376.31 c 128,-1,21
 315.91 1431.68 315.91 1431.68 389.678 1463.28 c 0,22,23
 481.86 1497.4 481.86 1497.4 585.662 1497.4 c 2,24,-1
 712.583 1497.4 l 2,25,26
 816.474 1497.4 816.474 1497.4 908.108 1463.23 c 0,27,28
 981.143 1431.63 981.143 1431.63 1036.06 1376.31 c 128,-1,29
 1091 1320.98 1091 1320.98 1122.36 1247.47 c 0,30,31
 1154 1173.29 1154 1173.29 1154 1089.2 c 2,0,-1
923 323.225 m 2,32,-1
 923 1079.56 l 2,33,34
 923 1116.31 923 1116.31 909.212 1147.53 c 0,35,36
 891.864 1179.54 891.864 1179.54 861.824 1203.26 c 128,-1,37
 831.797 1226.97 831.797 1226.97 791.231 1240.86 c 0,38,39
 751.678 1254.4 751.678 1254.4 705.117 1254.4 c 2,40,-1
 593.128 1254.4 l 2,41,42
 546.566 1254.4 546.566 1254.4 507.013 1240.86 c 0,43,44
 466.212 1226.88 466.212 1226.88 435.438 1202.98 c 0,45,46
 405.037 1179.36 405.037 1179.36 387.788 1147.53 c 0,47,48
 374 1116.31 374 1116.31 374 1079.56 c 2,49,-1
 374 323.225 l 2,50,51
 374 286.472 374 286.472 387.788 255.244 c 0,52,53
 405.142 223.23 405.142 223.23 435.799 199.03 c 128,-1,54
 466.453 174.831 466.453 174.831 507.013 160.944 c 0,55,56
 546.57 147.4 546.57 147.4 593.128 147.4 c 2,57,-1
 705.117 147.4 l 2,58,59
 751.674 147.4 751.674 147.4 791.231 160.944 c 0,60,61
 831.549 174.748 831.549 174.748 861.466 198.746 c 0,62,63
 891.755 223.041 891.755 223.041 909.212 255.244 c 0,64,65
 923 286.473 923 286.473 923 323.225 c 2,32,-1
754.749 1917.52 m 1,66,-1
 1074.89 1541.68 l 1,67,-1
 798.198 1541.68 l 1,68,-1
 648.956 1690.23 l 1,69,-1
 498.67 1541.68 l 1,70,-1
 223.453 1541.68 l 1,71,-1
 542.158 1917.52 l 1,72,-1
 754.749 1917.52 l 1,66,-1
EndSplineSet
EndChar

StartChar: Otilde
Encoding: 213 213 150
Width: 1298
VWidth: 2138
Flags: HW
LayerCount: 2
Fore
SplineSet
1154 1089.2 m 2,0,-1
 1154 313.677 l 2,1,2
 1154 229.587 1154 229.587 1122.36 155.415 c 0,3,4
 1090.99 81.8936 1090.99 81.8936 1036.06 26.5693 c 128,-1,5
 981.138 -28.752 981.138 -28.752 908.108 -60.3457 c 0,6,7
 816.476 -94.5195 816.476 -94.5195 712.583 -94.5195 c 2,8,-1
 585.662 -94.5195 l 2,9,10
 481.864 -94.5195 481.864 -94.5195 389.678 -60.4072 c 0,11,12
 315.918 -28.8105 315.918 -28.8105 260.938 26.5645 c 128,-1,13
 206.01 81.8877 206.01 81.8877 174.643 155.411 c 0,14,15
 143 229.583 143 229.583 143 313.675 c 2,16,-1
 143 1089.2 l 2,17,18
 143 1173.29 143 1173.29 174.643 1247.47 c 0,19,20
 206.004 1320.98 206.004 1320.98 260.938 1376.31 c 128,-1,21
 315.91 1431.68 315.91 1431.68 389.678 1463.28 c 0,22,23
 481.86 1497.4 481.86 1497.4 585.662 1497.4 c 2,24,-1
 712.583 1497.4 l 2,25,26
 816.474 1497.4 816.474 1497.4 908.108 1463.23 c 0,27,28
 981.143 1431.63 981.143 1431.63 1036.06 1376.31 c 128,-1,29
 1091 1320.98 1091 1320.98 1122.36 1247.47 c 0,30,31
 1154 1173.29 1154 1173.29 1154 1089.2 c 2,0,-1
923 323.225 m 2,32,-1
 923 1079.56 l 2,33,34
 923 1116.31 923 1116.31 909.212 1147.53 c 0,35,36
 891.864 1179.54 891.864 1179.54 861.824 1203.26 c 128,-1,37
 831.797 1226.97 831.797 1226.97 791.231 1240.86 c 0,38,39
 751.678 1254.4 751.678 1254.4 705.117 1254.4 c 2,40,-1
 593.128 1254.4 l 2,41,42
 546.566 1254.4 546.566 1254.4 507.013 1240.86 c 0,43,44
 466.212 1226.88 466.212 1226.88 435.438 1202.98 c 0,45,46
 405.037 1179.36 405.037 1179.36 387.788 1147.53 c 0,47,48
 374 1116.31 374 1116.31 374 1079.56 c 2,49,-1
 374 323.225 l 2,50,51
 374 286.472 374 286.472 387.788 255.244 c 0,52,53
 405.142 223.23 405.142 223.23 435.799 199.03 c 128,-1,54
 466.453 174.831 466.453 174.831 507.013 160.944 c 0,55,56
 546.57 147.4 546.57 147.4 593.128 147.4 c 2,57,-1
 705.117 147.4 l 2,58,59
 751.674 147.4 751.674 147.4 791.231 160.944 c 0,60,61
 831.549 174.748 831.549 174.748 861.466 198.746 c 0,62,63
 891.755 223.041 891.755 223.041 909.212 255.244 c 0,64,65
 923 286.473 923 286.473 923 323.225 c 2,32,-1
768.875 1806 m 0,66,67
 791.131 1794.4 791.131 1794.4 817.106 1794.4 c 0,68,69
 836.283 1794.4 836.283 1794.4 844.714 1804.88 c 0,70,71
 860.657 1824.69 860.657 1824.69 860.657 1862.44 c 2,72,-1
 860.657 1917.52 l 1,73,-1
 1066 1917.52 l 1,74,-1
 1066 1862.44 l 2,75,76
 1066 1805.89 1066 1805.89 1052.42 1756.15 c 0,77,78
 1038.2 1704.05 1038.2 1704.05 1009.79 1664.52 c 0,79,80
 980.087 1623.17 980.087 1623.17 935.042 1599.19 c 0,81,82
 885.398 1575.16 885.398 1575.16 814.617 1575.16 c 0,83,84
 740.268 1575.16 740.268 1575.16 681.088 1600.15 c 0,85,86
 630.868 1621.35 630.868 1621.35 587.838 1646.85 c 0,87,88
 549.502 1669.55 549.502 1669.55 515.067 1688.43 c 0,89,90
 495.126 1699.36 495.126 1699.36 476.161 1699.36 c 0,91,92
 457.862 1699.36 457.862 1699.36 450.571 1689.87 c 0,93,94
 435.099 1669.72 435.099 1669.72 435.099 1632.4 c 2,95,-1
 435.099 1577.32 l 1,96,-1
 229 1577.32 l 1,97,-1
 229 1632.4 l 2,98,99
 229 1689.06 229 1689.06 242.634 1738.35 c 0,100,101
 256.864 1789.8 256.864 1789.8 285.206 1829.24 c 0,102,103
 315.111 1870.88 315.111 1870.88 360.496 1894.31 c 0,104,105
 409.512 1917.52 409.512 1917.52 481.139 1917.52 c 0,106,107
 551.443 1917.52 551.443 1917.52 608.172 1891.84 c 0,108,109
 654.288 1870.95 654.288 1870.95 695.913 1846.48 c 0,110,111
 733.087 1824.63 733.087 1824.63 768.875 1806 c 0,66,67
EndSplineSet
EndChar

StartChar: Odieresis
Encoding: 214 214 151
Width: 1298
VWidth: 2140
Flags: HW
LayerCount: 2
Fore
SplineSet
1154 1091.16 m 2,0,-1
 1154 315.637 l 2,1,2
 1154 231.547 1154 231.547 1122.36 157.375 c 0,3,4
 1090.99 83.8535 1090.99 83.8535 1036.06 28.5283 c 128,-1,5
 981.138 -26.792 981.138 -26.792 908.108 -58.3857 c 0,6,7
 816.476 -92.5605 816.476 -92.5605 712.583 -92.5605 c 2,8,-1
 585.662 -92.5605 l 2,9,10
 481.864 -92.5605 481.864 -92.5605 389.678 -58.4473 c 0,11,12
 315.918 -26.8506 315.918 -26.8506 260.938 28.5244 c 128,-1,13
 206.01 83.8477 206.01 83.8477 174.643 157.371 c 0,14,15
 143 231.543 143 231.543 143 315.635 c 2,16,-1
 143 1091.16 l 2,17,18
 143 1175.25 143 1175.25 174.643 1249.43 c 0,19,20
 206.004 1322.94 206.004 1322.94 260.938 1378.27 c 128,-1,21
 315.91 1433.64 315.91 1433.64 389.678 1465.24 c 0,22,23
 481.86 1499.36 481.86 1499.36 585.662 1499.36 c 2,24,-1
 712.583 1499.36 l 2,25,26
 816.474 1499.36 816.474 1499.36 908.108 1465.19 c 0,27,28
 981.143 1433.59 981.143 1433.59 1036.06 1378.27 c 128,-1,29
 1091 1322.94 1091 1322.94 1122.36 1249.43 c 0,30,31
 1154 1175.25 1154 1175.25 1154 1091.16 c 2,0,-1
923 325.184 m 2,32,-1
 923 1081.52 l 2,33,34
 923 1118.27 923 1118.27 909.212 1149.49 c 0,35,36
 891.864 1181.5 891.864 1181.5 861.824 1205.22 c 128,-1,37
 831.797 1228.93 831.797 1228.93 791.231 1242.82 c 0,38,39
 751.678 1256.36 751.678 1256.36 705.117 1256.36 c 2,40,-1
 593.128 1256.36 l 2,41,42
 546.566 1256.36 546.566 1256.36 507.013 1242.82 c 0,43,44
 466.212 1228.84 466.212 1228.84 435.438 1204.94 c 0,45,46
 405.037 1181.32 405.037 1181.32 387.788 1149.49 c 0,47,48
 374 1118.27 374 1118.27 374 1081.52 c 2,49,-1
 374 325.184 l 2,50,51
 374 288.432 374 288.432 387.788 257.205 c 0,52,53
 405.142 225.189 405.142 225.189 435.799 200.991 c 128,-1,54
 466.453 176.791 466.453 176.791 507.013 162.904 c 0,55,56
 546.57 149.36 546.57 149.36 593.128 149.36 c 2,57,-1
 705.117 149.36 l 2,58,59
 751.674 149.36 751.674 149.36 791.231 162.904 c 0,60,61
 831.549 176.707 831.549 176.707 861.466 200.705 c 0,62,63
 891.755 225.001 891.755 225.001 909.212 257.205 c 0,64,65
 923 288.433 923 288.433 923 325.184 c 2,32,-1
566.997 1590.08 m 1,66,-1
 276 1590.08 l 1,67,-1
 276 1866.56 l 1,68,-1
 566.997 1866.56 l 1,69,-1
 566.997 1590.08 l 1,66,-1
1021 1590.08 m 1,70,-1
 731.247 1590.08 l 1,71,-1
 731.247 1866.56 l 1,72,-1
 1021 1866.56 l 1,73,-1
 1021 1590.08 l 1,70,-1
EndSplineSet
EndChar

StartChar: multiply
Encoding: 215 215 152
Width: 1400
VWidth: 2153
Flags: HW
LayerCount: 2
Fore
SplineSet
267.432 1290.67 m 1,0,-1
 721.629 894.162 l 1,1,-1
 1175.83 1290.67 l 1,2,-1
 1338.6 1112.89 l 1,3,-1
 911.628 718.923 l 1,4,-1
 1341.26 319.428 l 1,5,-1
 1175 145.658 l 1,6,-1
 721.629 541.715 l 1,7,-1
 268.26 145.658 l 1,8,-1
 102 319.428 l 1,9,-1
 531.631 718.923 l 1,10,-1
 104.656 1112.89 l 1,11,-1
 267.432 1290.67 l 1,0,-1
EndSplineSet
EndChar

